G75*
%MOIN*%
%OFA0B0*%
%FSLAX25Y25*%
%IPPOS*%
%LPD*%
%AMOC8*
5,1,8,0,0,1.08239X$1,22.5*
%
%ADD10C,0.01600*%
%ADD11C,0.00600*%
%ADD12OC8,0.05200*%
%ADD13C,0.05200*%
%ADD14C,0.05200*%
%ADD15C,0.08600*%
%ADD16C,0.06000*%
%ADD17OC8,0.06300*%
%ADD18C,0.06300*%
%ADD19C,0.07800*%
%ADD20C,0.06600*%
%ADD21C,0.08600*%
%ADD22C,0.02400*%
%ADD23C,0.03200*%
%ADD24R,0.06543X0.06543*%
%ADD25R,0.08043X0.08043*%
%ADD26C,0.05600*%
%ADD27C,0.07000*%
%ADD28R,0.08754X0.08754*%
D10*
X0001800Y0001800D02*
X0001939Y0364318D01*
X0437215Y0364329D01*
X0437215Y0001800D01*
X0001800Y0001800D01*
X0001801Y0003261D02*
X0243144Y0003261D01*
X0243063Y0003294D02*
X0244141Y0002848D01*
X0245198Y0002354D01*
X0245349Y0002347D01*
X0245489Y0002289D01*
X0246655Y0002289D01*
X0247821Y0002237D01*
X0247963Y0002289D01*
X0340997Y0002289D01*
X0341871Y0002174D01*
X0342299Y0002289D01*
X0342741Y0002289D01*
X0343556Y0002626D01*
X0344407Y0002855D01*
X0344758Y0003125D01*
X0345167Y0003294D01*
X0345790Y0003917D01*
X0356924Y0012467D01*
X0357338Y0012640D01*
X0357956Y0013260D01*
X0358651Y0013793D01*
X0358875Y0014182D01*
X0359192Y0014500D01*
X0359525Y0015309D01*
X0359963Y0016068D01*
X0360021Y0016513D01*
X0360192Y0016927D01*
X0360190Y0017803D01*
X0360304Y0018671D01*
X0360188Y0019104D01*
X0360150Y0040399D01*
X0361308Y0039919D01*
X0371658Y0039919D01*
X0373790Y0040802D01*
X0375422Y0042434D01*
X0376305Y0044566D01*
X0376305Y0054916D01*
X0375422Y0057048D01*
X0374267Y0058203D01*
X0374292Y0058778D01*
X0376400Y0059651D01*
X0377258Y0060509D01*
X0412984Y0060509D01*
X0415704Y0061635D01*
X0417786Y0063717D01*
X0425548Y0071479D01*
X0426675Y0074199D01*
X0426675Y0197236D01*
X0426676Y0197240D01*
X0426676Y0211797D01*
X0426737Y0211943D01*
X0426737Y0214887D01*
X0426676Y0215034D01*
X0426676Y0261397D01*
X0428042Y0262764D01*
X0428925Y0264895D01*
X0428925Y0267519D01*
X0429141Y0268077D01*
X0429141Y0271827D01*
X0428925Y0272384D01*
X0428925Y0275246D01*
X0428042Y0277378D01*
X0426676Y0278744D01*
X0426676Y0337111D01*
X0425550Y0339831D01*
X0423468Y0341913D01*
X0408735Y0356646D01*
X0406015Y0357773D01*
X0206221Y0357773D01*
X0203501Y0356646D01*
X0201419Y0354564D01*
X0187048Y0340193D01*
X0185921Y0337473D01*
X0185921Y0323294D01*
X0185173Y0323294D01*
X0185173Y0341044D01*
X0184047Y0343764D01*
X0179210Y0348601D01*
X0177128Y0350682D01*
X0174408Y0351809D01*
X0168814Y0351809D01*
X0168742Y0351982D01*
X0166267Y0354457D01*
X0163032Y0355797D01*
X0159532Y0355797D01*
X0156297Y0354457D01*
X0156282Y0354442D01*
X0156267Y0354457D01*
X0153032Y0355797D01*
X0149532Y0355797D01*
X0146297Y0354457D01*
X0146282Y0354442D01*
X0146267Y0354457D01*
X0143032Y0355797D01*
X0139532Y0355797D01*
X0136297Y0354457D01*
X0133822Y0351982D01*
X0132482Y0348747D01*
X0132482Y0339247D01*
X0133822Y0336012D01*
X0136297Y0333537D01*
X0136893Y0333290D01*
X0136875Y0333233D01*
X0136757Y0332487D01*
X0136757Y0329309D01*
X0141356Y0329309D01*
X0141356Y0328909D01*
X0136757Y0328909D01*
X0136757Y0325731D01*
X0136875Y0324985D01*
X0137108Y0324267D01*
X0137451Y0323593D01*
X0137895Y0322982D01*
X0138430Y0322448D01*
X0139041Y0322004D01*
X0139714Y0321661D01*
X0140433Y0321427D01*
X0141179Y0321309D01*
X0141357Y0321309D01*
X0141357Y0328909D01*
X0141757Y0328909D01*
X0141757Y0329309D01*
X0146357Y0329309D01*
X0146357Y0332487D01*
X0146238Y0333233D01*
X0146155Y0333490D01*
X0146267Y0333537D01*
X0146282Y0333552D01*
X0146297Y0333537D01*
X0146893Y0333290D01*
X0146875Y0333233D01*
X0146757Y0332487D01*
X0146757Y0329309D01*
X0151356Y0329309D01*
X0151356Y0328909D01*
X0146757Y0328909D01*
X0146757Y0325731D01*
X0146875Y0324985D01*
X0147108Y0324267D01*
X0147451Y0323593D01*
X0147895Y0322982D01*
X0148430Y0322448D01*
X0149041Y0322004D01*
X0149714Y0321661D01*
X0150433Y0321427D01*
X0151179Y0321309D01*
X0151357Y0321309D01*
X0151357Y0328909D01*
X0151757Y0328909D01*
X0151757Y0329309D01*
X0156357Y0329309D01*
X0156357Y0332487D01*
X0156238Y0333233D01*
X0156155Y0333490D01*
X0156267Y0333537D01*
X0156282Y0333552D01*
X0156297Y0333537D01*
X0156893Y0333290D01*
X0156875Y0333233D01*
X0156757Y0332487D01*
X0156757Y0329309D01*
X0161356Y0329309D01*
X0161356Y0328909D01*
X0156757Y0328909D01*
X0156757Y0325731D01*
X0156875Y0324985D01*
X0157108Y0324267D01*
X0157451Y0323593D01*
X0157895Y0322982D01*
X0158430Y0322448D01*
X0159041Y0322004D01*
X0159714Y0321661D01*
X0160433Y0321427D01*
X0161179Y0321309D01*
X0161357Y0321309D01*
X0161357Y0328909D01*
X0161757Y0328909D01*
X0161757Y0329309D01*
X0166357Y0329309D01*
X0166357Y0332487D01*
X0166238Y0333233D01*
X0166155Y0333490D01*
X0166267Y0333537D01*
X0168742Y0336012D01*
X0169155Y0337009D01*
X0169871Y0337009D01*
X0170373Y0336507D01*
X0170373Y0322860D01*
X0168701Y0322168D01*
X0166620Y0320086D01*
X0164202Y0317669D01*
X0160510Y0314388D01*
X0156997Y0314388D01*
X0153763Y0313048D01*
X0151287Y0310573D01*
X0149947Y0307339D01*
X0149947Y0303838D01*
X0151287Y0300603D01*
X0153763Y0298128D01*
X0154499Y0297823D01*
X0154299Y0297431D01*
X0154066Y0296712D01*
X0153947Y0295966D01*
X0153947Y0295788D01*
X0161547Y0295788D01*
X0161547Y0295388D01*
X0153947Y0295388D01*
X0153947Y0295210D01*
X0154066Y0294464D01*
X0154299Y0293746D01*
X0154499Y0293353D01*
X0153910Y0293110D01*
X0130706Y0293110D01*
X0130246Y0293570D01*
X0129510Y0293875D01*
X0129710Y0294267D01*
X0129943Y0294986D01*
X0130061Y0295732D01*
X0130061Y0295910D01*
X0122461Y0295910D01*
X0122461Y0296310D01*
X0130061Y0296310D01*
X0130061Y0296487D01*
X0129943Y0297234D01*
X0129710Y0297952D01*
X0129510Y0298344D01*
X0130246Y0298649D01*
X0132722Y0301125D01*
X0134061Y0304359D01*
X0134061Y0307860D01*
X0132722Y0311094D01*
X0130246Y0313570D01*
X0129696Y0313798D01*
X0129696Y0318226D01*
X0128569Y0320945D01*
X0126488Y0323027D01*
X0123333Y0326182D01*
X0120613Y0327309D01*
X0099961Y0327309D01*
X0097389Y0328374D01*
X0096559Y0328374D01*
X0096117Y0328816D01*
X0093544Y0329881D01*
X0028071Y0329881D01*
X0025498Y0328816D01*
X0023529Y0326847D01*
X0010787Y0314105D01*
X0009722Y0311532D01*
X0009722Y0252580D01*
X0009721Y0252578D01*
X0009722Y0251182D01*
X0009722Y0249798D01*
X0009723Y0249796D01*
X0009875Y0051414D01*
X0009783Y0050322D01*
X0009876Y0050030D01*
X0009876Y0049725D01*
X0010296Y0048713D01*
X0010629Y0047669D01*
X0010826Y0047435D01*
X0010944Y0047153D01*
X0011719Y0046378D01*
X0022627Y0033466D01*
X0022732Y0033207D01*
X0023520Y0032409D01*
X0024243Y0031553D01*
X0024492Y0031424D01*
X0024688Y0031225D01*
X0025721Y0030789D01*
X0026718Y0030275D01*
X0026996Y0030251D01*
X0027254Y0030143D01*
X0028375Y0030135D01*
X0029493Y0030041D01*
X0029759Y0030126D01*
X0055674Y0029956D01*
X0056002Y0029853D01*
X0056619Y0029908D01*
X0056636Y0029901D01*
X0057933Y0029912D01*
X0059229Y0029888D01*
X0059321Y0029924D01*
X0059421Y0029925D01*
X0059634Y0030016D01*
X0060810Y0029948D01*
X0060968Y0030003D01*
X0082685Y0029751D01*
X0083131Y0028675D01*
X0085607Y0026200D01*
X0088841Y0024860D01*
X0092342Y0024860D01*
X0095576Y0026200D01*
X0095591Y0026215D01*
X0095607Y0026200D01*
X0098841Y0024860D01*
X0102342Y0024860D01*
X0105576Y0026200D01*
X0105591Y0026215D01*
X0105607Y0026200D01*
X0108841Y0024860D01*
X0112342Y0024860D01*
X0115576Y0026200D01*
X0117900Y0028523D01*
X0163762Y0028523D01*
X0164170Y0027538D01*
X0166645Y0025063D01*
X0169879Y0023723D01*
X0173380Y0023723D01*
X0176615Y0025063D01*
X0176630Y0025078D01*
X0176645Y0025063D01*
X0179879Y0023723D01*
X0183380Y0023723D01*
X0186615Y0025063D01*
X0186630Y0025078D01*
X0186645Y0025063D01*
X0189879Y0023723D01*
X0193380Y0023723D01*
X0196615Y0025063D01*
X0196630Y0025078D01*
X0196645Y0025063D01*
X0199879Y0023723D01*
X0203380Y0023723D01*
X0206615Y0025063D01*
X0209090Y0027538D01*
X0210430Y0030773D01*
X0210430Y0040274D01*
X0209090Y0043508D01*
X0206615Y0045983D01*
X0203380Y0047323D01*
X0199879Y0047323D01*
X0196645Y0045983D01*
X0196630Y0045968D01*
X0196615Y0045983D01*
X0193380Y0047323D01*
X0189879Y0047323D01*
X0186645Y0045983D01*
X0186630Y0045968D01*
X0186615Y0045983D01*
X0183380Y0047323D01*
X0179879Y0047323D01*
X0176645Y0045983D01*
X0176630Y0045968D01*
X0176615Y0045983D01*
X0173380Y0047323D01*
X0169879Y0047323D01*
X0166645Y0045983D01*
X0164170Y0043508D01*
X0163762Y0042523D01*
X0118930Y0042523D01*
X0118052Y0044645D01*
X0115576Y0047120D01*
X0112342Y0048460D01*
X0108841Y0048460D01*
X0105607Y0047120D01*
X0105591Y0047105D01*
X0105576Y0047120D01*
X0102342Y0048460D01*
X0098841Y0048460D01*
X0095607Y0047120D01*
X0095591Y0047105D01*
X0095576Y0047120D01*
X0092342Y0048460D01*
X0088841Y0048460D01*
X0085607Y0047120D01*
X0083131Y0044645D01*
X0082761Y0043751D01*
X0064906Y0043958D01*
X0064769Y0059724D01*
X0065920Y0059248D01*
X0069421Y0059248D01*
X0072655Y0060587D01*
X0072670Y0060603D01*
X0072686Y0060587D01*
X0075920Y0059248D01*
X0079421Y0059248D01*
X0082655Y0060587D01*
X0085131Y0063063D01*
X0086470Y0066297D01*
X0086470Y0072494D01*
X0087284Y0071681D01*
X0090518Y0070341D01*
X0094019Y0070341D01*
X0097254Y0071681D01*
X0097269Y0071696D01*
X0097284Y0071681D01*
X0100518Y0070341D01*
X0104019Y0070341D01*
X0107254Y0071681D01*
X0107269Y0071696D01*
X0107284Y0071681D01*
X0110518Y0070341D01*
X0114019Y0070341D01*
X0117254Y0071681D01*
X0119729Y0074156D01*
X0121069Y0077390D01*
X0121069Y0086891D01*
X0120083Y0089271D01*
X0124150Y0089271D01*
X0125670Y0090792D01*
X0127191Y0089271D01*
X0129002Y0089271D01*
X0139775Y0079754D01*
X0140807Y0077262D01*
X0143170Y0074899D01*
X0146257Y0073620D01*
X0149599Y0073620D01*
X0151798Y0074531D01*
X0156945Y0074531D01*
X0159665Y0075658D01*
X0161746Y0077740D01*
X0162224Y0078217D01*
X0163112Y0076072D01*
X0165588Y0073597D01*
X0168822Y0072257D01*
X0172323Y0072257D01*
X0175557Y0073597D01*
X0175572Y0073612D01*
X0175588Y0073597D01*
X0178822Y0072257D01*
X0182323Y0072257D01*
X0183443Y0072721D01*
X0183443Y0072623D01*
X0184570Y0069904D01*
X0186651Y0067822D01*
X0188301Y0066172D01*
X0188012Y0065962D01*
X0187478Y0065428D01*
X0187034Y0064817D01*
X0186691Y0064143D01*
X0186457Y0063425D01*
X0186339Y0062679D01*
X0186339Y0059501D01*
X0190939Y0059501D01*
X0190939Y0059101D01*
X0186339Y0059101D01*
X0186339Y0055923D01*
X0186457Y0055177D01*
X0186691Y0054458D01*
X0187034Y0053785D01*
X0187478Y0053174D01*
X0188012Y0052640D01*
X0188623Y0052196D01*
X0189296Y0051853D01*
X0190015Y0051619D01*
X0190761Y0051501D01*
X0190939Y0051501D01*
X0190939Y0059101D01*
X0191339Y0059101D01*
X0191339Y0059501D01*
X0195939Y0059501D01*
X0195939Y0062679D01*
X0195821Y0063425D01*
X0195587Y0064143D01*
X0195481Y0064352D01*
X0196797Y0064352D01*
X0196691Y0064143D01*
X0196457Y0063425D01*
X0196339Y0062679D01*
X0196339Y0059501D01*
X0200939Y0059501D01*
X0200939Y0059101D01*
X0196339Y0059101D01*
X0196339Y0055923D01*
X0196457Y0055177D01*
X0196691Y0054458D01*
X0197034Y0053785D01*
X0197478Y0053174D01*
X0198012Y0052640D01*
X0198623Y0052196D01*
X0199296Y0051853D01*
X0200015Y0051619D01*
X0200761Y0051501D01*
X0200939Y0051501D01*
X0200939Y0059101D01*
X0201339Y0059101D01*
X0201339Y0059501D01*
X0205939Y0059501D01*
X0205939Y0062679D01*
X0205821Y0063425D01*
X0205587Y0064143D01*
X0205481Y0064352D01*
X0212121Y0064352D01*
X0214841Y0065479D01*
X0216922Y0067561D01*
X0223365Y0074003D01*
X0224492Y0076723D01*
X0224492Y0088151D01*
X0225492Y0089151D01*
X0225492Y0096110D01*
X0220571Y0101030D01*
X0213612Y0101030D01*
X0208692Y0096110D01*
X0208692Y0090451D01*
X0208033Y0092042D01*
X0207536Y0092538D01*
X0207536Y0131151D01*
X0206470Y0133724D01*
X0204785Y0135409D01*
X0204785Y0140088D01*
X0204906Y0140210D01*
X0204938Y0140286D01*
X0210950Y0140286D01*
X0213670Y0141412D01*
X0215751Y0143494D01*
X0223969Y0151711D01*
X0225095Y0154431D01*
X0225095Y0171499D01*
X0226095Y0172499D01*
X0226095Y0179458D01*
X0221175Y0184378D01*
X0214216Y0184378D01*
X0209295Y0179458D01*
X0209295Y0172499D01*
X0210295Y0171499D01*
X0210295Y0158968D01*
X0206413Y0155086D01*
X0204747Y0155086D01*
X0202543Y0157289D01*
X0199456Y0158568D01*
X0196114Y0158568D01*
X0193027Y0157289D01*
X0192785Y0157047D01*
X0192543Y0157289D01*
X0189456Y0158568D01*
X0186114Y0158568D01*
X0183027Y0157289D01*
X0182785Y0157047D01*
X0182543Y0157289D01*
X0179456Y0158568D01*
X0176114Y0158568D01*
X0173027Y0157289D01*
X0172785Y0157047D01*
X0172543Y0157289D01*
X0169456Y0158568D01*
X0166114Y0158568D01*
X0163027Y0157289D01*
X0162785Y0157047D01*
X0162543Y0157289D01*
X0159456Y0158568D01*
X0156114Y0158568D01*
X0153027Y0157289D01*
X0152785Y0157047D01*
X0152543Y0157289D01*
X0149456Y0158568D01*
X0146114Y0158568D01*
X0143027Y0157289D01*
X0142785Y0157047D01*
X0142543Y0157289D01*
X0142356Y0157367D01*
X0142511Y0157525D01*
X0142743Y0158106D01*
X0143090Y0158627D01*
X0148384Y0166568D01*
X0149456Y0166568D01*
X0152543Y0167847D01*
X0152785Y0168088D01*
X0153027Y0167847D01*
X0156114Y0166568D01*
X0159456Y0166568D01*
X0162543Y0167847D01*
X0162785Y0168088D01*
X0163027Y0167847D01*
X0166114Y0166568D01*
X0169456Y0166568D01*
X0172543Y0167847D01*
X0172785Y0168088D01*
X0173027Y0167847D01*
X0176114Y0166568D01*
X0179456Y0166568D01*
X0182543Y0167847D01*
X0182785Y0168088D01*
X0183027Y0167847D01*
X0186114Y0166568D01*
X0189456Y0166568D01*
X0192543Y0167847D01*
X0192785Y0168088D01*
X0193027Y0167847D01*
X0196114Y0166568D01*
X0199456Y0166568D01*
X0202543Y0167847D01*
X0204906Y0170210D01*
X0206185Y0173297D01*
X0206185Y0181839D01*
X0204906Y0184926D01*
X0204722Y0185110D01*
X0204722Y0191115D01*
X0205182Y0191576D01*
X0205482Y0192300D01*
X0210021Y0192300D01*
X0212741Y0193426D01*
X0214823Y0195508D01*
X0224112Y0204797D01*
X0225238Y0207517D01*
X0225238Y0226410D01*
X0225432Y0226216D01*
X0225613Y0226141D01*
X0229898Y0222303D01*
X0230667Y0221518D01*
X0230870Y0221432D01*
X0231035Y0221284D01*
X0232072Y0220920D01*
X0233083Y0220490D01*
X0233304Y0220488D01*
X0233512Y0220415D01*
X0234609Y0220475D01*
X0252538Y0220300D01*
X0253685Y0220232D01*
X0253845Y0220287D01*
X0254015Y0220286D01*
X0255080Y0220715D01*
X0256166Y0221091D01*
X0256293Y0221203D01*
X0256450Y0221267D01*
X0257270Y0222071D01*
X0258994Y0223602D01*
X0261114Y0223602D01*
X0263682Y0224666D01*
X0275055Y0224666D01*
X0277627Y0225731D01*
X0279597Y0227701D01*
X0279742Y0227846D01*
X0279742Y0221823D01*
X0279501Y0221724D01*
X0277870Y0220092D01*
X0276987Y0217961D01*
X0276987Y0213476D01*
X0276869Y0212883D01*
X0276987Y0212290D01*
X0276987Y0207610D01*
X0277870Y0205478D01*
X0279501Y0203847D01*
X0279965Y0203655D01*
X0279876Y0200129D01*
X0276093Y0198712D01*
X0276065Y0198712D01*
X0274789Y0198759D01*
X0274754Y0198746D01*
X0265901Y0198974D01*
X0264458Y0200416D01*
X0261114Y0201802D01*
X0257493Y0201802D01*
X0254149Y0200416D01*
X0251589Y0197857D01*
X0250204Y0194512D01*
X0250204Y0190892D01*
X0251589Y0187547D01*
X0254149Y0184987D01*
X0255619Y0184378D01*
X0254216Y0184378D01*
X0249295Y0179458D01*
X0249295Y0172499D01*
X0254216Y0167579D01*
X0254907Y0167579D01*
X0257804Y0163918D01*
X0257804Y0161750D01*
X0260025Y0159530D01*
X0244423Y0159866D01*
X0244340Y0159900D01*
X0243114Y0159894D01*
X0241888Y0159921D01*
X0241804Y0159888D01*
X0241715Y0159888D01*
X0240584Y0159413D01*
X0239441Y0158969D01*
X0239376Y0158907D01*
X0239293Y0158872D01*
X0238430Y0158001D01*
X0237545Y0157152D01*
X0237509Y0157070D01*
X0237445Y0157007D01*
X0236981Y0155872D01*
X0236488Y0154749D01*
X0236486Y0154659D01*
X0236452Y0154576D01*
X0236458Y0153350D01*
X0236431Y0152124D01*
X0236464Y0152040D01*
X0236479Y0148863D01*
X0236059Y0148443D01*
X0234643Y0145025D01*
X0234643Y0143136D01*
X0233457Y0141950D01*
X0232452Y0139524D01*
X0232452Y0017506D01*
X0232400Y0016341D01*
X0232452Y0016198D01*
X0232452Y0016047D01*
X0232898Y0014969D01*
X0233296Y0013873D01*
X0233399Y0013761D01*
X0233457Y0013621D01*
X0234282Y0012796D01*
X0241149Y0005291D01*
X0241207Y0005151D01*
X0242032Y0004326D01*
X0242819Y0003465D01*
X0242956Y0003401D01*
X0243063Y0003294D01*
X0241498Y0004859D02*
X0001801Y0004859D01*
X0001802Y0006458D02*
X0240081Y0006458D01*
X0238618Y0008056D02*
X0083488Y0008056D01*
X0082949Y0007517D02*
X0084665Y0009233D01*
X0086800Y0011368D01*
X0087729Y0013610D01*
X0087729Y0016037D01*
X0087729Y0020307D01*
X0086800Y0022549D01*
X0085084Y0024265D01*
X0082842Y0025194D01*
X0080415Y0025194D01*
X0079494Y0024812D01*
X0078572Y0025194D01*
X0073970Y0025194D01*
X0073048Y0024812D01*
X0072126Y0025194D01*
X0067524Y0025194D01*
X0065282Y0024265D01*
X0064981Y0023964D01*
X0064680Y0024265D01*
X0062438Y0025194D01*
X0059076Y0025194D01*
X0057876Y0025194D01*
X0056499Y0024623D01*
X0056401Y0024582D01*
X0056257Y0024642D01*
X0054925Y0025194D01*
X0052498Y0025194D01*
X0051690Y0024859D01*
X0051178Y0024960D01*
X0050615Y0025194D01*
X0049999Y0025194D01*
X0049395Y0025313D01*
X0048797Y0025194D01*
X0048188Y0025194D01*
X0047619Y0024958D01*
X0047143Y0024863D01*
X0046344Y0025194D01*
X0043918Y0025194D01*
X0041676Y0024265D01*
X0040287Y0022876D01*
X0038898Y0024265D01*
X0036656Y0025194D01*
X0033294Y0025194D01*
X0032094Y0025194D01*
X0030717Y0024623D01*
X0029852Y0024265D01*
X0029541Y0023954D01*
X0029230Y0024265D01*
X0026988Y0025194D01*
X0023653Y0025194D01*
X0022426Y0025194D01*
X0022426Y0025194D01*
X0022426Y0025194D01*
X0021176Y0024676D01*
X0020184Y0024265D01*
X0020184Y0024265D01*
X0020184Y0024265D01*
X0019270Y0023351D01*
X0019116Y0023197D01*
X0018314Y0022395D01*
X0017400Y0021481D01*
X0016900Y0020274D01*
X0016472Y0019239D01*
X0016472Y0017960D01*
X0016472Y0016813D01*
X0016472Y0016813D01*
X0016472Y0014969D01*
X0016472Y0014969D01*
X0016472Y0013742D01*
X0016472Y0012542D01*
X0016708Y0011972D01*
X0017400Y0010300D01*
X0018343Y0009358D01*
X0019116Y0008584D01*
X0019116Y0008584D01*
X0019242Y0008459D01*
X0020184Y0007517D01*
X0020184Y0007517D01*
X0020184Y0007517D01*
X0021049Y0007159D01*
X0022426Y0006588D01*
X0023626Y0006588D01*
X0026988Y0006588D01*
X0027386Y0006753D01*
X0027784Y0006588D01*
X0037724Y0006588D01*
X0039966Y0007517D01*
X0040736Y0008288D01*
X0040738Y0008286D01*
X0041245Y0007948D01*
X0041676Y0007517D01*
X0042244Y0007281D01*
X0042757Y0006940D01*
X0043355Y0006821D01*
X0043918Y0006588D01*
X0044533Y0006588D01*
X0045137Y0006469D01*
X0045735Y0006588D01*
X0046344Y0006588D01*
X0046913Y0006824D01*
X0047389Y0006919D01*
X0048188Y0006588D01*
X0052790Y0006588D01*
X0053712Y0006970D01*
X0054633Y0006588D01*
X0057060Y0006588D01*
X0057468Y0006757D01*
X0057876Y0006588D01*
X0057876Y0006588D01*
X0057876Y0006588D01*
X0059103Y0006588D01*
X0062438Y0006588D01*
X0062846Y0006757D01*
X0063254Y0006588D01*
X0069951Y0006588D01*
X0070359Y0006757D01*
X0070767Y0006588D01*
X0070767Y0006588D01*
X0071994Y0006588D01*
X0075329Y0006588D01*
X0076805Y0007199D01*
X0077378Y0006962D01*
X0078280Y0006588D01*
X0080707Y0006588D01*
X0082039Y0007140D01*
X0082949Y0007517D01*
X0082949Y0007517D01*
X0085087Y0009655D02*
X0237156Y0009655D01*
X0235693Y0011253D02*
X0086685Y0011253D01*
X0087415Y0012852D02*
X0234226Y0012852D01*
X0233087Y0014450D02*
X0087729Y0014450D01*
X0087729Y0016049D02*
X0232452Y0016049D01*
X0232452Y0017647D02*
X0087729Y0017647D01*
X0087729Y0019246D02*
X0232452Y0019246D01*
X0232452Y0020844D02*
X0087506Y0020844D01*
X0086844Y0022443D02*
X0232452Y0022443D01*
X0232452Y0024041D02*
X0204148Y0024041D01*
X0207192Y0025640D02*
X0232452Y0025640D01*
X0232452Y0027238D02*
X0208790Y0027238D01*
X0209628Y0028837D02*
X0232452Y0028837D01*
X0232452Y0030435D02*
X0210290Y0030435D01*
X0210430Y0032034D02*
X0232452Y0032034D01*
X0232452Y0033632D02*
X0210430Y0033632D01*
X0210430Y0035231D02*
X0232452Y0035231D01*
X0232452Y0036829D02*
X0210430Y0036829D01*
X0210430Y0038428D02*
X0232452Y0038428D01*
X0232452Y0040026D02*
X0210430Y0040026D01*
X0209870Y0041625D02*
X0232452Y0041625D01*
X0232452Y0043223D02*
X0209208Y0043223D01*
X0207776Y0044822D02*
X0232452Y0044822D01*
X0232452Y0046420D02*
X0205560Y0046420D01*
X0197700Y0046420D02*
X0195560Y0046420D01*
X0192982Y0051853D02*
X0193655Y0052196D01*
X0194266Y0052640D01*
X0194800Y0053174D01*
X0195244Y0053785D01*
X0195587Y0054458D01*
X0195821Y0055177D01*
X0195939Y0055923D01*
X0195939Y0059101D01*
X0191339Y0059101D01*
X0191339Y0051501D01*
X0191517Y0051501D01*
X0192263Y0051619D01*
X0192982Y0051853D01*
X0194441Y0052814D02*
X0197837Y0052814D01*
X0196714Y0054413D02*
X0195564Y0054413D01*
X0195939Y0056011D02*
X0196339Y0056011D01*
X0196339Y0057610D02*
X0195939Y0057610D01*
X0195939Y0060807D02*
X0196339Y0060807D01*
X0196339Y0062406D02*
X0195939Y0062406D01*
X0195633Y0064004D02*
X0196645Y0064004D01*
X0200939Y0059209D02*
X0191339Y0059209D01*
X0190939Y0059209D02*
X0181339Y0059209D01*
X0181339Y0059101D02*
X0181339Y0059501D01*
X0180939Y0059501D01*
X0180939Y0067101D01*
X0180761Y0067101D01*
X0180015Y0066983D01*
X0179296Y0066749D01*
X0178623Y0066406D01*
X0178012Y0065962D01*
X0177478Y0065428D01*
X0177034Y0064817D01*
X0176691Y0064143D01*
X0176457Y0063425D01*
X0176339Y0062679D01*
X0176339Y0059501D01*
X0180939Y0059501D01*
X0180939Y0059101D01*
X0176339Y0059101D01*
X0176339Y0055923D01*
X0176457Y0055177D01*
X0176691Y0054458D01*
X0177034Y0053785D01*
X0177478Y0053174D01*
X0178012Y0052640D01*
X0178623Y0052196D01*
X0179296Y0051853D01*
X0180015Y0051619D01*
X0180761Y0051501D01*
X0180939Y0051501D01*
X0180939Y0059101D01*
X0181339Y0059101D01*
X0185939Y0059101D01*
X0185939Y0055923D01*
X0185821Y0055177D01*
X0185587Y0054458D01*
X0185244Y0053785D01*
X0184800Y0053174D01*
X0184266Y0052640D01*
X0183655Y0052196D01*
X0182982Y0051853D01*
X0182263Y0051619D01*
X0181517Y0051501D01*
X0181339Y0051501D01*
X0181339Y0059101D01*
X0181339Y0059501D02*
X0185939Y0059501D01*
X0185939Y0062679D01*
X0185821Y0063425D01*
X0185587Y0064143D01*
X0185244Y0064817D01*
X0184800Y0065428D01*
X0184266Y0065962D01*
X0183655Y0066406D01*
X0182982Y0066749D01*
X0182263Y0066983D01*
X0181517Y0067101D01*
X0181339Y0067101D01*
X0181339Y0059501D01*
X0180939Y0059209D02*
X0171339Y0059209D01*
X0171339Y0059101D02*
X0171339Y0059501D01*
X0170939Y0059501D01*
X0170939Y0067101D01*
X0170761Y0067101D01*
X0170015Y0066983D01*
X0169296Y0066749D01*
X0168623Y0066406D01*
X0168012Y0065962D01*
X0167478Y0065428D01*
X0167034Y0064817D01*
X0166691Y0064143D01*
X0166457Y0063425D01*
X0166339Y0062679D01*
X0166339Y0059501D01*
X0170939Y0059501D01*
X0170939Y0059101D01*
X0166339Y0059101D01*
X0166339Y0055923D01*
X0166457Y0055177D01*
X0166691Y0054458D01*
X0167034Y0053785D01*
X0167478Y0053174D01*
X0168012Y0052640D01*
X0168623Y0052196D01*
X0169296Y0051853D01*
X0170015Y0051619D01*
X0170761Y0051501D01*
X0170939Y0051501D01*
X0170939Y0059101D01*
X0171339Y0059101D01*
X0175939Y0059101D01*
X0175939Y0055923D01*
X0175821Y0055177D01*
X0175587Y0054458D01*
X0175244Y0053785D01*
X0174800Y0053174D01*
X0174266Y0052640D01*
X0173655Y0052196D01*
X0172982Y0051853D01*
X0172263Y0051619D01*
X0171517Y0051501D01*
X0171339Y0051501D01*
X0171339Y0059101D01*
X0171339Y0059501D02*
X0175939Y0059501D01*
X0175939Y0062679D01*
X0175821Y0063425D01*
X0175587Y0064143D01*
X0175244Y0064817D01*
X0174800Y0065428D01*
X0174266Y0065962D01*
X0173655Y0066406D01*
X0172982Y0066749D01*
X0172263Y0066983D01*
X0171517Y0067101D01*
X0171339Y0067101D01*
X0171339Y0059501D01*
X0170939Y0059209D02*
X0116294Y0059209D01*
X0116294Y0059921D02*
X0111694Y0059921D01*
X0111694Y0052321D01*
X0111872Y0052321D01*
X0112618Y0052439D01*
X0113337Y0052673D01*
X0114010Y0053016D01*
X0114621Y0053460D01*
X0115155Y0053994D01*
X0115599Y0054606D01*
X0115942Y0055279D01*
X0116176Y0055997D01*
X0116294Y0056744D01*
X0116294Y0059921D01*
X0116294Y0060321D02*
X0116294Y0063499D01*
X0116176Y0064245D01*
X0115942Y0064964D01*
X0115599Y0065637D01*
X0115155Y0066248D01*
X0114621Y0066783D01*
X0114010Y0067227D01*
X0113337Y0067570D01*
X0112618Y0067803D01*
X0111872Y0067921D01*
X0111694Y0067921D01*
X0111694Y0060321D01*
X0116294Y0060321D01*
X0116294Y0060807D02*
X0166339Y0060807D01*
X0166339Y0062406D02*
X0116294Y0062406D01*
X0116214Y0064004D02*
X0166645Y0064004D01*
X0167652Y0065603D02*
X0115617Y0065603D01*
X0114045Y0067201D02*
X0187272Y0067201D01*
X0187652Y0065603D02*
X0184625Y0065603D01*
X0185633Y0064004D02*
X0186645Y0064004D01*
X0186339Y0062406D02*
X0185939Y0062406D01*
X0185939Y0060807D02*
X0186339Y0060807D01*
X0186339Y0057610D02*
X0185939Y0057610D01*
X0185939Y0056011D02*
X0186339Y0056011D01*
X0186714Y0054413D02*
X0185564Y0054413D01*
X0184441Y0052814D02*
X0187837Y0052814D01*
X0190939Y0052814D02*
X0191339Y0052814D01*
X0191339Y0054413D02*
X0190939Y0054413D01*
X0190939Y0056011D02*
X0191339Y0056011D01*
X0191339Y0057610D02*
X0190939Y0057610D01*
X0181339Y0057610D02*
X0180939Y0057610D01*
X0180939Y0056011D02*
X0181339Y0056011D01*
X0181339Y0054413D02*
X0180939Y0054413D01*
X0180939Y0052814D02*
X0181339Y0052814D01*
X0177837Y0052814D02*
X0174441Y0052814D01*
X0175564Y0054413D02*
X0176714Y0054413D01*
X0176339Y0056011D02*
X0175939Y0056011D01*
X0175939Y0057610D02*
X0176339Y0057610D01*
X0176339Y0060807D02*
X0175939Y0060807D01*
X0175939Y0062406D02*
X0176339Y0062406D01*
X0176645Y0064004D02*
X0175633Y0064004D01*
X0174625Y0065603D02*
X0177652Y0065603D01*
X0180939Y0065603D02*
X0181339Y0065603D01*
X0181339Y0064004D02*
X0180939Y0064004D01*
X0180939Y0062406D02*
X0181339Y0062406D01*
X0181339Y0060807D02*
X0180939Y0060807D01*
X0185674Y0068800D02*
X0086470Y0068800D01*
X0086470Y0070398D02*
X0090380Y0070398D01*
X0091116Y0067921D02*
X0090370Y0067803D01*
X0089651Y0067570D01*
X0088978Y0067227D01*
X0088367Y0066783D01*
X0087833Y0066248D01*
X0087389Y0065637D01*
X0087046Y0064964D01*
X0086812Y0064245D01*
X0086694Y0063499D01*
X0086694Y0060321D01*
X0091294Y0060321D01*
X0091294Y0059921D01*
X0091694Y0059921D01*
X0091694Y0052321D01*
X0091872Y0052321D01*
X0092618Y0052439D01*
X0093337Y0052673D01*
X0094010Y0053016D01*
X0094621Y0053460D01*
X0095155Y0053994D01*
X0095599Y0054606D01*
X0095942Y0055279D01*
X0096176Y0055997D01*
X0096294Y0056744D01*
X0096294Y0059921D01*
X0091694Y0059921D01*
X0091694Y0060321D01*
X0096294Y0060321D01*
X0096294Y0063499D01*
X0096176Y0064245D01*
X0095942Y0064964D01*
X0095599Y0065637D01*
X0095155Y0066248D01*
X0094621Y0066783D01*
X0094010Y0067227D01*
X0093337Y0067570D01*
X0092618Y0067803D01*
X0091872Y0067921D01*
X0091694Y0067921D01*
X0091694Y0060321D01*
X0091294Y0060321D01*
X0091294Y0067921D01*
X0091116Y0067921D01*
X0091294Y0067201D02*
X0091694Y0067201D01*
X0091694Y0065603D02*
X0091294Y0065603D01*
X0091294Y0064004D02*
X0091694Y0064004D01*
X0091694Y0062406D02*
X0091294Y0062406D01*
X0091294Y0060807D02*
X0091694Y0060807D01*
X0091294Y0059921D02*
X0086694Y0059921D01*
X0086694Y0056744D01*
X0086812Y0055997D01*
X0087046Y0055279D01*
X0087389Y0054606D01*
X0087833Y0053994D01*
X0088367Y0053460D01*
X0088978Y0053016D01*
X0089651Y0052673D01*
X0090370Y0052439D01*
X0091116Y0052321D01*
X0091294Y0052321D01*
X0091294Y0059921D01*
X0091294Y0059209D02*
X0091694Y0059209D01*
X0091694Y0057610D02*
X0091294Y0057610D01*
X0091294Y0056011D02*
X0091694Y0056011D01*
X0091694Y0054413D02*
X0091294Y0054413D01*
X0091294Y0052814D02*
X0091694Y0052814D01*
X0093614Y0052814D02*
X0099374Y0052814D01*
X0099651Y0052673D02*
X0100370Y0052439D01*
X0101116Y0052321D01*
X0101294Y0052321D01*
X0101294Y0059921D01*
X0101694Y0059921D01*
X0101694Y0052321D01*
X0101872Y0052321D01*
X0102618Y0052439D01*
X0103337Y0052673D01*
X0104010Y0053016D01*
X0104621Y0053460D01*
X0105155Y0053994D01*
X0105599Y0054606D01*
X0105942Y0055279D01*
X0106176Y0055997D01*
X0106294Y0056744D01*
X0106294Y0059921D01*
X0101694Y0059921D01*
X0101694Y0060321D01*
X0106294Y0060321D01*
X0106294Y0063499D01*
X0106176Y0064245D01*
X0105942Y0064964D01*
X0105599Y0065637D01*
X0105155Y0066248D01*
X0104621Y0066783D01*
X0104010Y0067227D01*
X0103337Y0067570D01*
X0102618Y0067803D01*
X0101872Y0067921D01*
X0101694Y0067921D01*
X0101694Y0060321D01*
X0101294Y0060321D01*
X0101294Y0059921D01*
X0096694Y0059921D01*
X0096694Y0056744D01*
X0096812Y0055997D01*
X0097046Y0055279D01*
X0097389Y0054606D01*
X0097833Y0053994D01*
X0098367Y0053460D01*
X0098978Y0053016D01*
X0099651Y0052673D01*
X0101294Y0052814D02*
X0101694Y0052814D01*
X0101694Y0054413D02*
X0101294Y0054413D01*
X0101294Y0056011D02*
X0101694Y0056011D01*
X0101694Y0057610D02*
X0101294Y0057610D01*
X0101294Y0059209D02*
X0101694Y0059209D01*
X0101294Y0060321D02*
X0096694Y0060321D01*
X0096694Y0063499D01*
X0096812Y0064245D01*
X0097046Y0064964D01*
X0097389Y0065637D01*
X0097833Y0066248D01*
X0098367Y0066783D01*
X0098978Y0067227D01*
X0099651Y0067570D01*
X0100370Y0067803D01*
X0101116Y0067921D01*
X0101294Y0067921D01*
X0101294Y0060321D01*
X0101294Y0060807D02*
X0101694Y0060807D01*
X0101694Y0062406D02*
X0101294Y0062406D01*
X0101294Y0064004D02*
X0101694Y0064004D01*
X0101694Y0065603D02*
X0101294Y0065603D01*
X0101294Y0067201D02*
X0101694Y0067201D01*
X0104045Y0067201D02*
X0108943Y0067201D01*
X0108978Y0067227D02*
X0108367Y0066783D01*
X0107833Y0066248D01*
X0107389Y0065637D01*
X0107046Y0064964D01*
X0106812Y0064245D01*
X0106694Y0063499D01*
X0106694Y0060321D01*
X0111294Y0060321D01*
X0111294Y0059921D01*
X0111694Y0059921D01*
X0111694Y0060321D01*
X0111294Y0060321D01*
X0111294Y0067921D01*
X0111116Y0067921D01*
X0110370Y0067803D01*
X0109651Y0067570D01*
X0108978Y0067227D01*
X0107371Y0065603D02*
X0105617Y0065603D01*
X0106214Y0064004D02*
X0106774Y0064004D01*
X0106694Y0062406D02*
X0106294Y0062406D01*
X0106294Y0060807D02*
X0106694Y0060807D01*
X0106694Y0059921D02*
X0106694Y0056744D01*
X0106812Y0055997D01*
X0107046Y0055279D01*
X0107389Y0054606D01*
X0107833Y0053994D01*
X0108367Y0053460D01*
X0108978Y0053016D01*
X0109651Y0052673D01*
X0110370Y0052439D01*
X0111116Y0052321D01*
X0111294Y0052321D01*
X0111294Y0059921D01*
X0106694Y0059921D01*
X0106694Y0059209D02*
X0106294Y0059209D01*
X0106294Y0057610D02*
X0106694Y0057610D01*
X0106810Y0056011D02*
X0106178Y0056011D01*
X0105459Y0054413D02*
X0107529Y0054413D01*
X0109374Y0052814D02*
X0103614Y0052814D01*
X0103406Y0048019D02*
X0107776Y0048019D01*
X0113406Y0048019D02*
X0232452Y0048019D01*
X0232452Y0049617D02*
X0064857Y0049617D01*
X0064871Y0048019D02*
X0087776Y0048019D01*
X0084907Y0046420D02*
X0064885Y0046420D01*
X0064899Y0044822D02*
X0083308Y0044822D01*
X0089374Y0052814D02*
X0064829Y0052814D01*
X0064843Y0051216D02*
X0232452Y0051216D01*
X0232452Y0052814D02*
X0204441Y0052814D01*
X0204266Y0052640D02*
X0204800Y0053174D01*
X0205244Y0053785D01*
X0205587Y0054458D01*
X0205821Y0055177D01*
X0205939Y0055923D01*
X0205939Y0059101D01*
X0201339Y0059101D01*
X0201339Y0051501D01*
X0201517Y0051501D01*
X0202263Y0051619D01*
X0202982Y0051853D01*
X0203655Y0052196D01*
X0204266Y0052640D01*
X0205564Y0054413D02*
X0232452Y0054413D01*
X0232452Y0056011D02*
X0205939Y0056011D01*
X0205939Y0057610D02*
X0232452Y0057610D01*
X0232452Y0059209D02*
X0201339Y0059209D01*
X0201339Y0057610D02*
X0200939Y0057610D01*
X0200939Y0056011D02*
X0201339Y0056011D01*
X0201339Y0054413D02*
X0200939Y0054413D01*
X0200939Y0052814D02*
X0201339Y0052814D01*
X0205939Y0060807D02*
X0232452Y0060807D01*
X0232452Y0062406D02*
X0205939Y0062406D01*
X0205633Y0064004D02*
X0232452Y0064004D01*
X0232452Y0065603D02*
X0214964Y0065603D01*
X0216563Y0067201D02*
X0232452Y0067201D01*
X0232452Y0068800D02*
X0218161Y0068800D01*
X0219760Y0070398D02*
X0232452Y0070398D01*
X0232452Y0071997D02*
X0221358Y0071997D01*
X0222957Y0073595D02*
X0232452Y0073595D01*
X0232452Y0075194D02*
X0223858Y0075194D01*
X0224492Y0076792D02*
X0232452Y0076792D01*
X0232452Y0078391D02*
X0224492Y0078391D01*
X0224492Y0079989D02*
X0232452Y0079989D01*
X0232452Y0081588D02*
X0224492Y0081588D01*
X0224492Y0083186D02*
X0232452Y0083186D01*
X0232452Y0084785D02*
X0224492Y0084785D01*
X0224492Y0086383D02*
X0232452Y0086383D01*
X0232452Y0087982D02*
X0224492Y0087982D01*
X0225492Y0089580D02*
X0232452Y0089580D01*
X0232452Y0091179D02*
X0225492Y0091179D01*
X0225492Y0092777D02*
X0232452Y0092777D01*
X0232452Y0094376D02*
X0225492Y0094376D01*
X0225492Y0095974D02*
X0232452Y0095974D01*
X0232452Y0097573D02*
X0224029Y0097573D01*
X0222430Y0099171D02*
X0232452Y0099171D01*
X0232452Y0100770D02*
X0220832Y0100770D01*
X0213352Y0100770D02*
X0207536Y0100770D01*
X0207536Y0102368D02*
X0232452Y0102368D01*
X0232452Y0103967D02*
X0207536Y0103967D01*
X0207536Y0105565D02*
X0232452Y0105565D01*
X0232452Y0107164D02*
X0207536Y0107164D01*
X0207536Y0108762D02*
X0232452Y0108762D01*
X0232452Y0110361D02*
X0207536Y0110361D01*
X0207536Y0111959D02*
X0232452Y0111959D01*
X0232452Y0113558D02*
X0207536Y0113558D01*
X0207536Y0115156D02*
X0232452Y0115156D01*
X0232452Y0116755D02*
X0207536Y0116755D01*
X0207536Y0118353D02*
X0232452Y0118353D01*
X0232452Y0119952D02*
X0207536Y0119952D01*
X0207536Y0121550D02*
X0232452Y0121550D01*
X0232452Y0123149D02*
X0207536Y0123149D01*
X0207536Y0124747D02*
X0232452Y0124747D01*
X0232452Y0126346D02*
X0207536Y0126346D01*
X0207536Y0127945D02*
X0232452Y0127945D01*
X0232452Y0129543D02*
X0207536Y0129543D01*
X0207536Y0131142D02*
X0232452Y0131142D01*
X0232452Y0132740D02*
X0206878Y0132740D01*
X0205856Y0134339D02*
X0232452Y0134339D01*
X0232452Y0135937D02*
X0204785Y0135937D01*
X0204785Y0137536D02*
X0232452Y0137536D01*
X0232452Y0139134D02*
X0204785Y0139134D01*
X0212029Y0140733D02*
X0232953Y0140733D01*
X0233838Y0142331D02*
X0214589Y0142331D01*
X0216187Y0143930D02*
X0234643Y0143930D01*
X0234851Y0145528D02*
X0217786Y0145528D01*
X0219384Y0147127D02*
X0235514Y0147127D01*
X0236341Y0148725D02*
X0220983Y0148725D01*
X0222581Y0150324D02*
X0236472Y0150324D01*
X0236464Y0151922D02*
X0224056Y0151922D01*
X0224718Y0153521D02*
X0236457Y0153521D01*
X0236651Y0155119D02*
X0225095Y0155119D01*
X0225095Y0156718D02*
X0237327Y0156718D01*
X0238743Y0158316D02*
X0225095Y0158316D01*
X0225095Y0159915D02*
X0241872Y0159915D01*
X0242173Y0159915D02*
X0259640Y0159915D01*
X0258042Y0161513D02*
X0225095Y0161513D01*
X0225095Y0163112D02*
X0257804Y0163112D01*
X0257178Y0164710D02*
X0225095Y0164710D01*
X0225095Y0166309D02*
X0255912Y0166309D01*
X0253887Y0167907D02*
X0225095Y0167907D01*
X0225095Y0169506D02*
X0252289Y0169506D01*
X0250690Y0171104D02*
X0225095Y0171104D01*
X0226095Y0172703D02*
X0249295Y0172703D01*
X0249295Y0174301D02*
X0226095Y0174301D01*
X0226095Y0175900D02*
X0249295Y0175900D01*
X0249295Y0177498D02*
X0226095Y0177498D01*
X0226095Y0179097D02*
X0249295Y0179097D01*
X0250533Y0180695D02*
X0224858Y0180695D01*
X0223259Y0182294D02*
X0252131Y0182294D01*
X0253730Y0183892D02*
X0221661Y0183892D01*
X0213730Y0183892D02*
X0205335Y0183892D01*
X0204722Y0185491D02*
X0253645Y0185491D01*
X0252047Y0187089D02*
X0204722Y0187089D01*
X0204722Y0188688D02*
X0251116Y0188688D01*
X0250454Y0190286D02*
X0204722Y0190286D01*
X0205310Y0191885D02*
X0250204Y0191885D01*
X0250204Y0193483D02*
X0212798Y0193483D01*
X0214397Y0195082D02*
X0250440Y0195082D01*
X0251102Y0196680D02*
X0215995Y0196680D01*
X0217594Y0198279D02*
X0252011Y0198279D01*
X0253610Y0199878D02*
X0219192Y0199878D01*
X0220791Y0201476D02*
X0256707Y0201476D01*
X0261900Y0201476D02*
X0279910Y0201476D01*
X0279950Y0203075D02*
X0222389Y0203075D01*
X0223988Y0204673D02*
X0278675Y0204673D01*
X0277541Y0206272D02*
X0224722Y0206272D01*
X0225238Y0207870D02*
X0276987Y0207870D01*
X0276987Y0209469D02*
X0225238Y0209469D01*
X0225238Y0211067D02*
X0276987Y0211067D01*
X0276912Y0212666D02*
X0225238Y0212666D01*
X0225238Y0214264D02*
X0276987Y0214264D01*
X0276987Y0215863D02*
X0225238Y0215863D01*
X0225238Y0217461D02*
X0276987Y0217461D01*
X0277442Y0219060D02*
X0225238Y0219060D01*
X0225238Y0220658D02*
X0232687Y0220658D01*
X0229943Y0222257D02*
X0225238Y0222257D01*
X0225238Y0223855D02*
X0228164Y0223855D01*
X0226380Y0225454D02*
X0225238Y0225454D01*
X0229184Y0231802D02*
X0234460Y0227077D01*
X0252766Y0226898D01*
X0259304Y0232702D01*
X0251086Y0236643D02*
X0235796Y0236643D01*
X0235792Y0235045D02*
X0250424Y0235045D01*
X0250204Y0234512D02*
X0251589Y0237857D01*
X0254149Y0240416D01*
X0257176Y0241670D01*
X0254359Y0241670D01*
X0249438Y0246591D01*
X0249438Y0253550D01*
X0254359Y0258470D01*
X0261318Y0258470D01*
X0262718Y0257070D01*
X0264319Y0257070D01*
X0266333Y0259085D01*
X0273292Y0259085D01*
X0273891Y0258486D01*
X0275490Y0260085D01*
X0277313Y0260085D01*
X0277313Y0255685D01*
X0277313Y0255685D01*
X0277313Y0260085D01*
X0279135Y0260085D01*
X0279742Y0259479D01*
X0279742Y0279554D01*
X0277090Y0280652D01*
X0274530Y0283212D01*
X0273145Y0286557D01*
X0273145Y0290177D01*
X0274530Y0293522D01*
X0277090Y0296082D01*
X0280435Y0297467D01*
X0284055Y0297467D01*
X0287400Y0296082D01*
X0287714Y0295767D01*
X0287876Y0295767D01*
X0288312Y0295586D01*
X0288155Y0303865D01*
X0286545Y0302254D01*
X0284688Y0300398D01*
X0282263Y0299393D01*
X0278959Y0299393D01*
X0277106Y0297540D01*
X0273490Y0297540D01*
X0272076Y0296126D01*
X0271161Y0295205D01*
X0271150Y0295200D01*
X0271142Y0295192D01*
X0269937Y0294693D01*
X0268738Y0294192D01*
X0268727Y0294192D01*
X0268716Y0294187D01*
X0267414Y0294187D01*
X0249355Y0294126D01*
X0249960Y0293522D01*
X0251345Y0290177D01*
X0251345Y0286557D01*
X0249960Y0283212D01*
X0247400Y0280652D01*
X0244055Y0279267D01*
X0240435Y0279267D01*
X0237090Y0280652D01*
X0235909Y0281833D01*
X0235792Y0234744D01*
X0237011Y0233652D01*
X0250204Y0233523D01*
X0250204Y0234512D01*
X0251974Y0238242D02*
X0235800Y0238242D01*
X0235804Y0239840D02*
X0253573Y0239840D01*
X0252992Y0243037D02*
X0235812Y0243037D01*
X0235808Y0241439D02*
X0256617Y0241439D01*
X0251393Y0244636D02*
X0235816Y0244636D01*
X0235820Y0246234D02*
X0249795Y0246234D01*
X0249438Y0247833D02*
X0235824Y0247833D01*
X0235828Y0249431D02*
X0249438Y0249431D01*
X0249438Y0251030D02*
X0235832Y0251030D01*
X0235836Y0252628D02*
X0249438Y0252628D01*
X0250116Y0254227D02*
X0235840Y0254227D01*
X0235844Y0255825D02*
X0251714Y0255825D01*
X0253313Y0257424D02*
X0235848Y0257424D01*
X0235852Y0259022D02*
X0266271Y0259022D01*
X0264672Y0257424D02*
X0262364Y0257424D01*
X0273355Y0259022D02*
X0274428Y0259022D01*
X0277313Y0259022D02*
X0277313Y0259022D01*
X0277313Y0257424D02*
X0277313Y0257424D01*
X0277313Y0255825D02*
X0277313Y0255825D01*
X0279742Y0260621D02*
X0235856Y0260621D01*
X0235860Y0262219D02*
X0279742Y0262219D01*
X0279742Y0263818D02*
X0235864Y0263818D01*
X0235868Y0265416D02*
X0279742Y0265416D01*
X0279742Y0267015D02*
X0235872Y0267015D01*
X0235876Y0268613D02*
X0279742Y0268613D01*
X0279742Y0270212D02*
X0235880Y0270212D01*
X0235884Y0271811D02*
X0279742Y0271811D01*
X0279742Y0273409D02*
X0235888Y0273409D01*
X0235892Y0275008D02*
X0279742Y0275008D01*
X0279742Y0276606D02*
X0235896Y0276606D01*
X0235900Y0278205D02*
X0279742Y0278205D01*
X0279141Y0279803D02*
X0245349Y0279803D01*
X0248149Y0281402D02*
X0276341Y0281402D01*
X0274743Y0283000D02*
X0249748Y0283000D01*
X0250534Y0284599D02*
X0273956Y0284599D01*
X0273294Y0286197D02*
X0251196Y0286197D01*
X0251345Y0287796D02*
X0273145Y0287796D01*
X0273145Y0289394D02*
X0251345Y0289394D01*
X0251007Y0290993D02*
X0273483Y0290993D01*
X0274145Y0292591D02*
X0250345Y0292591D01*
X0242245Y0288367D02*
X0242517Y0300703D01*
X0267403Y0300787D01*
X0272556Y0305940D01*
X0273627Y0305940D01*
X0273680Y0305993D01*
X0280950Y0305993D01*
X0284189Y0309232D01*
X0284189Y0324560D01*
X0291464Y0331835D01*
X0360519Y0331835D01*
X0364976Y0327378D01*
X0366787Y0317341D01*
X0357362Y0305399D02*
X0378518Y0305399D01*
X0383420Y0310301D01*
X0383420Y0330730D01*
X0374390Y0339759D01*
X0243218Y0340312D01*
X0229433Y0331060D01*
X0229184Y0231802D01*
X0254939Y0220658D02*
X0278435Y0220658D01*
X0279742Y0222257D02*
X0257479Y0222257D01*
X0261725Y0223855D02*
X0279742Y0223855D01*
X0279742Y0225454D02*
X0276957Y0225454D01*
X0278948Y0227052D02*
X0279742Y0227052D01*
X0283468Y0212883D02*
X0283470Y0213000D01*
X0283476Y0213116D01*
X0283486Y0213233D01*
X0283500Y0213349D01*
X0283517Y0213464D01*
X0283539Y0213579D01*
X0283565Y0213693D01*
X0283594Y0213806D01*
X0283627Y0213918D01*
X0283665Y0214029D01*
X0283705Y0214138D01*
X0283750Y0214247D01*
X0283798Y0214353D01*
X0283850Y0214458D01*
X0283905Y0214561D01*
X0283964Y0214662D01*
X0284026Y0214761D01*
X0284091Y0214857D01*
X0284160Y0214952D01*
X0284232Y0215044D01*
X0284306Y0215134D01*
X0284384Y0215221D01*
X0284465Y0215305D01*
X0284549Y0215387D01*
X0284635Y0215465D01*
X0284724Y0215541D01*
X0284816Y0215614D01*
X0284910Y0215683D01*
X0285006Y0215749D01*
X0285104Y0215812D01*
X0285205Y0215872D01*
X0285307Y0215928D01*
X0285412Y0215981D01*
X0285518Y0216030D01*
X0285625Y0216075D01*
X0285735Y0216117D01*
X0285845Y0216155D01*
X0285957Y0216189D01*
X0286069Y0216219D01*
X0286183Y0216246D01*
X0286298Y0216268D01*
X0286413Y0216287D01*
X0286529Y0216302D01*
X0286645Y0216313D01*
X0286762Y0216320D01*
X0286879Y0216323D01*
X0286996Y0216322D01*
X0287112Y0216317D01*
X0287229Y0216308D01*
X0287345Y0216295D01*
X0287461Y0216278D01*
X0287576Y0216258D01*
X0287690Y0216233D01*
X0287803Y0216205D01*
X0287915Y0216172D01*
X0288026Y0216136D01*
X0288136Y0216096D01*
X0288245Y0216053D01*
X0288352Y0216005D01*
X0288457Y0215955D01*
X0288560Y0215900D01*
X0288662Y0215842D01*
X0288761Y0215781D01*
X0288858Y0215717D01*
X0288954Y0215649D01*
X0289046Y0215578D01*
X0289137Y0215504D01*
X0289224Y0215426D01*
X0289309Y0215346D01*
X0289392Y0215263D01*
X0289471Y0215178D01*
X0289547Y0215089D01*
X0289621Y0214998D01*
X0289691Y0214905D01*
X0289758Y0214809D01*
X0289822Y0214711D01*
X0289882Y0214611D01*
X0289939Y0214509D01*
X0289993Y0214406D01*
X0290043Y0214300D01*
X0290089Y0214193D01*
X0290132Y0214084D01*
X0290170Y0213974D01*
X0290206Y0213862D01*
X0290237Y0213750D01*
X0290265Y0213636D01*
X0290288Y0213522D01*
X0290308Y0213407D01*
X0290324Y0213291D01*
X0290336Y0213175D01*
X0290344Y0213058D01*
X0290348Y0212941D01*
X0290348Y0212825D01*
X0290344Y0212708D01*
X0290336Y0212591D01*
X0290324Y0212475D01*
X0290308Y0212359D01*
X0290288Y0212244D01*
X0290265Y0212130D01*
X0290237Y0212016D01*
X0290206Y0211904D01*
X0290170Y0211792D01*
X0290132Y0211682D01*
X0290089Y0211573D01*
X0290043Y0211466D01*
X0289993Y0211360D01*
X0289939Y0211257D01*
X0289882Y0211155D01*
X0289822Y0211055D01*
X0289758Y0210957D01*
X0289691Y0210861D01*
X0289621Y0210768D01*
X0289547Y0210677D01*
X0289471Y0210588D01*
X0289392Y0210503D01*
X0289309Y0210420D01*
X0289224Y0210340D01*
X0289137Y0210262D01*
X0289046Y0210188D01*
X0288954Y0210117D01*
X0288858Y0210049D01*
X0288761Y0209985D01*
X0288662Y0209924D01*
X0288560Y0209866D01*
X0288457Y0209811D01*
X0288352Y0209761D01*
X0288245Y0209713D01*
X0288136Y0209670D01*
X0288026Y0209630D01*
X0287915Y0209594D01*
X0287803Y0209561D01*
X0287690Y0209533D01*
X0287576Y0209508D01*
X0287461Y0209488D01*
X0287345Y0209471D01*
X0287229Y0209458D01*
X0287112Y0209449D01*
X0286996Y0209444D01*
X0286879Y0209443D01*
X0286762Y0209446D01*
X0286645Y0209453D01*
X0286529Y0209464D01*
X0286413Y0209479D01*
X0286298Y0209498D01*
X0286183Y0209520D01*
X0286069Y0209547D01*
X0285957Y0209577D01*
X0285845Y0209611D01*
X0285735Y0209649D01*
X0285625Y0209691D01*
X0285518Y0209736D01*
X0285412Y0209785D01*
X0285307Y0209838D01*
X0285205Y0209894D01*
X0285104Y0209954D01*
X0285006Y0210017D01*
X0284910Y0210083D01*
X0284816Y0210152D01*
X0284724Y0210225D01*
X0284635Y0210301D01*
X0284549Y0210379D01*
X0284465Y0210461D01*
X0284384Y0210545D01*
X0284306Y0210632D01*
X0284232Y0210722D01*
X0284160Y0210814D01*
X0284091Y0210909D01*
X0284026Y0211005D01*
X0283964Y0211104D01*
X0283905Y0211205D01*
X0283850Y0211308D01*
X0283798Y0211413D01*
X0283750Y0211519D01*
X0283705Y0211628D01*
X0283665Y0211737D01*
X0283627Y0211848D01*
X0283594Y0211960D01*
X0283565Y0212073D01*
X0283539Y0212187D01*
X0283517Y0212302D01*
X0283500Y0212417D01*
X0283486Y0212533D01*
X0283476Y0212650D01*
X0283470Y0212766D01*
X0283468Y0212883D01*
X0286795Y0212740D02*
X0286363Y0195511D01*
X0275741Y0191532D01*
X0275599Y0191670D01*
X0283942Y0183327D01*
X0284024Y0183327D01*
X0284024Y0143184D01*
X0277424Y0149761D02*
X0276183Y0148519D01*
X0274767Y0145101D01*
X0274767Y0141402D01*
X0276183Y0137983D01*
X0278799Y0135367D01*
X0282217Y0133951D01*
X0285917Y0133951D01*
X0289100Y0135270D01*
X0289100Y0121175D01*
X0290227Y0118456D01*
X0292309Y0116374D01*
X0293635Y0115047D01*
X0292484Y0113896D01*
X0292452Y0113882D01*
X0291443Y0112855D01*
X0290427Y0111839D01*
X0290414Y0111806D01*
X0290389Y0111782D01*
X0289850Y0110447D01*
X0289300Y0109119D01*
X0289300Y0109084D01*
X0289287Y0109052D01*
X0289300Y0107613D01*
X0289300Y0106175D01*
X0289314Y0106143D01*
X0289528Y0082514D01*
X0288910Y0083162D01*
X0288784Y0083217D01*
X0288686Y0083312D01*
X0288546Y0083367D01*
X0279850Y0091062D01*
X0279612Y0102153D01*
X0281300Y0103841D01*
X0281300Y0110800D01*
X0276951Y0115149D01*
X0277300Y0115498D01*
X0277300Y0117320D01*
X0272900Y0117320D01*
X0272900Y0117320D01*
X0277300Y0117320D01*
X0277300Y0119143D01*
X0274723Y0121720D01*
X0272900Y0121720D01*
X0271078Y0121720D01*
X0269479Y0120121D01*
X0268879Y0120720D01*
X0261921Y0120720D01*
X0257037Y0115836D01*
X0254296Y0114398D01*
X0253330Y0114008D01*
X0253072Y0113755D01*
X0252752Y0113588D01*
X0252086Y0112788D01*
X0251342Y0112058D01*
X0251201Y0111726D01*
X0250970Y0111448D01*
X0250660Y0110454D01*
X0250252Y0109496D01*
X0250249Y0109134D01*
X0250141Y0108790D01*
X0250236Y0107752D01*
X0250138Y0097556D01*
X0248692Y0096110D01*
X0248692Y0089151D01*
X0251589Y0086253D01*
X0250711Y0086617D01*
X0247011Y0086617D01*
X0245652Y0086054D01*
X0245652Y0133875D01*
X0245793Y0133875D01*
X0249211Y0135291D01*
X0251827Y0137907D01*
X0253243Y0141325D01*
X0253243Y0145025D01*
X0252638Y0146486D01*
X0264898Y0146222D01*
X0264968Y0146193D01*
X0266208Y0146194D01*
X0267447Y0146167D01*
X0267518Y0146195D01*
X0267593Y0146195D01*
X0268739Y0146670D01*
X0269894Y0147119D01*
X0269949Y0147172D01*
X0270019Y0147201D01*
X0270895Y0148078D01*
X0271790Y0148936D01*
X0271821Y0149005D01*
X0274642Y0151830D01*
X0277184Y0151830D01*
X0277424Y0152070D01*
X0277424Y0149761D01*
X0277424Y0150324D02*
X0273138Y0150324D01*
X0271571Y0148725D02*
X0276389Y0148725D01*
X0275606Y0147127D02*
X0269902Y0147127D01*
X0274944Y0145528D02*
X0253034Y0145528D01*
X0253243Y0143930D02*
X0274767Y0143930D01*
X0274767Y0142331D02*
X0253243Y0142331D01*
X0252998Y0140733D02*
X0275044Y0140733D01*
X0275706Y0139134D02*
X0252335Y0139134D01*
X0251456Y0137536D02*
X0276631Y0137536D01*
X0278229Y0135937D02*
X0249857Y0135937D01*
X0246912Y0134339D02*
X0281283Y0134339D01*
X0286852Y0134339D02*
X0289100Y0134339D01*
X0289100Y0132740D02*
X0245652Y0132740D01*
X0245652Y0131142D02*
X0289100Y0131142D01*
X0289100Y0129543D02*
X0245652Y0129543D01*
X0245652Y0127945D02*
X0289100Y0127945D01*
X0289100Y0126346D02*
X0245652Y0126346D01*
X0245652Y0124747D02*
X0289100Y0124747D01*
X0289100Y0123149D02*
X0245652Y0123149D01*
X0245652Y0121550D02*
X0270908Y0121550D01*
X0272900Y0121550D02*
X0272900Y0121550D01*
X0272900Y0121720D02*
X0272900Y0117320D01*
X0272900Y0117320D01*
X0272900Y0121720D01*
X0272900Y0119952D02*
X0272900Y0119952D01*
X0272900Y0118353D02*
X0272900Y0118353D01*
X0274892Y0121550D02*
X0289100Y0121550D01*
X0289607Y0119952D02*
X0276491Y0119952D01*
X0277300Y0118353D02*
X0290329Y0118353D01*
X0291928Y0116755D02*
X0277300Y0116755D01*
X0276959Y0115156D02*
X0293526Y0115156D01*
X0292134Y0113558D02*
X0278542Y0113558D01*
X0280140Y0111959D02*
X0290548Y0111959D01*
X0289815Y0110361D02*
X0281300Y0110361D01*
X0281300Y0108762D02*
X0289290Y0108762D01*
X0289300Y0107164D02*
X0281300Y0107164D01*
X0281300Y0105565D02*
X0289319Y0105565D01*
X0289333Y0103967D02*
X0281300Y0103967D01*
X0279827Y0102368D02*
X0289348Y0102368D01*
X0289362Y0100770D02*
X0279642Y0100770D01*
X0279676Y0099171D02*
X0289377Y0099171D01*
X0289391Y0097573D02*
X0279711Y0097573D01*
X0279745Y0095974D02*
X0289406Y0095974D01*
X0289420Y0094376D02*
X0279779Y0094376D01*
X0279814Y0092777D02*
X0289435Y0092777D01*
X0289449Y0091179D02*
X0279848Y0091179D01*
X0281525Y0089580D02*
X0289464Y0089580D01*
X0289478Y0087982D02*
X0283331Y0087982D01*
X0285138Y0086383D02*
X0289492Y0086383D01*
X0289507Y0084785D02*
X0286944Y0084785D01*
X0288854Y0083186D02*
X0289521Y0083186D01*
X0285042Y0077655D02*
X0272421Y0077442D01*
X0248847Y0077282D01*
X0246446Y0086383D02*
X0245652Y0086383D01*
X0245652Y0087982D02*
X0249861Y0087982D01*
X0248692Y0089580D02*
X0245652Y0089580D01*
X0245652Y0091179D02*
X0248692Y0091179D01*
X0248692Y0092777D02*
X0245652Y0092777D01*
X0245652Y0094376D02*
X0248692Y0094376D01*
X0248692Y0095974D02*
X0245652Y0095974D01*
X0245652Y0097573D02*
X0250139Y0097573D01*
X0250154Y0099171D02*
X0245652Y0099171D01*
X0245652Y0100770D02*
X0250169Y0100770D01*
X0250184Y0102368D02*
X0245652Y0102368D01*
X0245652Y0103967D02*
X0250199Y0103967D01*
X0250215Y0105565D02*
X0245652Y0105565D01*
X0245652Y0107164D02*
X0250230Y0107164D01*
X0250144Y0108762D02*
X0245652Y0108762D01*
X0245652Y0110361D02*
X0250620Y0110361D01*
X0251300Y0111959D02*
X0245652Y0111959D01*
X0245652Y0113558D02*
X0252728Y0113558D01*
X0255741Y0115156D02*
X0245652Y0115156D01*
X0245652Y0116755D02*
X0257955Y0116755D01*
X0259554Y0118353D02*
X0245652Y0118353D01*
X0245652Y0119952D02*
X0261152Y0119952D01*
X0265060Y0125528D02*
X0272892Y0125528D01*
X0272900Y0126233D02*
X0272204Y0126929D01*
X0264371Y0126929D01*
X0262922Y0128378D01*
X0265274Y0127879D02*
X0273106Y0127879D01*
X0273201Y0129090D02*
X0265369Y0129090D01*
X0265369Y0130063D02*
X0273201Y0130063D01*
X0273177Y0131013D02*
X0265345Y0131013D01*
X0265511Y0131321D02*
X0273343Y0131321D01*
X0277276Y0151922D02*
X0277424Y0151922D01*
X0273704Y0160230D02*
X0266277Y0152794D01*
X0243058Y0153294D01*
X0243101Y0144107D01*
X0244024Y0143184D01*
X0239052Y0138211D01*
X0239052Y0017359D01*
X0246802Y0008889D01*
X0341428Y0008889D01*
X0353590Y0018228D01*
X0353450Y0095612D01*
X0354857Y0097020D01*
X0354857Y0097084D01*
X0360775Y0103001D01*
X0380076Y0103001D01*
X0382145Y0105071D01*
X0382145Y0105150D01*
X0386049Y0109054D01*
X0386049Y0118067D01*
X0380076Y0124040D01*
X0354695Y0124040D01*
X0348856Y0129879D01*
X0348856Y0176975D01*
X0353809Y0181928D01*
X0366768Y0181812D01*
X0363458Y0169257D02*
X0359705Y0165504D01*
X0359934Y0148527D01*
X0366692Y0142810D01*
X0366768Y0134812D01*
X0367005Y0114874D02*
X0351695Y0114497D01*
X0344997Y0108717D01*
X0344434Y0029373D01*
X0334523Y0018511D01*
X0289431Y0018131D01*
X0283834Y0025610D01*
X0285042Y0077655D01*
X0273314Y0088033D01*
X0272900Y0107320D01*
X0251459Y0086383D02*
X0251276Y0086383D01*
X0211753Y0099171D02*
X0207536Y0099171D01*
X0207536Y0097573D02*
X0210155Y0097573D01*
X0208692Y0095974D02*
X0207536Y0095974D01*
X0207536Y0094376D02*
X0208692Y0094376D01*
X0208692Y0092777D02*
X0207536Y0092777D01*
X0208390Y0091179D02*
X0208692Y0091179D01*
X0183703Y0071997D02*
X0117570Y0071997D01*
X0119168Y0073595D02*
X0165591Y0073595D01*
X0163991Y0075194D02*
X0158543Y0075194D01*
X0160799Y0076792D02*
X0162814Y0076792D01*
X0175554Y0073595D02*
X0175591Y0073595D01*
X0184365Y0070398D02*
X0114157Y0070398D01*
X0110380Y0070398D02*
X0104157Y0070398D01*
X0100380Y0070398D02*
X0094157Y0070398D01*
X0094045Y0067201D02*
X0098943Y0067201D01*
X0097371Y0065603D02*
X0095617Y0065603D01*
X0096214Y0064004D02*
X0096774Y0064004D01*
X0096694Y0062406D02*
X0096294Y0062406D01*
X0096294Y0060807D02*
X0096694Y0060807D01*
X0096694Y0059209D02*
X0096294Y0059209D01*
X0096294Y0057610D02*
X0096694Y0057610D01*
X0096810Y0056011D02*
X0096178Y0056011D01*
X0095459Y0054413D02*
X0097529Y0054413D01*
X0097776Y0048019D02*
X0093406Y0048019D01*
X0087529Y0054413D02*
X0064815Y0054413D01*
X0064802Y0056011D02*
X0086810Y0056011D01*
X0086694Y0057610D02*
X0064788Y0057610D01*
X0064774Y0059209D02*
X0086694Y0059209D01*
X0086694Y0060807D02*
X0082875Y0060807D01*
X0084473Y0062406D02*
X0086694Y0062406D01*
X0086774Y0064004D02*
X0085521Y0064004D01*
X0086183Y0065603D02*
X0087371Y0065603D01*
X0086470Y0067201D02*
X0088943Y0067201D01*
X0086968Y0071997D02*
X0086470Y0071997D01*
X0092269Y0082141D02*
X0092784Y0082656D01*
X0092784Y0125435D01*
X0097785Y0130436D01*
X0097785Y0147568D01*
X0107785Y0147568D02*
X0107785Y0126191D01*
X0102002Y0120408D01*
X0102002Y0082408D01*
X0102269Y0082141D01*
X0112060Y0082349D02*
X0112269Y0082141D01*
X0112060Y0082349D02*
X0112060Y0119741D01*
X0117785Y0125465D01*
X0117785Y0147568D01*
X0127785Y0147568D02*
X0136870Y0161196D01*
X0136556Y0161192D01*
X0044035Y0160068D01*
X0035635Y0159915D02*
X0023792Y0159915D01*
X0023790Y0161513D02*
X0035635Y0161513D01*
X0035635Y0163112D02*
X0023789Y0163112D01*
X0023788Y0164710D02*
X0036798Y0164710D01*
X0035635Y0163547D02*
X0035635Y0156588D01*
X0040556Y0151668D01*
X0047515Y0151668D01*
X0049379Y0153532D01*
X0060141Y0153663D01*
X0059385Y0151839D01*
X0059385Y0143297D01*
X0060016Y0141775D01*
X0055797Y0137557D01*
X0048425Y0137557D01*
X0047515Y0138468D01*
X0040556Y0138468D01*
X0035635Y0133547D01*
X0035635Y0126588D01*
X0036635Y0125588D01*
X0036635Y0093415D01*
X0035740Y0092519D01*
X0033658Y0090438D01*
X0032532Y0087718D01*
X0032532Y0081354D01*
X0030210Y0079032D01*
X0028870Y0075798D01*
X0028870Y0066297D01*
X0030210Y0063063D01*
X0032686Y0060587D01*
X0035920Y0059248D01*
X0039421Y0059248D01*
X0042655Y0060587D01*
X0045131Y0063063D01*
X0045436Y0063799D01*
X0045828Y0063599D01*
X0046546Y0063366D01*
X0047293Y0063248D01*
X0047470Y0063248D01*
X0047470Y0070848D01*
X0047870Y0070848D01*
X0047870Y0063248D01*
X0048048Y0063248D01*
X0048794Y0063366D01*
X0049513Y0063599D01*
X0049905Y0063799D01*
X0050210Y0063063D01*
X0050744Y0062529D01*
X0050906Y0043987D01*
X0031960Y0044112D01*
X0023873Y0053686D01*
X0023727Y0244254D01*
X0059467Y0244254D01*
X0059875Y0243270D01*
X0062351Y0240794D01*
X0065585Y0239454D01*
X0069086Y0239454D01*
X0072320Y0240794D01*
X0072335Y0240809D01*
X0072351Y0240794D01*
X0075585Y0239454D01*
X0079086Y0239454D01*
X0082320Y0240794D01*
X0082335Y0240809D01*
X0082351Y0240794D01*
X0085585Y0239454D01*
X0089086Y0239454D01*
X0092320Y0240794D01*
X0092335Y0240809D01*
X0092351Y0240794D01*
X0095585Y0239454D01*
X0099086Y0239454D01*
X0102320Y0240794D01*
X0102335Y0240809D01*
X0102351Y0240794D01*
X0105585Y0239454D01*
X0109086Y0239454D01*
X0112320Y0240794D01*
X0112335Y0240809D01*
X0112351Y0240794D01*
X0115585Y0239454D01*
X0119086Y0239454D01*
X0122320Y0240794D01*
X0124796Y0243270D01*
X0125038Y0243854D01*
X0130704Y0243854D01*
X0130704Y0200482D01*
X0131830Y0197762D01*
X0133912Y0195680D01*
X0133915Y0195679D01*
X0139985Y0189609D01*
X0140793Y0188801D01*
X0140793Y0188014D01*
X0139456Y0188568D01*
X0136114Y0188568D01*
X0133027Y0187289D01*
X0130664Y0184926D01*
X0130215Y0183841D01*
X0130091Y0183931D01*
X0129474Y0184245D01*
X0128816Y0184459D01*
X0128131Y0184568D01*
X0127785Y0184568D01*
X0127439Y0184568D01*
X0126755Y0184459D01*
X0126096Y0184245D01*
X0125479Y0183931D01*
X0125356Y0183841D01*
X0125170Y0184290D01*
X0125170Y0190993D01*
X0125230Y0191053D01*
X0126570Y0194288D01*
X0126570Y0203789D01*
X0125230Y0207023D01*
X0122754Y0209498D01*
X0119520Y0210838D01*
X0116019Y0210838D01*
X0112785Y0209498D01*
X0112770Y0209483D01*
X0112754Y0209498D01*
X0109520Y0210838D01*
X0106019Y0210838D01*
X0102785Y0209498D01*
X0102770Y0209483D01*
X0102754Y0209498D01*
X0099520Y0210838D01*
X0096019Y0210838D01*
X0092785Y0209498D01*
X0092770Y0209483D01*
X0092754Y0209498D01*
X0089520Y0210838D01*
X0086019Y0210838D01*
X0082785Y0209498D01*
X0082770Y0209483D01*
X0082754Y0209498D01*
X0079520Y0210838D01*
X0076019Y0210838D01*
X0072785Y0209498D01*
X0072770Y0209483D01*
X0072754Y0209498D01*
X0069520Y0210838D01*
X0066019Y0210838D01*
X0062785Y0209498D01*
X0060309Y0207023D01*
X0058970Y0203789D01*
X0058970Y0194288D01*
X0060309Y0191053D01*
X0060370Y0190993D01*
X0060370Y0184215D01*
X0059385Y0181839D01*
X0059385Y0173297D01*
X0060664Y0170210D01*
X0063027Y0167847D01*
X0065250Y0166926D01*
X0049251Y0166732D01*
X0047515Y0168468D01*
X0040556Y0168468D01*
X0035635Y0163547D01*
X0038397Y0166309D02*
X0023787Y0166309D01*
X0023785Y0167907D02*
X0039995Y0167907D01*
X0048075Y0167907D02*
X0062966Y0167907D01*
X0061368Y0169506D02*
X0023784Y0169506D01*
X0023783Y0171104D02*
X0060293Y0171104D01*
X0059631Y0172703D02*
X0023782Y0172703D01*
X0023781Y0174301D02*
X0059385Y0174301D01*
X0059385Y0175900D02*
X0023779Y0175900D01*
X0023778Y0177498D02*
X0059385Y0177498D01*
X0059385Y0179097D02*
X0023777Y0179097D01*
X0023776Y0180695D02*
X0059385Y0180695D01*
X0059574Y0182294D02*
X0023774Y0182294D01*
X0023773Y0183892D02*
X0060236Y0183892D01*
X0060370Y0185491D02*
X0023772Y0185491D01*
X0023771Y0187089D02*
X0060370Y0187089D01*
X0060370Y0188688D02*
X0023770Y0188688D01*
X0023768Y0190286D02*
X0060370Y0190286D01*
X0059965Y0191885D02*
X0023767Y0191885D01*
X0023766Y0193483D02*
X0059303Y0193483D01*
X0058970Y0195082D02*
X0023765Y0195082D01*
X0023763Y0196680D02*
X0058970Y0196680D01*
X0058970Y0198279D02*
X0023762Y0198279D01*
X0023761Y0199878D02*
X0058970Y0199878D01*
X0058970Y0201476D02*
X0023760Y0201476D01*
X0023759Y0203075D02*
X0058970Y0203075D01*
X0059336Y0204673D02*
X0023757Y0204673D01*
X0023756Y0206272D02*
X0059998Y0206272D01*
X0061156Y0207870D02*
X0023755Y0207870D01*
X0023754Y0209469D02*
X0062755Y0209469D01*
X0065400Y0217196D02*
X0066119Y0216962D01*
X0066865Y0216844D01*
X0067043Y0216844D01*
X0067043Y0224444D01*
X0067443Y0224444D01*
X0067443Y0224844D01*
X0072043Y0224844D01*
X0072043Y0228022D01*
X0071925Y0228768D01*
X0071691Y0229486D01*
X0071348Y0230160D01*
X0070904Y0230771D01*
X0070370Y0231305D01*
X0069759Y0231749D01*
X0069085Y0232092D01*
X0068367Y0232326D01*
X0067621Y0232444D01*
X0067443Y0232444D01*
X0067443Y0224844D01*
X0067043Y0224844D01*
X0067043Y0232444D01*
X0066865Y0232444D01*
X0066119Y0232326D01*
X0065400Y0232092D01*
X0064727Y0231749D01*
X0064116Y0231305D01*
X0063582Y0230771D01*
X0063138Y0230160D01*
X0062795Y0229486D01*
X0062561Y0228768D01*
X0062443Y0228022D01*
X0062443Y0224844D01*
X0067043Y0224844D01*
X0067043Y0224444D01*
X0062443Y0224444D01*
X0062443Y0221266D01*
X0062561Y0220520D01*
X0062795Y0219801D01*
X0063138Y0219128D01*
X0063582Y0218517D01*
X0064116Y0217983D01*
X0064727Y0217539D01*
X0065400Y0217196D01*
X0064879Y0217461D02*
X0023747Y0217461D01*
X0023749Y0215863D02*
X0130704Y0215863D01*
X0130704Y0217461D02*
X0119607Y0217461D01*
X0119759Y0217539D02*
X0120370Y0217983D01*
X0120904Y0218517D01*
X0121348Y0219128D01*
X0121691Y0219801D01*
X0121925Y0220520D01*
X0122043Y0221266D01*
X0122043Y0224444D01*
X0117443Y0224444D01*
X0117443Y0224844D01*
X0122043Y0224844D01*
X0122043Y0228022D01*
X0121925Y0228768D01*
X0121691Y0229486D01*
X0121348Y0230160D01*
X0120904Y0230771D01*
X0120370Y0231305D01*
X0119759Y0231749D01*
X0119085Y0232092D01*
X0118367Y0232326D01*
X0117621Y0232444D01*
X0117443Y0232444D01*
X0117443Y0224844D01*
X0117043Y0224844D01*
X0117043Y0232444D01*
X0116865Y0232444D01*
X0116119Y0232326D01*
X0115400Y0232092D01*
X0114727Y0231749D01*
X0114116Y0231305D01*
X0113582Y0230771D01*
X0113138Y0230160D01*
X0112795Y0229486D01*
X0112561Y0228768D01*
X0112443Y0228022D01*
X0112443Y0224844D01*
X0117043Y0224844D01*
X0117043Y0224444D01*
X0117443Y0224444D01*
X0117443Y0216844D01*
X0117621Y0216844D01*
X0118367Y0216962D01*
X0119085Y0217196D01*
X0119759Y0217539D01*
X0121298Y0219060D02*
X0130704Y0219060D01*
X0130704Y0220658D02*
X0121947Y0220658D01*
X0122043Y0222257D02*
X0130704Y0222257D01*
X0130704Y0223855D02*
X0122043Y0223855D01*
X0122043Y0225454D02*
X0130704Y0225454D01*
X0130704Y0227052D02*
X0122043Y0227052D01*
X0121943Y0228651D02*
X0130704Y0228651D01*
X0130704Y0230249D02*
X0121283Y0230249D01*
X0119565Y0231848D02*
X0130704Y0231848D01*
X0130704Y0233446D02*
X0023735Y0233446D01*
X0023736Y0231848D02*
X0064920Y0231848D01*
X0067043Y0231848D02*
X0067443Y0231848D01*
X0067443Y0230249D02*
X0067043Y0230249D01*
X0067043Y0228651D02*
X0067443Y0228651D01*
X0067443Y0227052D02*
X0067043Y0227052D01*
X0067043Y0225454D02*
X0067443Y0225454D01*
X0067443Y0224444D02*
X0072043Y0224444D01*
X0072043Y0221266D01*
X0071925Y0220520D01*
X0071691Y0219801D01*
X0071348Y0219128D01*
X0070904Y0218517D01*
X0070370Y0217983D01*
X0069759Y0217539D01*
X0069085Y0217196D01*
X0068367Y0216962D01*
X0067621Y0216844D01*
X0067443Y0216844D01*
X0067443Y0224444D01*
X0067443Y0223855D02*
X0067043Y0223855D01*
X0067043Y0222257D02*
X0067443Y0222257D01*
X0067443Y0220658D02*
X0067043Y0220658D01*
X0067043Y0219060D02*
X0067443Y0219060D01*
X0067443Y0217461D02*
X0067043Y0217461D01*
X0069607Y0217461D02*
X0074879Y0217461D01*
X0074727Y0217539D02*
X0075400Y0217196D01*
X0076119Y0216962D01*
X0076865Y0216844D01*
X0077043Y0216844D01*
X0077043Y0224444D01*
X0077443Y0224444D01*
X0077443Y0224844D01*
X0082043Y0224844D01*
X0082043Y0228022D01*
X0081925Y0228768D01*
X0081691Y0229486D01*
X0081348Y0230160D01*
X0080904Y0230771D01*
X0080370Y0231305D01*
X0079759Y0231749D01*
X0079085Y0232092D01*
X0078367Y0232326D01*
X0077621Y0232444D01*
X0077443Y0232444D01*
X0077443Y0224844D01*
X0077043Y0224844D01*
X0077043Y0232444D01*
X0076865Y0232444D01*
X0076119Y0232326D01*
X0075400Y0232092D01*
X0074727Y0231749D01*
X0074116Y0231305D01*
X0073582Y0230771D01*
X0073138Y0230160D01*
X0072795Y0229486D01*
X0072561Y0228768D01*
X0072443Y0228022D01*
X0072443Y0224844D01*
X0077043Y0224844D01*
X0077043Y0224444D01*
X0072443Y0224444D01*
X0072443Y0221266D01*
X0072561Y0220520D01*
X0072795Y0219801D01*
X0073138Y0219128D01*
X0073582Y0218517D01*
X0074116Y0217983D01*
X0074727Y0217539D01*
X0073187Y0219060D02*
X0071298Y0219060D01*
X0071947Y0220658D02*
X0072539Y0220658D01*
X0072443Y0222257D02*
X0072043Y0222257D01*
X0072043Y0223855D02*
X0072443Y0223855D01*
X0072443Y0225454D02*
X0072043Y0225454D01*
X0072043Y0227052D02*
X0072443Y0227052D01*
X0072542Y0228651D02*
X0071943Y0228651D01*
X0071283Y0230249D02*
X0073203Y0230249D01*
X0074920Y0231848D02*
X0069565Y0231848D01*
X0063203Y0230249D02*
X0023738Y0230249D01*
X0023739Y0228651D02*
X0062542Y0228651D01*
X0062443Y0227052D02*
X0023740Y0227052D01*
X0023741Y0225454D02*
X0062443Y0225454D01*
X0062443Y0223855D02*
X0023743Y0223855D01*
X0023744Y0222257D02*
X0062443Y0222257D01*
X0062539Y0220658D02*
X0023745Y0220658D01*
X0023746Y0219060D02*
X0063187Y0219060D01*
X0077043Y0219060D02*
X0077443Y0219060D01*
X0077443Y0220658D02*
X0077043Y0220658D01*
X0077043Y0222257D02*
X0077443Y0222257D01*
X0077443Y0223855D02*
X0077043Y0223855D01*
X0077443Y0224444D02*
X0077443Y0216844D01*
X0077621Y0216844D01*
X0078367Y0216962D01*
X0079085Y0217196D01*
X0079759Y0217539D01*
X0080370Y0217983D01*
X0080904Y0218517D01*
X0081348Y0219128D01*
X0081691Y0219801D01*
X0081925Y0220520D01*
X0082043Y0221266D01*
X0082043Y0224444D01*
X0077443Y0224444D01*
X0077443Y0225454D02*
X0077043Y0225454D01*
X0077043Y0227052D02*
X0077443Y0227052D01*
X0077443Y0228651D02*
X0077043Y0228651D01*
X0077043Y0230249D02*
X0077443Y0230249D01*
X0077443Y0231848D02*
X0077043Y0231848D01*
X0079565Y0231848D02*
X0084920Y0231848D01*
X0084727Y0231749D02*
X0084116Y0231305D01*
X0083582Y0230771D01*
X0083138Y0230160D01*
X0082795Y0229486D01*
X0082561Y0228768D01*
X0082443Y0228022D01*
X0082443Y0224844D01*
X0087043Y0224844D01*
X0087043Y0232444D01*
X0086865Y0232444D01*
X0086119Y0232326D01*
X0085400Y0232092D01*
X0084727Y0231749D01*
X0083203Y0230249D02*
X0081283Y0230249D01*
X0081943Y0228651D02*
X0082542Y0228651D01*
X0082443Y0227052D02*
X0082043Y0227052D01*
X0082043Y0225454D02*
X0082443Y0225454D01*
X0082443Y0224444D02*
X0082443Y0221266D01*
X0082561Y0220520D01*
X0082795Y0219801D01*
X0083138Y0219128D01*
X0083582Y0218517D01*
X0084116Y0217983D01*
X0084727Y0217539D01*
X0085400Y0217196D01*
X0086119Y0216962D01*
X0086865Y0216844D01*
X0087043Y0216844D01*
X0087043Y0224444D01*
X0087443Y0224444D01*
X0087443Y0224844D01*
X0092043Y0224844D01*
X0092043Y0228022D01*
X0091925Y0228768D01*
X0091691Y0229486D01*
X0091348Y0230160D01*
X0090904Y0230771D01*
X0090370Y0231305D01*
X0089759Y0231749D01*
X0089085Y0232092D01*
X0088367Y0232326D01*
X0087621Y0232444D01*
X0087443Y0232444D01*
X0087443Y0224844D01*
X0087043Y0224844D01*
X0087043Y0224444D01*
X0082443Y0224444D01*
X0082443Y0223855D02*
X0082043Y0223855D01*
X0082043Y0222257D02*
X0082443Y0222257D01*
X0082539Y0220658D02*
X0081947Y0220658D01*
X0081298Y0219060D02*
X0083187Y0219060D01*
X0084879Y0217461D02*
X0079607Y0217461D01*
X0077443Y0217461D02*
X0077043Y0217461D01*
X0087043Y0217461D02*
X0087443Y0217461D01*
X0087443Y0216844D02*
X0087621Y0216844D01*
X0088367Y0216962D01*
X0089085Y0217196D01*
X0089759Y0217539D01*
X0090370Y0217983D01*
X0090904Y0218517D01*
X0091348Y0219128D01*
X0091691Y0219801D01*
X0091925Y0220520D01*
X0092043Y0221266D01*
X0092043Y0224444D01*
X0087443Y0224444D01*
X0087443Y0216844D01*
X0087443Y0219060D02*
X0087043Y0219060D01*
X0087043Y0220658D02*
X0087443Y0220658D01*
X0087443Y0222257D02*
X0087043Y0222257D01*
X0087043Y0223855D02*
X0087443Y0223855D01*
X0087443Y0225454D02*
X0087043Y0225454D01*
X0087043Y0227052D02*
X0087443Y0227052D01*
X0087443Y0228651D02*
X0087043Y0228651D01*
X0087043Y0230249D02*
X0087443Y0230249D01*
X0087443Y0231848D02*
X0087043Y0231848D01*
X0089565Y0231848D02*
X0094920Y0231848D01*
X0094727Y0231749D02*
X0094116Y0231305D01*
X0093582Y0230771D01*
X0093138Y0230160D01*
X0092795Y0229486D01*
X0092561Y0228768D01*
X0092443Y0228022D01*
X0092443Y0224844D01*
X0097043Y0224844D01*
X0097043Y0232444D01*
X0096865Y0232444D01*
X0096119Y0232326D01*
X0095400Y0232092D01*
X0094727Y0231749D01*
X0093203Y0230249D02*
X0091283Y0230249D01*
X0091943Y0228651D02*
X0092542Y0228651D01*
X0092443Y0227052D02*
X0092043Y0227052D01*
X0092043Y0225454D02*
X0092443Y0225454D01*
X0092443Y0224444D02*
X0092443Y0221266D01*
X0092561Y0220520D01*
X0092795Y0219801D01*
X0093138Y0219128D01*
X0093582Y0218517D01*
X0094116Y0217983D01*
X0094727Y0217539D01*
X0095400Y0217196D01*
X0096119Y0216962D01*
X0096865Y0216844D01*
X0097043Y0216844D01*
X0097043Y0224444D01*
X0097443Y0224444D01*
X0097443Y0224844D01*
X0102043Y0224844D01*
X0102043Y0228022D01*
X0101925Y0228768D01*
X0101691Y0229486D01*
X0101348Y0230160D01*
X0100904Y0230771D01*
X0100370Y0231305D01*
X0099759Y0231749D01*
X0099085Y0232092D01*
X0098367Y0232326D01*
X0097621Y0232444D01*
X0097443Y0232444D01*
X0097443Y0224844D01*
X0097043Y0224844D01*
X0097043Y0224444D01*
X0092443Y0224444D01*
X0092443Y0223855D02*
X0092043Y0223855D01*
X0092043Y0222257D02*
X0092443Y0222257D01*
X0092539Y0220658D02*
X0091947Y0220658D01*
X0091298Y0219060D02*
X0093187Y0219060D01*
X0094879Y0217461D02*
X0089607Y0217461D01*
X0097043Y0217461D02*
X0097443Y0217461D01*
X0097443Y0216844D02*
X0097621Y0216844D01*
X0098367Y0216962D01*
X0099085Y0217196D01*
X0099759Y0217539D01*
X0100370Y0217983D01*
X0100904Y0218517D01*
X0101348Y0219128D01*
X0101691Y0219801D01*
X0101925Y0220520D01*
X0102043Y0221266D01*
X0102043Y0224444D01*
X0097443Y0224444D01*
X0097443Y0216844D01*
X0097443Y0219060D02*
X0097043Y0219060D01*
X0097043Y0220658D02*
X0097443Y0220658D01*
X0097443Y0222257D02*
X0097043Y0222257D01*
X0097043Y0223855D02*
X0097443Y0223855D01*
X0097443Y0225454D02*
X0097043Y0225454D01*
X0097043Y0227052D02*
X0097443Y0227052D01*
X0097443Y0228651D02*
X0097043Y0228651D01*
X0097043Y0230249D02*
X0097443Y0230249D01*
X0097443Y0231848D02*
X0097043Y0231848D01*
X0099565Y0231848D02*
X0104920Y0231848D01*
X0104727Y0231749D02*
X0104116Y0231305D01*
X0103582Y0230771D01*
X0103138Y0230160D01*
X0102795Y0229486D01*
X0102561Y0228768D01*
X0102443Y0228022D01*
X0102443Y0224844D01*
X0107043Y0224844D01*
X0107043Y0232444D01*
X0106865Y0232444D01*
X0106119Y0232326D01*
X0105400Y0232092D01*
X0104727Y0231749D01*
X0103203Y0230249D02*
X0101283Y0230249D01*
X0101943Y0228651D02*
X0102542Y0228651D01*
X0102443Y0227052D02*
X0102043Y0227052D01*
X0102043Y0225454D02*
X0102443Y0225454D01*
X0102443Y0224444D02*
X0102443Y0221266D01*
X0102561Y0220520D01*
X0102795Y0219801D01*
X0103138Y0219128D01*
X0103582Y0218517D01*
X0104116Y0217983D01*
X0104727Y0217539D01*
X0105400Y0217196D01*
X0106119Y0216962D01*
X0106865Y0216844D01*
X0107043Y0216844D01*
X0107043Y0224444D01*
X0107443Y0224444D01*
X0107443Y0224844D01*
X0112043Y0224844D01*
X0112043Y0228022D01*
X0111925Y0228768D01*
X0111691Y0229486D01*
X0111348Y0230160D01*
X0110904Y0230771D01*
X0110370Y0231305D01*
X0109759Y0231749D01*
X0109085Y0232092D01*
X0108367Y0232326D01*
X0107621Y0232444D01*
X0107443Y0232444D01*
X0107443Y0224844D01*
X0107043Y0224844D01*
X0107043Y0224444D01*
X0102443Y0224444D01*
X0102443Y0223855D02*
X0102043Y0223855D01*
X0102043Y0222257D02*
X0102443Y0222257D01*
X0102539Y0220658D02*
X0101947Y0220658D01*
X0101298Y0219060D02*
X0103187Y0219060D01*
X0104879Y0217461D02*
X0099607Y0217461D01*
X0107043Y0217461D02*
X0107443Y0217461D01*
X0107443Y0216844D02*
X0107621Y0216844D01*
X0108367Y0216962D01*
X0109085Y0217196D01*
X0109759Y0217539D01*
X0110370Y0217983D01*
X0110904Y0218517D01*
X0111348Y0219128D01*
X0111691Y0219801D01*
X0111925Y0220520D01*
X0112043Y0221266D01*
X0112043Y0224444D01*
X0107443Y0224444D01*
X0107443Y0216844D01*
X0107443Y0219060D02*
X0107043Y0219060D01*
X0107043Y0220658D02*
X0107443Y0220658D01*
X0107443Y0222257D02*
X0107043Y0222257D01*
X0107043Y0223855D02*
X0107443Y0223855D01*
X0107443Y0225454D02*
X0107043Y0225454D01*
X0107043Y0227052D02*
X0107443Y0227052D01*
X0107443Y0228651D02*
X0107043Y0228651D01*
X0107043Y0230249D02*
X0107443Y0230249D01*
X0107443Y0231848D02*
X0107043Y0231848D01*
X0109565Y0231848D02*
X0114920Y0231848D01*
X0117043Y0231848D02*
X0117443Y0231848D01*
X0117443Y0230249D02*
X0117043Y0230249D01*
X0117043Y0228651D02*
X0117443Y0228651D01*
X0117443Y0227052D02*
X0117043Y0227052D01*
X0117043Y0225454D02*
X0117443Y0225454D01*
X0117243Y0224644D02*
X0118717Y0220978D01*
X0117443Y0220658D02*
X0117043Y0220658D01*
X0117043Y0219060D02*
X0117443Y0219060D01*
X0117443Y0217461D02*
X0117043Y0217461D01*
X0117043Y0216844D02*
X0117043Y0224444D01*
X0112443Y0224444D01*
X0112443Y0221266D01*
X0112561Y0220520D01*
X0112795Y0219801D01*
X0113138Y0219128D01*
X0113582Y0218517D01*
X0114116Y0217983D01*
X0114727Y0217539D01*
X0115400Y0217196D01*
X0116119Y0216962D01*
X0116865Y0216844D01*
X0117043Y0216844D01*
X0114879Y0217461D02*
X0109607Y0217461D01*
X0111298Y0219060D02*
X0113187Y0219060D01*
X0112539Y0220658D02*
X0111947Y0220658D01*
X0112043Y0222257D02*
X0112443Y0222257D01*
X0112443Y0223855D02*
X0112043Y0223855D01*
X0112043Y0225454D02*
X0112443Y0225454D01*
X0112443Y0227052D02*
X0112043Y0227052D01*
X0111943Y0228651D02*
X0112542Y0228651D01*
X0113203Y0230249D02*
X0111283Y0230249D01*
X0117043Y0223855D02*
X0117443Y0223855D01*
X0117443Y0222257D02*
X0117043Y0222257D01*
X0126968Y0212631D02*
X0126936Y0212435D01*
X0126968Y0212631D02*
X0127785Y0177568D01*
X0127785Y0184568D01*
X0127785Y0177568D01*
X0127785Y0177568D01*
X0127785Y0177568D01*
X0127785Y0170568D01*
X0127439Y0170568D01*
X0126755Y0170676D01*
X0126096Y0170890D01*
X0125479Y0171205D01*
X0125356Y0171294D01*
X0124906Y0170210D01*
X0122543Y0167847D01*
X0121985Y0167615D01*
X0133255Y0167752D01*
X0133027Y0167847D01*
X0130664Y0170210D01*
X0130215Y0171294D01*
X0130091Y0171205D01*
X0129474Y0170890D01*
X0128816Y0170676D01*
X0128131Y0170568D01*
X0127785Y0170568D01*
X0127785Y0177568D01*
X0127785Y0177498D02*
X0127785Y0177498D01*
X0127785Y0175900D02*
X0127785Y0175900D01*
X0127785Y0174301D02*
X0127785Y0174301D01*
X0127785Y0172703D02*
X0127785Y0172703D01*
X0127785Y0171104D02*
X0127785Y0171104D01*
X0125676Y0171104D02*
X0125277Y0171104D01*
X0124203Y0169506D02*
X0131368Y0169506D01*
X0130293Y0171104D02*
X0129894Y0171104D01*
X0132966Y0167907D02*
X0122604Y0167907D01*
X0127785Y0179097D02*
X0127785Y0179097D01*
X0127785Y0180695D02*
X0127785Y0180695D01*
X0127785Y0182294D02*
X0127785Y0182294D01*
X0127785Y0183892D02*
X0127785Y0183892D01*
X0125426Y0183892D02*
X0125335Y0183892D01*
X0125170Y0185491D02*
X0131229Y0185491D01*
X0130236Y0183892D02*
X0130144Y0183892D01*
X0132827Y0187089D02*
X0125170Y0187089D01*
X0125170Y0188688D02*
X0140793Y0188688D01*
X0139307Y0190286D02*
X0125170Y0190286D01*
X0125574Y0191885D02*
X0137709Y0191885D01*
X0136110Y0193483D02*
X0126236Y0193483D01*
X0126570Y0195082D02*
X0134512Y0195082D01*
X0132912Y0196680D02*
X0126570Y0196680D01*
X0126570Y0198279D02*
X0131616Y0198279D01*
X0130954Y0199878D02*
X0126570Y0199878D01*
X0126570Y0201476D02*
X0130704Y0201476D01*
X0130704Y0203075D02*
X0126570Y0203075D01*
X0126203Y0204673D02*
X0130704Y0204673D01*
X0130704Y0206272D02*
X0125541Y0206272D01*
X0124383Y0207870D02*
X0130704Y0207870D01*
X0130704Y0209469D02*
X0122784Y0209469D01*
X0130704Y0211067D02*
X0023752Y0211067D01*
X0023751Y0212666D02*
X0130704Y0212666D01*
X0130704Y0214264D02*
X0023750Y0214264D01*
X0009750Y0214264D02*
X0001882Y0214264D01*
X0001881Y0212666D02*
X0009751Y0212666D01*
X0009752Y0211067D02*
X0001880Y0211067D01*
X0001880Y0209469D02*
X0009754Y0209469D01*
X0009755Y0207870D02*
X0001879Y0207870D01*
X0001879Y0206272D02*
X0009756Y0206272D01*
X0009757Y0204673D02*
X0001878Y0204673D01*
X0001877Y0203075D02*
X0009759Y0203075D01*
X0009760Y0201476D02*
X0001877Y0201476D01*
X0001876Y0199878D02*
X0009761Y0199878D01*
X0009762Y0198279D02*
X0001876Y0198279D01*
X0001875Y0196680D02*
X0009763Y0196680D01*
X0009765Y0195082D02*
X0001874Y0195082D01*
X0001874Y0193483D02*
X0009766Y0193483D01*
X0009767Y0191885D02*
X0001873Y0191885D01*
X0001872Y0190286D02*
X0009768Y0190286D01*
X0009770Y0188688D02*
X0001872Y0188688D01*
X0001871Y0187089D02*
X0009771Y0187089D01*
X0009772Y0185491D02*
X0001871Y0185491D01*
X0001870Y0183892D02*
X0009773Y0183892D01*
X0009774Y0182294D02*
X0001869Y0182294D01*
X0001869Y0180695D02*
X0009776Y0180695D01*
X0009777Y0179097D02*
X0001868Y0179097D01*
X0001868Y0177498D02*
X0009778Y0177498D01*
X0009779Y0175900D02*
X0001867Y0175900D01*
X0001866Y0174301D02*
X0009781Y0174301D01*
X0009782Y0172703D02*
X0001866Y0172703D01*
X0001865Y0171104D02*
X0009783Y0171104D01*
X0009784Y0169506D02*
X0001864Y0169506D01*
X0001864Y0167907D02*
X0009785Y0167907D01*
X0009787Y0166309D02*
X0001863Y0166309D01*
X0001863Y0164710D02*
X0009788Y0164710D01*
X0009789Y0163112D02*
X0001862Y0163112D01*
X0001861Y0161513D02*
X0009790Y0161513D01*
X0009792Y0159915D02*
X0001861Y0159915D01*
X0001860Y0158316D02*
X0009793Y0158316D01*
X0009794Y0156718D02*
X0001860Y0156718D01*
X0001859Y0155119D02*
X0009795Y0155119D01*
X0009796Y0153521D02*
X0001858Y0153521D01*
X0001858Y0151922D02*
X0009798Y0151922D01*
X0009799Y0150324D02*
X0001857Y0150324D01*
X0001856Y0148725D02*
X0009800Y0148725D01*
X0009801Y0147127D02*
X0001856Y0147127D01*
X0001855Y0145528D02*
X0009803Y0145528D01*
X0009804Y0143930D02*
X0001855Y0143930D01*
X0001854Y0142331D02*
X0009805Y0142331D01*
X0009806Y0140733D02*
X0001853Y0140733D01*
X0001853Y0139134D02*
X0009808Y0139134D01*
X0009809Y0137536D02*
X0001852Y0137536D01*
X0001852Y0135937D02*
X0009810Y0135937D01*
X0009811Y0134339D02*
X0001851Y0134339D01*
X0001850Y0132740D02*
X0009812Y0132740D01*
X0009814Y0131142D02*
X0001850Y0131142D01*
X0001849Y0129543D02*
X0009815Y0129543D01*
X0009816Y0127945D02*
X0001848Y0127945D01*
X0001848Y0126346D02*
X0009817Y0126346D01*
X0009819Y0124747D02*
X0001847Y0124747D01*
X0001847Y0123149D02*
X0009820Y0123149D01*
X0009821Y0121550D02*
X0001846Y0121550D01*
X0001845Y0119952D02*
X0009822Y0119952D01*
X0009823Y0118353D02*
X0001845Y0118353D01*
X0001844Y0116755D02*
X0009825Y0116755D01*
X0009826Y0115156D02*
X0001844Y0115156D01*
X0001843Y0113558D02*
X0009827Y0113558D01*
X0009828Y0111959D02*
X0001842Y0111959D01*
X0001842Y0110361D02*
X0009830Y0110361D01*
X0009831Y0108762D02*
X0001841Y0108762D01*
X0001841Y0107164D02*
X0009832Y0107164D01*
X0009833Y0105565D02*
X0001840Y0105565D01*
X0001839Y0103967D02*
X0009834Y0103967D01*
X0009836Y0102368D02*
X0001839Y0102368D01*
X0001838Y0100770D02*
X0009837Y0100770D01*
X0009838Y0099171D02*
X0001837Y0099171D01*
X0001837Y0097573D02*
X0009839Y0097573D01*
X0009841Y0095974D02*
X0001836Y0095974D01*
X0001836Y0094376D02*
X0009842Y0094376D01*
X0009843Y0092777D02*
X0001835Y0092777D01*
X0001834Y0091179D02*
X0009844Y0091179D01*
X0009846Y0089580D02*
X0001834Y0089580D01*
X0001833Y0087982D02*
X0009847Y0087982D01*
X0009848Y0086383D02*
X0001833Y0086383D01*
X0001832Y0084785D02*
X0009849Y0084785D01*
X0009850Y0083186D02*
X0001831Y0083186D01*
X0001831Y0081588D02*
X0009852Y0081588D01*
X0009853Y0079989D02*
X0001830Y0079989D01*
X0001829Y0078391D02*
X0009854Y0078391D01*
X0009855Y0076792D02*
X0001829Y0076792D01*
X0001828Y0075194D02*
X0009857Y0075194D01*
X0009858Y0073595D02*
X0001828Y0073595D01*
X0001827Y0071997D02*
X0009859Y0071997D01*
X0009860Y0070398D02*
X0001826Y0070398D01*
X0001826Y0068800D02*
X0009861Y0068800D01*
X0009863Y0067201D02*
X0001825Y0067201D01*
X0001825Y0065603D02*
X0009864Y0065603D01*
X0009865Y0064004D02*
X0001824Y0064004D01*
X0001823Y0062406D02*
X0009866Y0062406D01*
X0009868Y0060807D02*
X0001823Y0060807D01*
X0001822Y0059209D02*
X0009869Y0059209D01*
X0009870Y0057610D02*
X0001821Y0057610D01*
X0001821Y0056011D02*
X0009871Y0056011D01*
X0009872Y0054413D02*
X0001820Y0054413D01*
X0001820Y0052814D02*
X0009874Y0052814D01*
X0009858Y0051216D02*
X0001819Y0051216D01*
X0001818Y0049617D02*
X0009921Y0049617D01*
X0010517Y0048019D02*
X0001818Y0048019D01*
X0001817Y0046420D02*
X0011677Y0046420D01*
X0013034Y0044822D02*
X0001817Y0044822D01*
X0001816Y0043223D02*
X0014384Y0043223D01*
X0015735Y0041625D02*
X0001815Y0041625D01*
X0001815Y0040026D02*
X0017085Y0040026D01*
X0018435Y0038428D02*
X0001814Y0038428D01*
X0001813Y0036829D02*
X0019786Y0036829D01*
X0021136Y0035231D02*
X0001813Y0035231D01*
X0001812Y0033632D02*
X0022486Y0033632D01*
X0023837Y0032034D02*
X0001812Y0032034D01*
X0001811Y0030435D02*
X0026407Y0030435D01*
X0029852Y0024265D02*
X0029852Y0024265D01*
X0029852Y0024265D01*
X0029628Y0024041D02*
X0029453Y0024041D01*
X0032094Y0025194D02*
X0032094Y0025194D01*
X0032094Y0025194D01*
X0039122Y0024041D02*
X0041452Y0024041D01*
X0041082Y0008056D02*
X0040505Y0008056D01*
X0022426Y0006588D02*
X0022426Y0006588D01*
X0022426Y0006588D01*
X0019645Y0008056D02*
X0001802Y0008056D01*
X0001803Y0009655D02*
X0018046Y0009655D01*
X0017400Y0010300D02*
X0017400Y0010300D01*
X0017400Y0010300D01*
X0017006Y0011253D02*
X0001804Y0011253D01*
X0001804Y0012852D02*
X0016472Y0012852D01*
X0016472Y0012542D02*
X0016472Y0012542D01*
X0016472Y0012542D01*
X0016472Y0014450D02*
X0001805Y0014450D01*
X0001805Y0016049D02*
X0016472Y0016049D01*
X0016472Y0017647D02*
X0001806Y0017647D01*
X0001807Y0019246D02*
X0016474Y0019246D01*
X0017136Y0020844D02*
X0001807Y0020844D01*
X0001808Y0022443D02*
X0018362Y0022443D01*
X0019116Y0023197D02*
X0019116Y0023197D01*
X0019960Y0024041D02*
X0001809Y0024041D01*
X0001809Y0025640D02*
X0086958Y0025640D01*
X0085308Y0024041D02*
X0169111Y0024041D01*
X0166068Y0025640D02*
X0114225Y0025640D01*
X0116615Y0027238D02*
X0164470Y0027238D01*
X0174148Y0024041D02*
X0179111Y0024041D01*
X0184148Y0024041D02*
X0189111Y0024041D01*
X0194148Y0024041D02*
X0199111Y0024041D01*
X0187700Y0046420D02*
X0185560Y0046420D01*
X0177700Y0046420D02*
X0175560Y0046420D01*
X0167700Y0046420D02*
X0116276Y0046420D01*
X0117874Y0044822D02*
X0165484Y0044822D01*
X0164052Y0043223D02*
X0118640Y0043223D01*
X0113614Y0052814D02*
X0167837Y0052814D01*
X0166714Y0054413D02*
X0115459Y0054413D01*
X0116178Y0056011D02*
X0166339Y0056011D01*
X0166339Y0057610D02*
X0116294Y0057610D01*
X0111694Y0057610D02*
X0111294Y0057610D01*
X0111294Y0056011D02*
X0111694Y0056011D01*
X0111694Y0054413D02*
X0111294Y0054413D01*
X0111294Y0052814D02*
X0111694Y0052814D01*
X0111694Y0059209D02*
X0111294Y0059209D01*
X0111294Y0060807D02*
X0111694Y0060807D01*
X0111694Y0062406D02*
X0111294Y0062406D01*
X0111294Y0064004D02*
X0111694Y0064004D01*
X0111694Y0065603D02*
X0111294Y0065603D01*
X0111294Y0067201D02*
X0111694Y0067201D01*
X0120159Y0075194D02*
X0142876Y0075194D01*
X0141277Y0076792D02*
X0120821Y0076792D01*
X0121069Y0078391D02*
X0140340Y0078391D01*
X0139508Y0079989D02*
X0121069Y0079989D01*
X0121069Y0081588D02*
X0137699Y0081588D01*
X0135890Y0083186D02*
X0121069Y0083186D01*
X0121069Y0084785D02*
X0134080Y0084785D01*
X0132271Y0086383D02*
X0121069Y0086383D01*
X0120617Y0087982D02*
X0130461Y0087982D01*
X0126882Y0089580D02*
X0124459Y0089580D01*
X0137926Y0118641D02*
X0139035Y0118818D01*
X0140096Y0147568D02*
X0137785Y0147568D01*
X0142883Y0158316D02*
X0145507Y0158316D01*
X0143949Y0159915D02*
X0210295Y0159915D01*
X0210295Y0161513D02*
X0145014Y0161513D01*
X0146080Y0163112D02*
X0210295Y0163112D01*
X0210295Y0164710D02*
X0147146Y0164710D01*
X0148211Y0166309D02*
X0210295Y0166309D01*
X0210295Y0167907D02*
X0202604Y0167907D01*
X0204203Y0169506D02*
X0210295Y0169506D01*
X0210295Y0171104D02*
X0205277Y0171104D01*
X0205939Y0172703D02*
X0209295Y0172703D01*
X0209295Y0174301D02*
X0206185Y0174301D01*
X0206185Y0175900D02*
X0209295Y0175900D01*
X0209295Y0177498D02*
X0206185Y0177498D01*
X0206185Y0179097D02*
X0209295Y0179097D01*
X0210533Y0180695D02*
X0206185Y0180695D01*
X0205997Y0182294D02*
X0212131Y0182294D01*
X0229348Y0190011D02*
X0237294Y0186863D01*
X0259138Y0192545D02*
X0275859Y0192115D01*
X0284024Y0183327D01*
X0277424Y0180511D02*
X0277424Y0172732D01*
X0275527Y0174630D01*
X0273705Y0174630D01*
X0273705Y0170230D01*
X0273704Y0170230D01*
X0273704Y0174630D01*
X0271882Y0174630D01*
X0270283Y0173031D01*
X0269684Y0173630D01*
X0268993Y0173630D01*
X0266095Y0177290D01*
X0266095Y0179458D01*
X0261706Y0183847D01*
X0264458Y0184987D01*
X0265257Y0185786D01*
X0272331Y0185604D01*
X0277424Y0180511D01*
X0277240Y0180695D02*
X0264858Y0180695D01*
X0266095Y0179097D02*
X0277424Y0179097D01*
X0277424Y0177498D02*
X0266095Y0177498D01*
X0267196Y0175900D02*
X0277424Y0175900D01*
X0277424Y0174301D02*
X0275855Y0174301D01*
X0273705Y0174301D02*
X0273704Y0174301D01*
X0273704Y0172703D02*
X0273705Y0172703D01*
X0273704Y0171104D02*
X0273705Y0171104D01*
X0273704Y0170230D02*
X0273704Y0180148D01*
X0272544Y0181309D01*
X0271667Y0181172D01*
X0271934Y0182481D01*
X0274043Y0183892D02*
X0261815Y0183892D01*
X0263259Y0182294D02*
X0275641Y0182294D01*
X0272444Y0185491D02*
X0264962Y0185491D01*
X0259138Y0192545D02*
X0259304Y0192702D01*
X0264997Y0199878D02*
X0279205Y0199878D01*
X0286795Y0212740D02*
X0286808Y0212785D01*
X0271554Y0174301D02*
X0268461Y0174301D01*
X0265698Y0165736D02*
X0266204Y0165230D01*
X0222730Y0128828D02*
X0223155Y0128295D01*
X0206446Y0155119D02*
X0204713Y0155119D01*
X0203115Y0156718D02*
X0208045Y0156718D01*
X0209643Y0158316D02*
X0200063Y0158316D01*
X0195507Y0158316D02*
X0190063Y0158316D01*
X0185507Y0158316D02*
X0180063Y0158316D01*
X0175507Y0158316D02*
X0170063Y0158316D01*
X0165507Y0158316D02*
X0160063Y0158316D01*
X0155507Y0158316D02*
X0150063Y0158316D01*
X0143090Y0158627D02*
X0143090Y0158627D01*
X0136870Y0161196D02*
X0147785Y0177568D01*
X0152604Y0167907D02*
X0152966Y0167907D01*
X0162604Y0167907D02*
X0162966Y0167907D01*
X0172604Y0167907D02*
X0172966Y0167907D01*
X0182604Y0167907D02*
X0182966Y0167907D01*
X0192604Y0167907D02*
X0192966Y0167907D01*
X0148922Y0201602D02*
X0145504Y0205020D01*
X0145504Y0243854D01*
X0149129Y0243854D01*
X0149318Y0243399D01*
X0151793Y0240923D01*
X0155027Y0239584D01*
X0158528Y0239584D01*
X0161763Y0240923D01*
X0161778Y0240939D01*
X0161793Y0240923D01*
X0165027Y0239584D01*
X0168528Y0239584D01*
X0171763Y0240923D01*
X0171778Y0240939D01*
X0171793Y0240923D01*
X0175027Y0239584D01*
X0178528Y0239584D01*
X0181763Y0240923D01*
X0181778Y0240939D01*
X0181793Y0240923D01*
X0185027Y0239584D01*
X0188528Y0239584D01*
X0191763Y0240923D01*
X0191778Y0240939D01*
X0191793Y0240923D01*
X0195027Y0239584D01*
X0198528Y0239584D01*
X0201732Y0240911D01*
X0201732Y0229564D01*
X0201507Y0230007D01*
X0201063Y0230618D01*
X0200529Y0231152D01*
X0199917Y0231596D01*
X0199244Y0231939D01*
X0198526Y0232173D01*
X0197779Y0232291D01*
X0197602Y0232291D01*
X0197602Y0224691D01*
X0197202Y0224691D01*
X0197202Y0232291D01*
X0197024Y0232291D01*
X0196278Y0232173D01*
X0195559Y0231939D01*
X0194886Y0231596D01*
X0194275Y0231152D01*
X0193740Y0230618D01*
X0193296Y0230007D01*
X0192953Y0229334D01*
X0192720Y0228615D01*
X0192602Y0227869D01*
X0192602Y0224691D01*
X0197201Y0224691D01*
X0197201Y0224291D01*
X0192602Y0224291D01*
X0192602Y0221113D01*
X0192720Y0220367D01*
X0192953Y0219648D01*
X0193296Y0218975D01*
X0193740Y0218364D01*
X0194275Y0217830D01*
X0194409Y0217732D01*
X0190394Y0217732D01*
X0190529Y0217830D01*
X0191063Y0218364D01*
X0191507Y0218975D01*
X0191850Y0219648D01*
X0192083Y0220367D01*
X0192202Y0221113D01*
X0192202Y0224291D01*
X0187602Y0224291D01*
X0187602Y0224691D01*
X0192202Y0224691D01*
X0192202Y0227869D01*
X0192083Y0228615D01*
X0191850Y0229334D01*
X0191507Y0230007D01*
X0191063Y0230618D01*
X0190529Y0231152D01*
X0189917Y0231596D01*
X0189244Y0231939D01*
X0188526Y0232173D01*
X0187779Y0232291D01*
X0187602Y0232291D01*
X0187602Y0224691D01*
X0187202Y0224691D01*
X0187202Y0232291D01*
X0187024Y0232291D01*
X0186278Y0232173D01*
X0185559Y0231939D01*
X0184886Y0231596D01*
X0184275Y0231152D01*
X0183740Y0230618D01*
X0183296Y0230007D01*
X0182953Y0229334D01*
X0182720Y0228615D01*
X0182602Y0227869D01*
X0182602Y0224691D01*
X0187201Y0224691D01*
X0187201Y0224291D01*
X0182602Y0224291D01*
X0182602Y0221113D01*
X0182720Y0220367D01*
X0182953Y0219648D01*
X0183296Y0218975D01*
X0183740Y0218364D01*
X0184275Y0217830D01*
X0184886Y0217386D01*
X0185559Y0217043D01*
X0186270Y0216812D01*
X0185920Y0216667D01*
X0183950Y0214698D01*
X0181788Y0212535D01*
X0181034Y0210714D01*
X0179472Y0211361D01*
X0175972Y0211361D01*
X0172737Y0210021D01*
X0172722Y0210006D01*
X0172707Y0210021D01*
X0169472Y0211361D01*
X0165972Y0211361D01*
X0162737Y0210021D01*
X0162722Y0210006D01*
X0162707Y0210021D01*
X0159472Y0211361D01*
X0155972Y0211361D01*
X0152737Y0210021D01*
X0150262Y0207545D01*
X0148922Y0204311D01*
X0148922Y0201602D01*
X0148922Y0203075D02*
X0147450Y0203075D01*
X0145851Y0204673D02*
X0149072Y0204673D01*
X0149734Y0206272D02*
X0145504Y0206272D01*
X0145504Y0207870D02*
X0150586Y0207870D01*
X0152185Y0209469D02*
X0145504Y0209469D01*
X0145504Y0211067D02*
X0155263Y0211067D01*
X0160181Y0211067D02*
X0165263Y0211067D01*
X0170181Y0211067D02*
X0175263Y0211067D01*
X0180181Y0211067D02*
X0181180Y0211067D01*
X0181919Y0212666D02*
X0145504Y0212666D01*
X0145504Y0214264D02*
X0183517Y0214264D01*
X0185116Y0215863D02*
X0145504Y0215863D01*
X0145504Y0217461D02*
X0154782Y0217461D01*
X0154886Y0217386D02*
X0155559Y0217043D01*
X0156278Y0216809D01*
X0157024Y0216691D01*
X0157202Y0216691D01*
X0157202Y0224291D01*
X0157602Y0224291D01*
X0157602Y0224691D01*
X0162202Y0224691D01*
X0162202Y0227869D01*
X0162083Y0228615D01*
X0161850Y0229334D01*
X0161507Y0230007D01*
X0161063Y0230618D01*
X0160529Y0231152D01*
X0159917Y0231596D01*
X0159244Y0231939D01*
X0158526Y0232173D01*
X0157779Y0232291D01*
X0157602Y0232291D01*
X0157602Y0224691D01*
X0157202Y0224691D01*
X0157202Y0232291D01*
X0157024Y0232291D01*
X0156278Y0232173D01*
X0155559Y0231939D01*
X0154886Y0231596D01*
X0154275Y0231152D01*
X0153740Y0230618D01*
X0153296Y0230007D01*
X0152953Y0229334D01*
X0152720Y0228615D01*
X0152602Y0227869D01*
X0152602Y0224691D01*
X0157201Y0224691D01*
X0157201Y0224291D01*
X0152602Y0224291D01*
X0152602Y0221113D01*
X0152720Y0220367D01*
X0152953Y0219648D01*
X0153296Y0218975D01*
X0153740Y0218364D01*
X0154275Y0217830D01*
X0154886Y0217386D01*
X0157202Y0217461D02*
X0157602Y0217461D01*
X0157602Y0216691D02*
X0157779Y0216691D01*
X0158526Y0216809D01*
X0159244Y0217043D01*
X0159917Y0217386D01*
X0160529Y0217830D01*
X0161063Y0218364D01*
X0161507Y0218975D01*
X0161850Y0219648D01*
X0162083Y0220367D01*
X0162202Y0221113D01*
X0162202Y0224291D01*
X0157602Y0224291D01*
X0157602Y0216691D01*
X0157602Y0219060D02*
X0157202Y0219060D01*
X0157202Y0220658D02*
X0157602Y0220658D01*
X0157602Y0222257D02*
X0157202Y0222257D01*
X0157202Y0223855D02*
X0157602Y0223855D01*
X0157602Y0225454D02*
X0157202Y0225454D01*
X0157202Y0227052D02*
X0157602Y0227052D01*
X0157602Y0228651D02*
X0157202Y0228651D01*
X0157202Y0230249D02*
X0157602Y0230249D01*
X0157602Y0231848D02*
X0157202Y0231848D01*
X0155379Y0231848D02*
X0145504Y0231848D01*
X0145504Y0233446D02*
X0201732Y0233446D01*
X0201732Y0231848D02*
X0199424Y0231848D01*
X0197602Y0231848D02*
X0197202Y0231848D01*
X0197202Y0230249D02*
X0197602Y0230249D01*
X0197602Y0228651D02*
X0197202Y0228651D01*
X0197202Y0227052D02*
X0197602Y0227052D01*
X0197602Y0225454D02*
X0197202Y0225454D01*
X0197402Y0224491D02*
X0187402Y0224491D01*
X0177402Y0224491D01*
X0167402Y0224491D01*
X0167602Y0224291D02*
X0167602Y0216691D01*
X0167779Y0216691D01*
X0168526Y0216809D01*
X0169244Y0217043D01*
X0169917Y0217386D01*
X0170529Y0217830D01*
X0171063Y0218364D01*
X0171507Y0218975D01*
X0171850Y0219648D01*
X0172083Y0220367D01*
X0172202Y0221113D01*
X0172202Y0224291D01*
X0167602Y0224291D01*
X0167602Y0224691D01*
X0172202Y0224691D01*
X0172202Y0227869D01*
X0172083Y0228615D01*
X0171850Y0229334D01*
X0171507Y0230007D01*
X0171063Y0230618D01*
X0170529Y0231152D01*
X0169917Y0231596D01*
X0169244Y0231939D01*
X0168526Y0232173D01*
X0167779Y0232291D01*
X0167602Y0232291D01*
X0167602Y0224691D01*
X0167202Y0224691D01*
X0167202Y0232291D01*
X0167024Y0232291D01*
X0166278Y0232173D01*
X0165559Y0231939D01*
X0164886Y0231596D01*
X0164275Y0231152D01*
X0163740Y0230618D01*
X0163296Y0230007D01*
X0162953Y0229334D01*
X0162720Y0228615D01*
X0162602Y0227869D01*
X0162602Y0224691D01*
X0167201Y0224691D01*
X0167201Y0224291D01*
X0162602Y0224291D01*
X0162602Y0221113D01*
X0162720Y0220367D01*
X0162953Y0219648D01*
X0163296Y0218975D01*
X0163740Y0218364D01*
X0164275Y0217830D01*
X0164886Y0217386D01*
X0165559Y0217043D01*
X0166278Y0216809D01*
X0167024Y0216691D01*
X0167202Y0216691D01*
X0167202Y0224291D01*
X0167602Y0224291D01*
X0167602Y0223855D02*
X0167202Y0223855D01*
X0167202Y0222257D02*
X0167602Y0222257D01*
X0167602Y0220658D02*
X0167202Y0220658D01*
X0167202Y0219060D02*
X0167602Y0219060D01*
X0167602Y0217461D02*
X0167202Y0217461D01*
X0164782Y0217461D02*
X0160021Y0217461D01*
X0161550Y0219060D02*
X0163253Y0219060D01*
X0162674Y0220658D02*
X0162129Y0220658D01*
X0162202Y0222257D02*
X0162602Y0222257D01*
X0162602Y0223855D02*
X0162202Y0223855D01*
X0162202Y0225454D02*
X0162602Y0225454D01*
X0162602Y0227052D02*
X0162202Y0227052D01*
X0162072Y0228651D02*
X0162731Y0228651D01*
X0163472Y0230249D02*
X0161331Y0230249D01*
X0159424Y0231848D02*
X0165379Y0231848D01*
X0167202Y0231848D02*
X0167602Y0231848D01*
X0167602Y0230249D02*
X0167202Y0230249D01*
X0167202Y0228651D02*
X0167602Y0228651D01*
X0167602Y0227052D02*
X0167202Y0227052D01*
X0167202Y0225454D02*
X0167602Y0225454D01*
X0172202Y0225454D02*
X0172602Y0225454D01*
X0172602Y0224691D02*
X0177201Y0224691D01*
X0177201Y0224291D01*
X0172602Y0224291D01*
X0172602Y0221113D01*
X0172720Y0220367D01*
X0172953Y0219648D01*
X0173296Y0218975D01*
X0173740Y0218364D01*
X0174275Y0217830D01*
X0174886Y0217386D01*
X0175559Y0217043D01*
X0176278Y0216809D01*
X0177024Y0216691D01*
X0177202Y0216691D01*
X0177202Y0224291D01*
X0177602Y0224291D01*
X0177602Y0224691D01*
X0182202Y0224691D01*
X0182202Y0227869D01*
X0182083Y0228615D01*
X0181850Y0229334D01*
X0181507Y0230007D01*
X0181063Y0230618D01*
X0180529Y0231152D01*
X0179917Y0231596D01*
X0179244Y0231939D01*
X0178526Y0232173D01*
X0177779Y0232291D01*
X0177602Y0232291D01*
X0177602Y0224691D01*
X0177202Y0224691D01*
X0177202Y0232291D01*
X0177024Y0232291D01*
X0176278Y0232173D01*
X0175559Y0231939D01*
X0174886Y0231596D01*
X0174275Y0231152D01*
X0173740Y0230618D01*
X0173296Y0230007D01*
X0172953Y0229334D01*
X0172720Y0228615D01*
X0172602Y0227869D01*
X0172602Y0224691D01*
X0172602Y0223855D02*
X0172202Y0223855D01*
X0172202Y0222257D02*
X0172602Y0222257D01*
X0172674Y0220658D02*
X0172129Y0220658D01*
X0171550Y0219060D02*
X0173253Y0219060D01*
X0174782Y0217461D02*
X0170021Y0217461D01*
X0177202Y0217461D02*
X0177602Y0217461D01*
X0177602Y0216691D02*
X0177779Y0216691D01*
X0178526Y0216809D01*
X0179244Y0217043D01*
X0179917Y0217386D01*
X0180529Y0217830D01*
X0181063Y0218364D01*
X0181507Y0218975D01*
X0181850Y0219648D01*
X0182083Y0220367D01*
X0182202Y0221113D01*
X0182202Y0224291D01*
X0177602Y0224291D01*
X0177602Y0216691D01*
X0177602Y0219060D02*
X0177202Y0219060D01*
X0177202Y0220658D02*
X0177602Y0220658D01*
X0177602Y0222257D02*
X0177202Y0222257D01*
X0177202Y0223855D02*
X0177602Y0223855D01*
X0177602Y0225454D02*
X0177202Y0225454D01*
X0177202Y0227052D02*
X0177602Y0227052D01*
X0177602Y0228651D02*
X0177202Y0228651D01*
X0177202Y0230249D02*
X0177602Y0230249D01*
X0177602Y0231848D02*
X0177202Y0231848D01*
X0175379Y0231848D02*
X0169424Y0231848D01*
X0171331Y0230249D02*
X0173472Y0230249D01*
X0172731Y0228651D02*
X0172072Y0228651D01*
X0172202Y0227052D02*
X0172602Y0227052D01*
X0179424Y0231848D02*
X0185379Y0231848D01*
X0187202Y0231848D02*
X0187602Y0231848D01*
X0187602Y0230249D02*
X0187202Y0230249D01*
X0187202Y0228651D02*
X0187602Y0228651D01*
X0187602Y0227052D02*
X0187202Y0227052D01*
X0187202Y0225454D02*
X0187602Y0225454D01*
X0192202Y0225454D02*
X0192602Y0225454D01*
X0192602Y0227052D02*
X0192202Y0227052D01*
X0192072Y0228651D02*
X0192731Y0228651D01*
X0193472Y0230249D02*
X0191331Y0230249D01*
X0189424Y0231848D02*
X0195379Y0231848D01*
X0201331Y0230249D02*
X0201732Y0230249D01*
X0201732Y0235045D02*
X0145504Y0235045D01*
X0145504Y0236643D02*
X0201732Y0236643D01*
X0201732Y0238242D02*
X0145504Y0238242D01*
X0145504Y0239840D02*
X0154408Y0239840D01*
X0151278Y0241439D02*
X0145504Y0241439D01*
X0145504Y0243037D02*
X0149679Y0243037D01*
X0159148Y0239840D02*
X0164408Y0239840D01*
X0169148Y0239840D02*
X0174408Y0239840D01*
X0179148Y0239840D02*
X0184408Y0239840D01*
X0189148Y0239840D02*
X0194408Y0239840D01*
X0199148Y0239840D02*
X0201732Y0239840D01*
X0192602Y0223855D02*
X0192202Y0223855D01*
X0192202Y0222257D02*
X0192602Y0222257D01*
X0192674Y0220658D02*
X0192129Y0220658D01*
X0191550Y0219060D02*
X0193253Y0219060D01*
X0184782Y0217461D02*
X0180021Y0217461D01*
X0181550Y0219060D02*
X0183253Y0219060D01*
X0182674Y0220658D02*
X0182129Y0220658D01*
X0182202Y0222257D02*
X0182602Y0222257D01*
X0182602Y0223855D02*
X0182202Y0223855D01*
X0182202Y0225454D02*
X0182602Y0225454D01*
X0182602Y0227052D02*
X0182202Y0227052D01*
X0182072Y0228651D02*
X0182731Y0228651D01*
X0183472Y0230249D02*
X0181331Y0230249D01*
X0153472Y0230249D02*
X0145504Y0230249D01*
X0145504Y0228651D02*
X0152731Y0228651D01*
X0152602Y0227052D02*
X0145504Y0227052D01*
X0145504Y0225454D02*
X0152602Y0225454D01*
X0152442Y0224278D02*
X0152442Y0220733D01*
X0149459Y0212643D01*
X0153253Y0219060D02*
X0145504Y0219060D01*
X0145504Y0220658D02*
X0152674Y0220658D01*
X0152602Y0222257D02*
X0145504Y0222257D01*
X0145504Y0223855D02*
X0152602Y0223855D01*
X0130704Y0235045D02*
X0023734Y0235045D01*
X0023733Y0236643D02*
X0130704Y0236643D01*
X0130704Y0238242D02*
X0023732Y0238242D01*
X0023730Y0239840D02*
X0064653Y0239840D01*
X0061706Y0241439D02*
X0023729Y0241439D01*
X0023728Y0243037D02*
X0060107Y0243037D01*
X0070017Y0239840D02*
X0074653Y0239840D01*
X0080017Y0239840D02*
X0084653Y0239840D01*
X0090017Y0239840D02*
X0094653Y0239840D01*
X0100017Y0239840D02*
X0104653Y0239840D01*
X0110017Y0239840D02*
X0114653Y0239840D01*
X0120017Y0239840D02*
X0130704Y0239840D01*
X0130704Y0241439D02*
X0122965Y0241439D01*
X0124563Y0243037D02*
X0130704Y0243037D01*
X0125038Y0258654D02*
X0124796Y0259239D01*
X0122320Y0261715D01*
X0119086Y0263054D01*
X0115585Y0263054D01*
X0112351Y0261715D01*
X0112335Y0261700D01*
X0112320Y0261715D01*
X0109086Y0263054D01*
X0105585Y0263054D01*
X0102351Y0261715D01*
X0102335Y0261700D01*
X0102320Y0261715D01*
X0099086Y0263054D01*
X0095585Y0263054D01*
X0092351Y0261715D01*
X0092335Y0261700D01*
X0092320Y0261715D01*
X0089086Y0263054D01*
X0085585Y0263054D01*
X0082351Y0261715D01*
X0082335Y0261700D01*
X0082320Y0261715D01*
X0079086Y0263054D01*
X0075585Y0263054D01*
X0072351Y0261715D01*
X0072335Y0261700D01*
X0072320Y0261715D01*
X0069086Y0263054D01*
X0065585Y0263054D01*
X0062351Y0261715D01*
X0059875Y0259239D01*
X0059467Y0258254D01*
X0023722Y0258254D01*
X0023722Y0307240D01*
X0032363Y0315882D01*
X0087389Y0315882D01*
X0088022Y0314354D01*
X0090539Y0311836D01*
X0090880Y0311695D01*
X0090659Y0311474D01*
X0090659Y0309424D01*
X0095609Y0309424D01*
X0095609Y0309424D01*
X0100559Y0309424D01*
X0100559Y0311474D01*
X0100338Y0311695D01*
X0100679Y0311836D01*
X0101351Y0312509D01*
X0113215Y0312509D01*
X0111801Y0311094D01*
X0110461Y0307860D01*
X0110461Y0304359D01*
X0111801Y0301125D01*
X0114276Y0298649D01*
X0115013Y0298344D01*
X0114813Y0297952D01*
X0114579Y0297234D01*
X0114461Y0296487D01*
X0114461Y0296310D01*
X0122061Y0296310D01*
X0122061Y0295910D01*
X0114461Y0295910D01*
X0114461Y0295732D01*
X0114579Y0294986D01*
X0114813Y0294267D01*
X0115013Y0293875D01*
X0114276Y0293570D01*
X0114161Y0293454D01*
X0108155Y0293454D01*
X0107643Y0294691D01*
X0105125Y0297209D01*
X0101836Y0298572D01*
X0098275Y0298572D01*
X0094986Y0297209D01*
X0092468Y0294691D01*
X0092327Y0294351D01*
X0092106Y0294572D01*
X0090055Y0294572D01*
X0088005Y0294572D01*
X0085105Y0291672D01*
X0085105Y0289622D01*
X0090055Y0289622D01*
X0090055Y0289622D01*
X0090055Y0294572D01*
X0090055Y0289622D01*
X0090055Y0289622D01*
X0085105Y0289622D01*
X0085105Y0287571D01*
X0088005Y0284672D01*
X0090055Y0284672D01*
X0090055Y0289622D01*
X0090055Y0289622D01*
X0090055Y0284672D01*
X0092106Y0284672D01*
X0092327Y0284893D01*
X0092468Y0284552D01*
X0094986Y0282034D01*
X0095751Y0281717D01*
X0089946Y0281717D01*
X0077443Y0294221D01*
X0077443Y0300051D01*
X0076754Y0302620D01*
X0075425Y0304923D01*
X0073544Y0306803D01*
X0071241Y0308133D01*
X0068672Y0308821D01*
X0066013Y0308821D01*
X0063444Y0308133D01*
X0061141Y0306803D01*
X0059261Y0304923D01*
X0057931Y0302620D01*
X0057243Y0300051D01*
X0057243Y0288792D01*
X0057931Y0286223D01*
X0059261Y0283920D01*
X0061141Y0282039D01*
X0063444Y0280710D01*
X0066013Y0280021D01*
X0068672Y0280021D01*
X0071173Y0280691D01*
X0083081Y0268783D01*
X0085654Y0267717D01*
X0108283Y0267717D01*
X0110856Y0268783D01*
X0112825Y0270752D01*
X0119382Y0277310D01*
X0127012Y0277310D01*
X0130246Y0278649D01*
X0130706Y0279110D01*
X0152781Y0279110D01*
X0153763Y0278128D01*
X0156997Y0276788D01*
X0166498Y0276788D01*
X0169732Y0278128D01*
X0170333Y0278729D01*
X0180630Y0278899D01*
X0182753Y0276775D01*
X0186043Y0275413D01*
X0189603Y0275413D01*
X0192893Y0276775D01*
X0195410Y0279293D01*
X0195552Y0279634D01*
X0195773Y0279413D01*
X0197823Y0279413D01*
X0199873Y0279413D01*
X0201732Y0281272D01*
X0201732Y0261856D01*
X0198528Y0263184D01*
X0195027Y0263184D01*
X0191793Y0261844D01*
X0191778Y0261829D01*
X0191763Y0261844D01*
X0188528Y0263184D01*
X0185027Y0263184D01*
X0181793Y0261844D01*
X0181778Y0261829D01*
X0181763Y0261844D01*
X0178528Y0263184D01*
X0175027Y0263184D01*
X0171793Y0261844D01*
X0171778Y0261829D01*
X0171763Y0261844D01*
X0168528Y0263184D01*
X0165027Y0263184D01*
X0161793Y0261844D01*
X0161778Y0261829D01*
X0161763Y0261844D01*
X0158528Y0263184D01*
X0155027Y0263184D01*
X0151793Y0261844D01*
X0149318Y0259368D01*
X0149022Y0258654D01*
X0125038Y0258654D01*
X0124885Y0259022D02*
X0149174Y0259022D01*
X0150570Y0260621D02*
X0123414Y0260621D01*
X0121102Y0262219D02*
X0152700Y0262219D01*
X0160856Y0262219D02*
X0162700Y0262219D01*
X0170856Y0262219D02*
X0172700Y0262219D01*
X0180856Y0262219D02*
X0182700Y0262219D01*
X0183917Y0268339D02*
X0189841Y0268339D01*
X0188105Y0267931D02*
X0197195Y0277020D01*
X0197195Y0283734D01*
X0197823Y0284363D01*
X0197823Y0284363D01*
X0197823Y0289312D01*
X0199873Y0289313D01*
X0201732Y0287453D01*
X0201732Y0305003D01*
X0201513Y0305532D01*
X0201513Y0308317D01*
X0202579Y0310890D01*
X0202798Y0311109D01*
X0202798Y0311109D01*
X0204122Y0312433D01*
X0204122Y0314413D01*
X0209043Y0319334D01*
X0216002Y0319334D01*
X0220922Y0314413D01*
X0220922Y0307455D01*
X0216002Y0302534D01*
X0215732Y0302534D01*
X0215732Y0258470D01*
X0221318Y0258470D01*
X0222648Y0257140D01*
X0222831Y0330411D01*
X0222703Y0331046D01*
X0222834Y0331711D01*
X0222836Y0332389D01*
X0223085Y0332987D01*
X0223210Y0333622D01*
X0223586Y0334186D01*
X0223847Y0334812D01*
X0224306Y0335269D01*
X0224665Y0335808D01*
X0225227Y0336186D01*
X0225708Y0336664D01*
X0226307Y0336910D01*
X0235339Y0342973D01*
X0210758Y0342973D01*
X0200721Y0332936D01*
X0200721Y0321185D01*
X0200909Y0320998D01*
X0202271Y0317709D01*
X0202271Y0314148D01*
X0200909Y0310858D01*
X0198391Y0308341D01*
X0198050Y0308200D01*
X0198271Y0307979D01*
X0198271Y0305928D01*
X0193321Y0305928D01*
X0188371Y0305928D01*
X0188371Y0303878D01*
X0191271Y0300978D01*
X0193321Y0300978D01*
X0193321Y0305928D01*
X0193321Y0305928D01*
X0193321Y0305928D01*
X0188371Y0305928D01*
X0188371Y0307979D01*
X0188592Y0308200D01*
X0188252Y0308341D01*
X0188098Y0308494D01*
X0175958Y0308494D01*
X0175395Y0307930D01*
X0175296Y0307728D01*
X0174359Y0306895D01*
X0173547Y0306083D01*
X0173547Y0303838D01*
X0172208Y0300603D01*
X0169732Y0298128D01*
X0168996Y0297823D01*
X0169196Y0297431D01*
X0169429Y0296712D01*
X0169547Y0295966D01*
X0169547Y0295788D01*
X0201732Y0295788D01*
X0201732Y0294190D02*
X0169340Y0294190D01*
X0169429Y0294464D02*
X0169547Y0295210D01*
X0169547Y0295388D01*
X0161948Y0295388D01*
X0161948Y0295788D01*
X0169547Y0295788D01*
X0169429Y0294464D02*
X0169196Y0293746D01*
X0168996Y0293353D01*
X0169488Y0293150D01*
X0170060Y0293190D01*
X0170301Y0293110D01*
X0170555Y0293110D01*
X0171426Y0292749D01*
X0184746Y0292968D01*
X0184802Y0292991D01*
X0185267Y0292991D01*
X0186043Y0293313D01*
X0189603Y0293313D01*
X0192893Y0291950D01*
X0195410Y0289432D01*
X0195552Y0289091D01*
X0195773Y0289313D01*
X0197823Y0289313D01*
X0197823Y0284363D01*
X0197823Y0284362D02*
X0197823Y0279413D01*
X0197823Y0284362D01*
X0197823Y0284362D01*
X0197823Y0284599D02*
X0197823Y0284599D01*
X0197823Y0286197D02*
X0197823Y0286197D01*
X0197823Y0287796D02*
X0197823Y0287796D01*
X0195426Y0289394D02*
X0201732Y0289394D01*
X0201732Y0287796D02*
X0201390Y0287796D01*
X0201732Y0290993D02*
X0193850Y0290993D01*
X0191345Y0292591D02*
X0201732Y0292591D01*
X0201732Y0297387D02*
X0169210Y0297387D01*
X0170590Y0298985D02*
X0201732Y0298985D01*
X0201732Y0300584D02*
X0172188Y0300584D01*
X0172862Y0302182D02*
X0190067Y0302182D01*
X0188468Y0303781D02*
X0173524Y0303781D01*
X0173547Y0305379D02*
X0188371Y0305379D01*
X0188371Y0306978D02*
X0174452Y0306978D01*
X0164701Y0318167D02*
X0129696Y0318167D01*
X0129696Y0316569D02*
X0162965Y0316569D01*
X0161166Y0314970D02*
X0129696Y0314970D01*
X0130444Y0313372D02*
X0154543Y0313372D01*
X0152488Y0311773D02*
X0132043Y0311773D01*
X0133102Y0310175D02*
X0151122Y0310175D01*
X0150460Y0308576D02*
X0133765Y0308576D01*
X0134061Y0306978D02*
X0149947Y0306978D01*
X0149947Y0305379D02*
X0134061Y0305379D01*
X0133822Y0303781D02*
X0149971Y0303781D01*
X0150633Y0302182D02*
X0133160Y0302182D01*
X0132180Y0300584D02*
X0151307Y0300584D01*
X0152905Y0298985D02*
X0130582Y0298985D01*
X0129893Y0297387D02*
X0154285Y0297387D01*
X0153947Y0295788D02*
X0130061Y0295788D01*
X0129670Y0294190D02*
X0154155Y0294190D01*
X0153686Y0278205D02*
X0129172Y0278205D01*
X0118679Y0276606D02*
X0183161Y0276606D01*
X0181324Y0278205D02*
X0169809Y0278205D01*
X0192485Y0276606D02*
X0201732Y0276606D01*
X0201732Y0275008D02*
X0117080Y0275008D01*
X0115482Y0273409D02*
X0201732Y0273409D01*
X0201732Y0271811D02*
X0113883Y0271811D01*
X0112285Y0270212D02*
X0201732Y0270212D01*
X0201732Y0268613D02*
X0110446Y0268613D01*
X0111102Y0262219D02*
X0113569Y0262219D01*
X0103569Y0262219D02*
X0101102Y0262219D01*
X0093569Y0262219D02*
X0091102Y0262219D01*
X0083569Y0262219D02*
X0081102Y0262219D01*
X0083491Y0268613D02*
X0023722Y0268613D01*
X0023722Y0267015D02*
X0201732Y0267015D01*
X0201732Y0265416D02*
X0023722Y0265416D01*
X0023722Y0263818D02*
X0201732Y0263818D01*
X0201732Y0262219D02*
X0200856Y0262219D01*
X0192700Y0262219D02*
X0190856Y0262219D01*
X0194322Y0278205D02*
X0201732Y0278205D01*
X0201732Y0279803D02*
X0200264Y0279803D01*
X0197823Y0279803D02*
X0197823Y0279803D01*
X0197823Y0281402D02*
X0197823Y0281402D01*
X0197823Y0283000D02*
X0197823Y0283000D01*
X0215732Y0283000D02*
X0222712Y0283000D01*
X0222708Y0281402D02*
X0215732Y0281402D01*
X0215732Y0279803D02*
X0222704Y0279803D01*
X0222700Y0278205D02*
X0215732Y0278205D01*
X0215732Y0276606D02*
X0222696Y0276606D01*
X0222692Y0275008D02*
X0215732Y0275008D01*
X0215732Y0273409D02*
X0222688Y0273409D01*
X0222684Y0271811D02*
X0215732Y0271811D01*
X0215732Y0270212D02*
X0222680Y0270212D01*
X0222676Y0268613D02*
X0215732Y0268613D01*
X0215732Y0267015D02*
X0222672Y0267015D01*
X0222668Y0265416D02*
X0215732Y0265416D01*
X0215732Y0263818D02*
X0222664Y0263818D01*
X0222660Y0262219D02*
X0215732Y0262219D01*
X0215732Y0260621D02*
X0222656Y0260621D01*
X0222652Y0259022D02*
X0215732Y0259022D01*
X0222364Y0257424D02*
X0222648Y0257424D01*
X0235904Y0279803D02*
X0239141Y0279803D01*
X0236341Y0281402D02*
X0235908Y0281402D01*
X0222716Y0284599D02*
X0215732Y0284599D01*
X0215732Y0286197D02*
X0222720Y0286197D01*
X0222724Y0287796D02*
X0215732Y0287796D01*
X0215732Y0289394D02*
X0222728Y0289394D01*
X0222732Y0290993D02*
X0215732Y0290993D01*
X0215732Y0292591D02*
X0222736Y0292591D01*
X0222740Y0294190D02*
X0215732Y0294190D01*
X0215732Y0295788D02*
X0222744Y0295788D01*
X0222748Y0297387D02*
X0215732Y0297387D01*
X0215732Y0298985D02*
X0222752Y0298985D01*
X0222756Y0300584D02*
X0215732Y0300584D01*
X0215732Y0302182D02*
X0222760Y0302182D01*
X0222764Y0303781D02*
X0217249Y0303781D01*
X0218847Y0305379D02*
X0222768Y0305379D01*
X0222772Y0306978D02*
X0220446Y0306978D01*
X0220922Y0308576D02*
X0222776Y0308576D01*
X0222780Y0310175D02*
X0220922Y0310175D01*
X0220922Y0311773D02*
X0222784Y0311773D01*
X0222788Y0313372D02*
X0220922Y0313372D01*
X0220365Y0314970D02*
X0222792Y0314970D01*
X0222796Y0316569D02*
X0218767Y0316569D01*
X0217168Y0318167D02*
X0222800Y0318167D01*
X0222804Y0319766D02*
X0201419Y0319766D01*
X0202081Y0318167D02*
X0207876Y0318167D01*
X0206278Y0316569D02*
X0202271Y0316569D01*
X0202271Y0314970D02*
X0204679Y0314970D01*
X0203872Y0315744D02*
X0211248Y0324337D01*
X0203452Y0312589D01*
X0199769Y0305643D01*
X0198968Y0305456D01*
X0193793Y0305456D01*
X0193321Y0305928D01*
X0193321Y0300978D01*
X0195372Y0300978D01*
X0198271Y0303878D01*
X0198271Y0305928D01*
X0193321Y0305928D01*
X0193321Y0305928D01*
X0193321Y0305379D02*
X0193321Y0305379D01*
X0193321Y0303781D02*
X0193321Y0303781D01*
X0193321Y0302182D02*
X0193321Y0302182D01*
X0196576Y0302182D02*
X0201732Y0302182D01*
X0201732Y0303781D02*
X0198174Y0303781D01*
X0198271Y0305379D02*
X0201576Y0305379D01*
X0201513Y0306978D02*
X0198271Y0306978D01*
X0198627Y0308576D02*
X0201620Y0308576D01*
X0202283Y0310175D02*
X0200225Y0310175D01*
X0201288Y0311773D02*
X0203462Y0311773D01*
X0204122Y0313372D02*
X0201950Y0313372D01*
X0203872Y0315744D02*
X0204528Y0317582D01*
X0207026Y0320636D01*
X0210496Y0325644D01*
X0213568Y0325644D01*
X0222820Y0326160D02*
X0200721Y0326160D01*
X0200721Y0327758D02*
X0222824Y0327758D01*
X0222828Y0329357D02*
X0200721Y0329357D01*
X0200721Y0330955D02*
X0222722Y0330955D01*
X0222905Y0332554D02*
X0200721Y0332554D01*
X0201938Y0334152D02*
X0223563Y0334152D01*
X0224627Y0335751D02*
X0203536Y0335751D01*
X0205135Y0337349D02*
X0226961Y0337349D01*
X0229343Y0338948D02*
X0206733Y0338948D01*
X0208332Y0340547D02*
X0231725Y0340547D01*
X0234106Y0342145D02*
X0209930Y0342145D01*
X0200189Y0353335D02*
X0167389Y0353335D01*
X0165118Y0354933D02*
X0201788Y0354933D01*
X0203386Y0356532D02*
X0098745Y0356532D01*
X0098199Y0357077D02*
X0095957Y0358006D01*
X0093531Y0358006D01*
X0092609Y0357624D01*
X0091687Y0358006D01*
X0089260Y0358006D01*
X0088318Y0357616D01*
X0087377Y0358006D01*
X0084950Y0358006D01*
X0084048Y0357632D01*
X0084008Y0357616D01*
X0083066Y0358006D01*
X0078637Y0358006D01*
X0077437Y0358006D01*
X0077437Y0358006D01*
X0077029Y0357837D01*
X0076621Y0358006D01*
X0069924Y0358006D01*
X0067682Y0357077D01*
X0066827Y0356222D01*
X0065972Y0357077D01*
X0063730Y0358006D01*
X0058817Y0358006D01*
X0058213Y0358125D01*
X0057615Y0358006D01*
X0057006Y0358006D01*
X0056437Y0357770D01*
X0055961Y0357675D01*
X0055163Y0358006D01*
X0052736Y0358006D01*
X0050494Y0357077D01*
X0049639Y0356222D01*
X0048784Y0357077D01*
X0046542Y0358006D01*
X0041629Y0358006D01*
X0041025Y0358125D01*
X0040427Y0358006D01*
X0039818Y0358006D01*
X0039249Y0357770D01*
X0038773Y0357675D01*
X0037975Y0358006D01*
X0031370Y0358006D01*
X0030170Y0358006D01*
X0030170Y0358006D01*
X0030170Y0358006D01*
X0029762Y0357837D01*
X0029354Y0358006D01*
X0024792Y0358006D01*
X0023857Y0357618D01*
X0022922Y0358006D01*
X0020495Y0358006D01*
X0019593Y0357632D01*
X0018253Y0357077D01*
X0016118Y0354942D01*
X0016118Y0354942D01*
X0014402Y0353226D01*
X0014009Y0352279D01*
X0013473Y0350984D01*
X0013473Y0344287D01*
X0014402Y0342045D01*
X0016118Y0340329D01*
X0018360Y0339400D01*
X0020787Y0339400D01*
X0021708Y0339782D01*
X0022630Y0339400D01*
X0029354Y0339400D01*
X0029762Y0339569D01*
X0030170Y0339400D01*
X0031397Y0339400D01*
X0036164Y0339400D01*
X0036768Y0339281D01*
X0037365Y0339400D01*
X0037975Y0339400D01*
X0038543Y0339636D01*
X0039019Y0339731D01*
X0039818Y0339400D01*
X0046542Y0339400D01*
X0048784Y0340329D01*
X0049555Y0341100D01*
X0049556Y0341098D01*
X0050063Y0340760D01*
X0050494Y0340329D01*
X0051063Y0340093D01*
X0051575Y0339752D01*
X0052173Y0339633D01*
X0052736Y0339400D01*
X0053352Y0339400D01*
X0053956Y0339281D01*
X0054553Y0339400D01*
X0055163Y0339400D01*
X0055731Y0339636D01*
X0056207Y0339731D01*
X0057006Y0339400D01*
X0063730Y0339400D01*
X0065972Y0340329D01*
X0066827Y0341184D01*
X0067682Y0340329D01*
X0069924Y0339400D01*
X0076621Y0339400D01*
X0077029Y0339569D01*
X0077437Y0339400D01*
X0078663Y0339400D01*
X0085242Y0339400D01*
X0086163Y0339782D01*
X0087085Y0339400D01*
X0091687Y0339400D01*
X0092609Y0339782D01*
X0093531Y0339400D01*
X0095957Y0339400D01*
X0098199Y0340329D01*
X0099915Y0342045D01*
X0100844Y0344287D01*
X0100844Y0353119D01*
X0099915Y0355361D01*
X0098199Y0357077D01*
X0100093Y0354933D02*
X0137446Y0354933D01*
X0135175Y0353335D02*
X0100755Y0353335D01*
X0100844Y0351736D02*
X0133720Y0351736D01*
X0133058Y0350138D02*
X0100844Y0350138D01*
X0100844Y0348539D02*
X0132482Y0348539D01*
X0132482Y0346941D02*
X0100844Y0346941D01*
X0100844Y0345342D02*
X0132482Y0345342D01*
X0132482Y0343744D02*
X0100619Y0343744D01*
X0099957Y0342145D02*
X0132482Y0342145D01*
X0132482Y0340547D02*
X0098417Y0340547D01*
X0094810Y0329357D02*
X0136757Y0329357D01*
X0136757Y0330955D02*
X0001927Y0330955D01*
X0001926Y0329357D02*
X0026804Y0329357D01*
X0024441Y0327758D02*
X0001925Y0327758D01*
X0001925Y0326160D02*
X0022842Y0326160D01*
X0021244Y0324561D02*
X0001924Y0324561D01*
X0001923Y0322963D02*
X0019645Y0322963D01*
X0018047Y0321364D02*
X0001923Y0321364D01*
X0001922Y0319766D02*
X0016448Y0319766D01*
X0014850Y0318167D02*
X0001922Y0318167D01*
X0001921Y0316569D02*
X0013251Y0316569D01*
X0011653Y0314970D02*
X0001920Y0314970D01*
X0001920Y0313372D02*
X0010484Y0313372D01*
X0009821Y0311773D02*
X0001919Y0311773D01*
X0001919Y0310175D02*
X0009722Y0310175D01*
X0009722Y0308576D02*
X0001918Y0308576D01*
X0001917Y0306978D02*
X0009722Y0306978D01*
X0009722Y0305379D02*
X0001917Y0305379D01*
X0001916Y0303781D02*
X0009722Y0303781D01*
X0009722Y0302182D02*
X0001916Y0302182D01*
X0001915Y0300584D02*
X0009722Y0300584D01*
X0009722Y0298985D02*
X0001914Y0298985D01*
X0001914Y0297387D02*
X0009722Y0297387D01*
X0009722Y0295788D02*
X0001913Y0295788D01*
X0001912Y0294190D02*
X0009722Y0294190D01*
X0009722Y0292591D02*
X0001912Y0292591D01*
X0001911Y0290993D02*
X0009722Y0290993D01*
X0009722Y0289394D02*
X0001911Y0289394D01*
X0001910Y0287796D02*
X0009722Y0287796D01*
X0009722Y0286197D02*
X0001909Y0286197D01*
X0001909Y0284599D02*
X0009722Y0284599D01*
X0009722Y0283000D02*
X0001908Y0283000D01*
X0001908Y0281402D02*
X0009722Y0281402D01*
X0009722Y0279803D02*
X0001907Y0279803D01*
X0001906Y0278205D02*
X0009722Y0278205D01*
X0009722Y0276606D02*
X0001906Y0276606D01*
X0001905Y0275008D02*
X0009722Y0275008D01*
X0009722Y0273409D02*
X0001904Y0273409D01*
X0001904Y0271811D02*
X0009722Y0271811D01*
X0009722Y0270212D02*
X0001903Y0270212D01*
X0001903Y0268613D02*
X0009722Y0268613D01*
X0009722Y0267015D02*
X0001902Y0267015D01*
X0001901Y0265416D02*
X0009722Y0265416D01*
X0009722Y0263818D02*
X0001901Y0263818D01*
X0001900Y0262219D02*
X0009722Y0262219D01*
X0009722Y0260621D02*
X0001900Y0260621D01*
X0001899Y0259022D02*
X0009722Y0259022D01*
X0009722Y0257424D02*
X0001898Y0257424D01*
X0001898Y0255825D02*
X0009722Y0255825D01*
X0009722Y0254227D02*
X0001897Y0254227D01*
X0001896Y0252628D02*
X0009722Y0252628D01*
X0009722Y0251030D02*
X0001896Y0251030D01*
X0001895Y0249431D02*
X0009723Y0249431D01*
X0009724Y0247833D02*
X0001895Y0247833D01*
X0001894Y0246234D02*
X0009725Y0246234D01*
X0009727Y0244636D02*
X0001893Y0244636D01*
X0001893Y0243037D02*
X0009728Y0243037D01*
X0009729Y0241439D02*
X0001892Y0241439D01*
X0001892Y0239840D02*
X0009730Y0239840D01*
X0009732Y0238242D02*
X0001891Y0238242D01*
X0001890Y0236643D02*
X0009733Y0236643D01*
X0009734Y0235045D02*
X0001890Y0235045D01*
X0001889Y0233446D02*
X0009735Y0233446D01*
X0009736Y0231848D02*
X0001888Y0231848D01*
X0001888Y0230249D02*
X0009738Y0230249D01*
X0009739Y0228651D02*
X0001887Y0228651D01*
X0001887Y0227052D02*
X0009740Y0227052D01*
X0009741Y0225454D02*
X0001886Y0225454D01*
X0001885Y0223855D02*
X0009743Y0223855D01*
X0009744Y0222257D02*
X0001885Y0222257D01*
X0001884Y0220658D02*
X0009745Y0220658D01*
X0009746Y0219060D02*
X0001884Y0219060D01*
X0001883Y0217461D02*
X0009747Y0217461D01*
X0009749Y0215863D02*
X0001882Y0215863D01*
X0023722Y0259022D02*
X0059785Y0259022D01*
X0061257Y0260621D02*
X0023722Y0260621D01*
X0023722Y0262219D02*
X0063569Y0262219D01*
X0071102Y0262219D02*
X0073569Y0262219D01*
X0081652Y0270212D02*
X0062843Y0270212D01*
X0063029Y0270306D02*
X0063806Y0270871D01*
X0064484Y0271550D01*
X0065049Y0272327D01*
X0065485Y0273182D01*
X0065781Y0274095D01*
X0065932Y0275044D01*
X0065932Y0275524D01*
X0065932Y0276004D01*
X0065781Y0276952D01*
X0065485Y0277865D01*
X0065049Y0278721D01*
X0064484Y0279498D01*
X0063806Y0280176D01*
X0063029Y0280741D01*
X0062173Y0281177D01*
X0061260Y0281473D01*
X0060312Y0281624D01*
X0055532Y0281624D01*
X0055532Y0275524D01*
X0055532Y0275524D01*
X0065932Y0275524D01*
X0055532Y0275524D01*
X0055532Y0275524D01*
X0055532Y0281624D01*
X0050752Y0281624D01*
X0049803Y0281473D01*
X0048890Y0281177D01*
X0048035Y0280741D01*
X0047258Y0280176D01*
X0046579Y0279498D01*
X0046014Y0278721D01*
X0045579Y0277865D01*
X0045282Y0276952D01*
X0045132Y0276004D01*
X0045132Y0275524D01*
X0055532Y0275524D01*
X0055138Y0275177D01*
X0055532Y0275008D02*
X0055532Y0275008D01*
X0055532Y0275523D02*
X0055532Y0269424D01*
X0060312Y0269424D01*
X0061260Y0269574D01*
X0062173Y0269871D01*
X0063029Y0270306D01*
X0064674Y0271811D02*
X0080054Y0271811D01*
X0078455Y0273409D02*
X0065559Y0273409D01*
X0065926Y0275008D02*
X0076857Y0275008D01*
X0075258Y0276606D02*
X0065836Y0276606D01*
X0065312Y0278205D02*
X0073660Y0278205D01*
X0072061Y0279803D02*
X0064179Y0279803D01*
X0062246Y0281402D02*
X0061481Y0281402D01*
X0060180Y0283000D02*
X0050883Y0283000D01*
X0051803Y0283920D02*
X0053132Y0286223D01*
X0053821Y0288792D01*
X0053821Y0300051D01*
X0053132Y0302620D01*
X0051803Y0304923D01*
X0049922Y0306803D01*
X0047619Y0308133D01*
X0045050Y0308821D01*
X0042391Y0308821D01*
X0039822Y0308133D01*
X0037519Y0306803D01*
X0035639Y0304923D01*
X0034309Y0302620D01*
X0033621Y0300051D01*
X0033621Y0288792D01*
X0034309Y0286223D01*
X0035639Y0283920D01*
X0037519Y0282039D01*
X0039822Y0280710D01*
X0042391Y0280021D01*
X0045050Y0280021D01*
X0047619Y0280710D01*
X0049922Y0282039D01*
X0051803Y0283920D01*
X0052195Y0284599D02*
X0058869Y0284599D01*
X0057946Y0286197D02*
X0053118Y0286197D01*
X0053554Y0287796D02*
X0057510Y0287796D01*
X0057243Y0289394D02*
X0053821Y0289394D01*
X0053821Y0290993D02*
X0057243Y0290993D01*
X0057243Y0292591D02*
X0053821Y0292591D01*
X0053821Y0294190D02*
X0057243Y0294190D01*
X0057243Y0295788D02*
X0053821Y0295788D01*
X0053821Y0297387D02*
X0057243Y0297387D01*
X0057243Y0298985D02*
X0053821Y0298985D01*
X0053678Y0300584D02*
X0057385Y0300584D01*
X0057814Y0302182D02*
X0053250Y0302182D01*
X0052462Y0303781D02*
X0058601Y0303781D01*
X0059717Y0305379D02*
X0051346Y0305379D01*
X0049620Y0306978D02*
X0061443Y0306978D01*
X0065099Y0308576D02*
X0045965Y0308576D01*
X0041477Y0308576D02*
X0025058Y0308576D01*
X0023722Y0306978D02*
X0037821Y0306978D01*
X0036095Y0305379D02*
X0023722Y0305379D01*
X0023722Y0303781D02*
X0034979Y0303781D01*
X0034192Y0302182D02*
X0023722Y0302182D01*
X0023722Y0300584D02*
X0033763Y0300584D01*
X0033621Y0298985D02*
X0023722Y0298985D01*
X0023722Y0297387D02*
X0033621Y0297387D01*
X0033621Y0295788D02*
X0023722Y0295788D01*
X0023722Y0294190D02*
X0033621Y0294190D01*
X0033621Y0292591D02*
X0023722Y0292591D01*
X0023722Y0290993D02*
X0033621Y0290993D01*
X0033621Y0289394D02*
X0023722Y0289394D01*
X0023722Y0287796D02*
X0033888Y0287796D01*
X0034324Y0286197D02*
X0023722Y0286197D01*
X0023722Y0284599D02*
X0035247Y0284599D01*
X0036558Y0283000D02*
X0023722Y0283000D01*
X0023722Y0281402D02*
X0038624Y0281402D01*
X0045752Y0278205D02*
X0023722Y0278205D01*
X0023722Y0279803D02*
X0046884Y0279803D01*
X0048818Y0281402D02*
X0049582Y0281402D01*
X0055532Y0281402D02*
X0055532Y0281402D01*
X0055532Y0279803D02*
X0055532Y0279803D01*
X0055532Y0278205D02*
X0055532Y0278205D01*
X0055532Y0276606D02*
X0055532Y0276606D01*
X0055532Y0275524D02*
X0055532Y0275524D01*
X0055532Y0275523D02*
X0055532Y0275523D01*
X0055532Y0269424D01*
X0050752Y0269424D01*
X0049803Y0269574D01*
X0048890Y0269871D01*
X0048035Y0270306D01*
X0047258Y0270871D01*
X0046579Y0271550D01*
X0046014Y0272327D01*
X0045579Y0273182D01*
X0045282Y0274095D01*
X0045132Y0275044D01*
X0045132Y0275524D01*
X0055532Y0275524D01*
X0055532Y0273409D02*
X0055532Y0273409D01*
X0055532Y0271811D02*
X0055532Y0271811D01*
X0055532Y0270212D02*
X0055532Y0270212D01*
X0048220Y0270212D02*
X0023722Y0270212D01*
X0023722Y0271811D02*
X0046389Y0271811D01*
X0045505Y0273409D02*
X0023722Y0273409D01*
X0023722Y0275008D02*
X0045137Y0275008D01*
X0045227Y0276606D02*
X0023722Y0276606D01*
X0026656Y0310175D02*
X0090659Y0310175D01*
X0090659Y0309424D02*
X0090659Y0307374D01*
X0093559Y0304474D01*
X0095609Y0304474D01*
X0095609Y0309424D01*
X0095609Y0309424D01*
X0090659Y0309424D01*
X0090659Y0308576D02*
X0069587Y0308576D01*
X0073242Y0306978D02*
X0091055Y0306978D01*
X0092653Y0305379D02*
X0074968Y0305379D01*
X0076084Y0303781D02*
X0110701Y0303781D01*
X0110461Y0305379D02*
X0098565Y0305379D01*
X0097659Y0304474D02*
X0100559Y0307374D01*
X0100559Y0309424D01*
X0095609Y0309424D01*
X0095609Y0309424D01*
X0095609Y0304474D01*
X0097659Y0304474D01*
X0095609Y0305379D02*
X0095609Y0305379D01*
X0095609Y0306978D02*
X0095609Y0306978D01*
X0095609Y0308576D02*
X0095609Y0308576D01*
X0100163Y0306978D02*
X0110461Y0306978D01*
X0110758Y0308576D02*
X0100559Y0308576D01*
X0100559Y0310175D02*
X0111420Y0310175D01*
X0112480Y0311773D02*
X0100526Y0311773D01*
X0095609Y0319424D02*
X0096094Y0319909D01*
X0098875Y0327758D02*
X0136757Y0327758D01*
X0136757Y0326160D02*
X0123355Y0326160D01*
X0124953Y0324561D02*
X0137012Y0324561D01*
X0137915Y0322963D02*
X0126552Y0322963D01*
X0128150Y0321364D02*
X0140831Y0321364D01*
X0141357Y0321364D02*
X0141757Y0321364D01*
X0141757Y0321309D02*
X0141934Y0321309D01*
X0142681Y0321427D01*
X0143399Y0321661D01*
X0144072Y0322004D01*
X0144684Y0322448D01*
X0145218Y0322982D01*
X0145662Y0323593D01*
X0146005Y0324267D01*
X0146238Y0324985D01*
X0146357Y0325731D01*
X0146357Y0328909D01*
X0141757Y0328909D01*
X0141757Y0321309D01*
X0142282Y0321364D02*
X0150831Y0321364D01*
X0151357Y0321364D02*
X0151757Y0321364D01*
X0151757Y0321309D02*
X0151934Y0321309D01*
X0152681Y0321427D01*
X0153399Y0321661D01*
X0154072Y0322004D01*
X0154684Y0322448D01*
X0155218Y0322982D01*
X0155662Y0323593D01*
X0156005Y0324267D01*
X0156238Y0324985D01*
X0156357Y0325731D01*
X0156357Y0328909D01*
X0151757Y0328909D01*
X0151757Y0321309D01*
X0152282Y0321364D02*
X0160831Y0321364D01*
X0161357Y0321364D02*
X0161757Y0321364D01*
X0161757Y0321309D02*
X0161934Y0321309D01*
X0162681Y0321427D01*
X0163399Y0321661D01*
X0164072Y0322004D01*
X0164684Y0322448D01*
X0165218Y0322982D01*
X0165662Y0323593D01*
X0166005Y0324267D01*
X0166238Y0324985D01*
X0166357Y0325731D01*
X0166357Y0328909D01*
X0161757Y0328909D01*
X0161757Y0321309D01*
X0162282Y0321364D02*
X0167898Y0321364D01*
X0166300Y0319766D02*
X0129058Y0319766D01*
X0141357Y0322963D02*
X0141757Y0322963D01*
X0141757Y0324561D02*
X0141357Y0324561D01*
X0141357Y0326160D02*
X0141757Y0326160D01*
X0141757Y0327758D02*
X0141357Y0327758D01*
X0146357Y0327758D02*
X0146757Y0327758D01*
X0146757Y0326160D02*
X0146357Y0326160D01*
X0146101Y0324561D02*
X0147012Y0324561D01*
X0147915Y0322963D02*
X0145198Y0322963D01*
X0151357Y0322963D02*
X0151757Y0322963D01*
X0151757Y0324561D02*
X0151357Y0324561D01*
X0151357Y0326160D02*
X0151757Y0326160D01*
X0151757Y0327758D02*
X0151357Y0327758D01*
X0146757Y0329357D02*
X0146357Y0329357D01*
X0146357Y0330955D02*
X0146757Y0330955D01*
X0146767Y0332554D02*
X0146346Y0332554D01*
X0136767Y0332554D02*
X0001927Y0332554D01*
X0001928Y0334152D02*
X0135681Y0334152D01*
X0134083Y0335751D02*
X0001928Y0335751D01*
X0001929Y0337349D02*
X0133268Y0337349D01*
X0132606Y0338948D02*
X0001930Y0338948D01*
X0001930Y0340547D02*
X0015900Y0340547D01*
X0014360Y0342145D02*
X0001931Y0342145D01*
X0001931Y0343744D02*
X0013698Y0343744D01*
X0013473Y0345342D02*
X0001932Y0345342D01*
X0001933Y0346941D02*
X0013473Y0346941D01*
X0013473Y0348539D02*
X0001933Y0348539D01*
X0001934Y0350138D02*
X0013473Y0350138D01*
X0013785Y0351736D02*
X0001935Y0351736D01*
X0001935Y0353335D02*
X0014510Y0353335D01*
X0016109Y0354933D02*
X0001936Y0354933D01*
X0001936Y0356532D02*
X0017708Y0356532D01*
X0001937Y0358130D02*
X0437215Y0358130D01*
X0437215Y0356532D02*
X0408849Y0356532D01*
X0410448Y0354933D02*
X0437215Y0354933D01*
X0437215Y0353335D02*
X0412046Y0353335D01*
X0413645Y0351736D02*
X0437215Y0351736D01*
X0437215Y0350138D02*
X0415243Y0350138D01*
X0416842Y0348539D02*
X0437215Y0348539D01*
X0437215Y0346941D02*
X0418440Y0346941D01*
X0420039Y0345342D02*
X0437215Y0345342D01*
X0437215Y0343744D02*
X0421637Y0343744D01*
X0423236Y0342145D02*
X0437215Y0342145D01*
X0437215Y0340547D02*
X0424834Y0340547D01*
X0425916Y0338948D02*
X0437215Y0338948D01*
X0437215Y0337349D02*
X0426578Y0337349D01*
X0426676Y0335751D02*
X0437215Y0335751D01*
X0437215Y0334152D02*
X0426676Y0334152D01*
X0426676Y0332554D02*
X0437215Y0332554D01*
X0437215Y0330955D02*
X0426676Y0330955D01*
X0426676Y0329357D02*
X0437215Y0329357D01*
X0437215Y0327758D02*
X0426676Y0327758D01*
X0426676Y0326160D02*
X0437215Y0326160D01*
X0437215Y0324561D02*
X0426676Y0324561D01*
X0426676Y0322963D02*
X0437215Y0322963D01*
X0437215Y0321364D02*
X0426676Y0321364D01*
X0426676Y0319766D02*
X0437215Y0319766D01*
X0437215Y0318167D02*
X0426676Y0318167D01*
X0426676Y0316569D02*
X0437215Y0316569D01*
X0437215Y0314970D02*
X0426676Y0314970D01*
X0426676Y0313372D02*
X0437215Y0313372D01*
X0437215Y0311773D02*
X0426676Y0311773D01*
X0426676Y0310175D02*
X0437215Y0310175D01*
X0437215Y0308576D02*
X0426676Y0308576D01*
X0426676Y0306978D02*
X0437215Y0306978D01*
X0437215Y0305379D02*
X0426676Y0305379D01*
X0426676Y0303781D02*
X0437215Y0303781D01*
X0437215Y0302182D02*
X0426676Y0302182D01*
X0426676Y0300584D02*
X0437215Y0300584D01*
X0437215Y0298985D02*
X0426676Y0298985D01*
X0426676Y0297387D02*
X0437215Y0297387D01*
X0437215Y0295788D02*
X0426676Y0295788D01*
X0426676Y0294190D02*
X0437215Y0294190D01*
X0437215Y0292591D02*
X0426676Y0292591D01*
X0426676Y0290993D02*
X0437215Y0290993D01*
X0437215Y0289394D02*
X0426676Y0289394D01*
X0426676Y0287796D02*
X0437215Y0287796D01*
X0437215Y0286197D02*
X0426676Y0286197D01*
X0426676Y0284599D02*
X0437215Y0284599D01*
X0437215Y0283000D02*
X0426676Y0283000D01*
X0426676Y0281402D02*
X0437215Y0281402D01*
X0437215Y0279803D02*
X0426676Y0279803D01*
X0427215Y0278205D02*
X0437215Y0278205D01*
X0437215Y0276606D02*
X0428362Y0276606D01*
X0428925Y0275008D02*
X0437215Y0275008D01*
X0437215Y0273409D02*
X0428925Y0273409D01*
X0429141Y0271811D02*
X0437215Y0271811D01*
X0437215Y0270212D02*
X0429141Y0270212D01*
X0429141Y0268613D02*
X0437215Y0268613D01*
X0437215Y0267015D02*
X0428925Y0267015D01*
X0428925Y0265416D02*
X0437215Y0265416D01*
X0437215Y0263818D02*
X0428479Y0263818D01*
X0427498Y0262219D02*
X0437215Y0262219D01*
X0437215Y0260621D02*
X0426676Y0260621D01*
X0426676Y0259022D02*
X0437215Y0259022D01*
X0437215Y0257424D02*
X0426676Y0257424D01*
X0426676Y0255825D02*
X0437215Y0255825D01*
X0437215Y0254227D02*
X0426676Y0254227D01*
X0426676Y0252628D02*
X0437215Y0252628D01*
X0437215Y0251030D02*
X0426676Y0251030D01*
X0426676Y0249431D02*
X0437215Y0249431D01*
X0437215Y0247833D02*
X0426676Y0247833D01*
X0426676Y0246234D02*
X0437215Y0246234D01*
X0437215Y0244636D02*
X0426676Y0244636D01*
X0426676Y0243037D02*
X0437215Y0243037D01*
X0437215Y0241439D02*
X0426676Y0241439D01*
X0426676Y0239840D02*
X0437215Y0239840D01*
X0437215Y0238242D02*
X0426676Y0238242D01*
X0426676Y0236643D02*
X0437215Y0236643D01*
X0437215Y0235045D02*
X0426676Y0235045D01*
X0426676Y0233446D02*
X0437215Y0233446D01*
X0437215Y0231848D02*
X0426676Y0231848D01*
X0426676Y0230249D02*
X0437215Y0230249D01*
X0437215Y0228651D02*
X0426676Y0228651D01*
X0426676Y0227052D02*
X0437215Y0227052D01*
X0437215Y0225454D02*
X0426676Y0225454D01*
X0426676Y0223855D02*
X0437215Y0223855D01*
X0437215Y0222257D02*
X0426676Y0222257D01*
X0426676Y0220658D02*
X0437215Y0220658D01*
X0437215Y0219060D02*
X0426676Y0219060D01*
X0426676Y0217461D02*
X0437215Y0217461D01*
X0437215Y0215863D02*
X0426676Y0215863D01*
X0426737Y0214264D02*
X0437215Y0214264D01*
X0437215Y0212666D02*
X0426737Y0212666D01*
X0426676Y0211067D02*
X0437215Y0211067D01*
X0437215Y0209469D02*
X0426676Y0209469D01*
X0426676Y0207870D02*
X0437215Y0207870D01*
X0437215Y0206272D02*
X0426676Y0206272D01*
X0426676Y0204673D02*
X0437215Y0204673D01*
X0437215Y0203075D02*
X0426676Y0203075D01*
X0426676Y0201476D02*
X0437215Y0201476D01*
X0437215Y0199878D02*
X0426676Y0199878D01*
X0426676Y0198279D02*
X0437215Y0198279D01*
X0437215Y0196680D02*
X0426675Y0196680D01*
X0426675Y0195082D02*
X0437215Y0195082D01*
X0437215Y0193483D02*
X0426675Y0193483D01*
X0426675Y0191885D02*
X0437215Y0191885D01*
X0437215Y0190286D02*
X0426675Y0190286D01*
X0426675Y0188688D02*
X0437215Y0188688D01*
X0437215Y0187089D02*
X0426675Y0187089D01*
X0426675Y0185491D02*
X0437215Y0185491D01*
X0437215Y0183892D02*
X0426675Y0183892D01*
X0426675Y0182294D02*
X0437215Y0182294D01*
X0437215Y0180695D02*
X0426675Y0180695D01*
X0426675Y0179097D02*
X0437215Y0179097D01*
X0437215Y0177498D02*
X0426675Y0177498D01*
X0426675Y0175900D02*
X0437215Y0175900D01*
X0437215Y0174301D02*
X0426675Y0174301D01*
X0426675Y0172703D02*
X0437215Y0172703D01*
X0437215Y0171104D02*
X0426675Y0171104D01*
X0426675Y0169506D02*
X0437215Y0169506D01*
X0437215Y0167907D02*
X0426675Y0167907D01*
X0426675Y0166309D02*
X0437215Y0166309D01*
X0437215Y0164710D02*
X0426675Y0164710D01*
X0426675Y0163112D02*
X0437215Y0163112D01*
X0437215Y0161513D02*
X0426675Y0161513D01*
X0426675Y0159915D02*
X0437215Y0159915D01*
X0437215Y0158316D02*
X0426675Y0158316D01*
X0426675Y0156718D02*
X0437215Y0156718D01*
X0437215Y0155119D02*
X0426675Y0155119D01*
X0426675Y0153521D02*
X0437215Y0153521D01*
X0437215Y0151922D02*
X0426675Y0151922D01*
X0426675Y0150324D02*
X0437215Y0150324D01*
X0437215Y0148725D02*
X0426675Y0148725D01*
X0426675Y0147127D02*
X0437215Y0147127D01*
X0437215Y0145528D02*
X0426675Y0145528D01*
X0426675Y0143930D02*
X0437215Y0143930D01*
X0437215Y0142331D02*
X0426675Y0142331D01*
X0426675Y0140733D02*
X0437215Y0140733D01*
X0437215Y0139134D02*
X0426675Y0139134D01*
X0426675Y0137536D02*
X0437215Y0137536D01*
X0437215Y0135937D02*
X0426675Y0135937D01*
X0426675Y0134339D02*
X0437215Y0134339D01*
X0437215Y0132740D02*
X0426675Y0132740D01*
X0426675Y0131142D02*
X0437215Y0131142D01*
X0437215Y0129543D02*
X0426675Y0129543D01*
X0426675Y0127945D02*
X0437215Y0127945D01*
X0437215Y0126346D02*
X0426675Y0126346D01*
X0426675Y0124747D02*
X0437215Y0124747D01*
X0437215Y0123149D02*
X0426675Y0123149D01*
X0426675Y0121550D02*
X0437215Y0121550D01*
X0437215Y0119952D02*
X0426675Y0119952D01*
X0426675Y0118353D02*
X0437215Y0118353D01*
X0437215Y0116755D02*
X0426675Y0116755D01*
X0426675Y0115156D02*
X0437215Y0115156D01*
X0437215Y0113558D02*
X0426675Y0113558D01*
X0426675Y0111959D02*
X0437215Y0111959D01*
X0437215Y0110361D02*
X0426675Y0110361D01*
X0426675Y0108762D02*
X0437215Y0108762D01*
X0437215Y0107164D02*
X0426675Y0107164D01*
X0426675Y0105565D02*
X0437215Y0105565D01*
X0437215Y0103967D02*
X0426675Y0103967D01*
X0426675Y0102368D02*
X0437215Y0102368D01*
X0437215Y0100770D02*
X0426675Y0100770D01*
X0426675Y0099171D02*
X0437215Y0099171D01*
X0437215Y0097573D02*
X0426675Y0097573D01*
X0426675Y0095974D02*
X0437215Y0095974D01*
X0437215Y0094376D02*
X0426675Y0094376D01*
X0426675Y0092777D02*
X0437215Y0092777D01*
X0437215Y0091179D02*
X0426675Y0091179D01*
X0426675Y0089580D02*
X0437215Y0089580D01*
X0437215Y0087982D02*
X0426675Y0087982D01*
X0426675Y0086383D02*
X0437215Y0086383D01*
X0437215Y0084785D02*
X0426675Y0084785D01*
X0426675Y0083186D02*
X0437215Y0083186D01*
X0437215Y0081588D02*
X0426675Y0081588D01*
X0426675Y0079989D02*
X0437215Y0079989D01*
X0437215Y0078391D02*
X0426675Y0078391D01*
X0426675Y0076792D02*
X0437215Y0076792D01*
X0437215Y0075194D02*
X0426675Y0075194D01*
X0426424Y0073595D02*
X0437215Y0073595D01*
X0437215Y0071997D02*
X0425762Y0071997D01*
X0424467Y0070398D02*
X0437215Y0070398D01*
X0437215Y0068800D02*
X0422868Y0068800D01*
X0421270Y0067201D02*
X0437215Y0067201D01*
X0437215Y0065603D02*
X0419671Y0065603D01*
X0418073Y0064004D02*
X0437215Y0064004D01*
X0437215Y0062406D02*
X0416474Y0062406D01*
X0413704Y0060807D02*
X0437215Y0060807D01*
X0437215Y0059209D02*
X0375332Y0059209D01*
X0374860Y0057610D02*
X0437215Y0057610D01*
X0437215Y0056011D02*
X0375851Y0056011D01*
X0376305Y0054413D02*
X0437215Y0054413D01*
X0437215Y0052814D02*
X0376305Y0052814D01*
X0376305Y0051216D02*
X0437215Y0051216D01*
X0437215Y0049617D02*
X0376305Y0049617D01*
X0376305Y0048019D02*
X0437215Y0048019D01*
X0437215Y0046420D02*
X0376305Y0046420D01*
X0376305Y0044822D02*
X0437215Y0044822D01*
X0437215Y0043223D02*
X0375749Y0043223D01*
X0374613Y0041625D02*
X0437215Y0041625D01*
X0437215Y0040026D02*
X0371917Y0040026D01*
X0361049Y0040026D02*
X0360150Y0040026D01*
X0360153Y0038428D02*
X0437215Y0038428D01*
X0437215Y0036829D02*
X0360156Y0036829D01*
X0360159Y0035231D02*
X0437215Y0035231D01*
X0437215Y0033632D02*
X0360162Y0033632D01*
X0360165Y0032034D02*
X0437215Y0032034D01*
X0437215Y0030435D02*
X0360168Y0030435D01*
X0360171Y0028837D02*
X0437215Y0028837D01*
X0437215Y0027238D02*
X0360173Y0027238D01*
X0360176Y0025640D02*
X0437215Y0025640D01*
X0437215Y0024041D02*
X0360179Y0024041D01*
X0360182Y0022443D02*
X0437215Y0022443D01*
X0437215Y0020844D02*
X0360185Y0020844D01*
X0360188Y0019246D02*
X0437215Y0019246D01*
X0437215Y0017647D02*
X0360191Y0017647D01*
X0359952Y0016049D02*
X0437215Y0016049D01*
X0437215Y0014450D02*
X0359142Y0014450D01*
X0357549Y0012852D02*
X0437215Y0012852D01*
X0437215Y0011253D02*
X0355343Y0011253D01*
X0353261Y0009655D02*
X0437215Y0009655D01*
X0437215Y0008056D02*
X0351180Y0008056D01*
X0349098Y0006458D02*
X0437215Y0006458D01*
X0437215Y0004859D02*
X0347017Y0004859D01*
X0345087Y0003261D02*
X0437215Y0003261D01*
X0366500Y0049836D02*
X0365864Y0050120D01*
X0365919Y0050020D01*
X0363458Y0169257D02*
X0390727Y0169257D01*
X0394934Y0173464D01*
X0394934Y0192701D01*
X0394925Y0193038D01*
X0394925Y0197820D01*
X0390977Y0201440D01*
X0370005Y0201440D01*
X0369031Y0200466D01*
X0369031Y0200007D01*
X0368572Y0199548D01*
X0368572Y0200425D01*
X0366685Y0201614D01*
X0366583Y0202914D02*
X0369031Y0200466D01*
X0366583Y0202914D02*
X0355571Y0202914D01*
X0351136Y0207350D01*
X0351136Y0207658D01*
X0349606Y0209187D01*
X0349606Y0229539D01*
X0356137Y0236070D01*
X0359457Y0236070D01*
X0359563Y0235963D01*
X0379739Y0235963D01*
X0383244Y0239468D01*
X0383244Y0255403D01*
X0377826Y0260820D01*
X0367952Y0260820D01*
X0366660Y0263609D01*
X0366787Y0270341D01*
X0351689Y0252257D02*
X0351689Y0299727D01*
X0357362Y0305399D01*
X0391116Y0270543D02*
X0393298Y0270310D01*
X0390413Y0270379D02*
X0390415Y0270487D01*
X0390421Y0270594D01*
X0390431Y0270702D01*
X0390445Y0270809D01*
X0390463Y0270915D01*
X0390484Y0271020D01*
X0390510Y0271125D01*
X0390540Y0271229D01*
X0390573Y0271331D01*
X0390610Y0271432D01*
X0390651Y0271532D01*
X0390695Y0271630D01*
X0390743Y0271727D01*
X0390795Y0271821D01*
X0390850Y0271914D01*
X0390908Y0272005D01*
X0390970Y0272093D01*
X0391035Y0272179D01*
X0391103Y0272263D01*
X0391174Y0272343D01*
X0391248Y0272422D01*
X0391325Y0272497D01*
X0391405Y0272570D01*
X0391487Y0272639D01*
X0391572Y0272706D01*
X0391659Y0272769D01*
X0391748Y0272829D01*
X0391840Y0272886D01*
X0391934Y0272939D01*
X0392029Y0272989D01*
X0392127Y0273036D01*
X0392226Y0273078D01*
X0392326Y0273117D01*
X0392428Y0273152D01*
X0392531Y0273184D01*
X0392635Y0273211D01*
X0392740Y0273235D01*
X0392846Y0273255D01*
X0392953Y0273271D01*
X0393060Y0273283D01*
X0393167Y0273291D01*
X0393275Y0273295D01*
X0393383Y0273295D01*
X0393491Y0273291D01*
X0393598Y0273283D01*
X0393705Y0273271D01*
X0393812Y0273255D01*
X0393918Y0273235D01*
X0394023Y0273211D01*
X0394127Y0273184D01*
X0394230Y0273152D01*
X0394332Y0273117D01*
X0394432Y0273078D01*
X0394531Y0273036D01*
X0394629Y0272989D01*
X0394724Y0272939D01*
X0394818Y0272886D01*
X0394910Y0272829D01*
X0394999Y0272769D01*
X0395086Y0272706D01*
X0395171Y0272639D01*
X0395253Y0272570D01*
X0395333Y0272497D01*
X0395410Y0272422D01*
X0395484Y0272343D01*
X0395555Y0272263D01*
X0395623Y0272179D01*
X0395688Y0272093D01*
X0395750Y0272005D01*
X0395808Y0271914D01*
X0395863Y0271821D01*
X0395915Y0271727D01*
X0395963Y0271630D01*
X0396007Y0271532D01*
X0396048Y0271432D01*
X0396085Y0271331D01*
X0396118Y0271229D01*
X0396148Y0271125D01*
X0396174Y0271020D01*
X0396195Y0270915D01*
X0396213Y0270809D01*
X0396227Y0270702D01*
X0396237Y0270594D01*
X0396243Y0270487D01*
X0396245Y0270379D01*
X0396243Y0270271D01*
X0396237Y0270164D01*
X0396227Y0270056D01*
X0396213Y0269949D01*
X0396195Y0269843D01*
X0396174Y0269738D01*
X0396148Y0269633D01*
X0396118Y0269529D01*
X0396085Y0269427D01*
X0396048Y0269326D01*
X0396007Y0269226D01*
X0395963Y0269128D01*
X0395915Y0269031D01*
X0395863Y0268937D01*
X0395808Y0268844D01*
X0395750Y0268753D01*
X0395688Y0268665D01*
X0395623Y0268579D01*
X0395555Y0268495D01*
X0395484Y0268415D01*
X0395410Y0268336D01*
X0395333Y0268261D01*
X0395253Y0268188D01*
X0395171Y0268119D01*
X0395086Y0268052D01*
X0394999Y0267989D01*
X0394910Y0267929D01*
X0394818Y0267872D01*
X0394724Y0267819D01*
X0394629Y0267769D01*
X0394531Y0267722D01*
X0394432Y0267680D01*
X0394332Y0267641D01*
X0394230Y0267606D01*
X0394127Y0267574D01*
X0394023Y0267547D01*
X0393918Y0267523D01*
X0393812Y0267503D01*
X0393705Y0267487D01*
X0393598Y0267475D01*
X0393491Y0267467D01*
X0393383Y0267463D01*
X0393275Y0267463D01*
X0393167Y0267467D01*
X0393060Y0267475D01*
X0392953Y0267487D01*
X0392846Y0267503D01*
X0392740Y0267523D01*
X0392635Y0267547D01*
X0392531Y0267574D01*
X0392428Y0267606D01*
X0392326Y0267641D01*
X0392226Y0267680D01*
X0392127Y0267722D01*
X0392029Y0267769D01*
X0391934Y0267819D01*
X0391840Y0267872D01*
X0391748Y0267929D01*
X0391659Y0267989D01*
X0391572Y0268052D01*
X0391487Y0268119D01*
X0391405Y0268188D01*
X0391325Y0268261D01*
X0391248Y0268336D01*
X0391174Y0268415D01*
X0391103Y0268495D01*
X0391035Y0268579D01*
X0390970Y0268665D01*
X0390908Y0268753D01*
X0390850Y0268844D01*
X0390795Y0268937D01*
X0390743Y0269031D01*
X0390695Y0269128D01*
X0390651Y0269226D01*
X0390610Y0269326D01*
X0390573Y0269427D01*
X0390540Y0269529D01*
X0390510Y0269633D01*
X0390484Y0269738D01*
X0390463Y0269843D01*
X0390445Y0269949D01*
X0390431Y0270056D01*
X0390421Y0270164D01*
X0390415Y0270271D01*
X0390413Y0270379D01*
X0366685Y0248614D02*
X0355333Y0248614D01*
X0351689Y0252257D01*
X0415507Y0269952D02*
X0415509Y0270072D01*
X0415515Y0270191D01*
X0415525Y0270311D01*
X0415539Y0270430D01*
X0415557Y0270548D01*
X0415578Y0270666D01*
X0415604Y0270783D01*
X0415634Y0270899D01*
X0415667Y0271014D01*
X0415704Y0271128D01*
X0415745Y0271241D01*
X0415790Y0271352D01*
X0415838Y0271462D01*
X0415890Y0271569D01*
X0415946Y0271676D01*
X0416005Y0271780D01*
X0416067Y0271882D01*
X0416133Y0271982D01*
X0416202Y0272080D01*
X0416275Y0272176D01*
X0416350Y0272269D01*
X0416429Y0272359D01*
X0416510Y0272447D01*
X0416595Y0272532D01*
X0416682Y0272614D01*
X0416772Y0272693D01*
X0416864Y0272770D01*
X0416959Y0272843D01*
X0417056Y0272913D01*
X0417156Y0272979D01*
X0417257Y0273043D01*
X0417361Y0273103D01*
X0417467Y0273159D01*
X0417574Y0273212D01*
X0417684Y0273261D01*
X0417794Y0273307D01*
X0417907Y0273349D01*
X0418020Y0273387D01*
X0418135Y0273421D01*
X0418251Y0273452D01*
X0418368Y0273478D01*
X0418485Y0273501D01*
X0418603Y0273520D01*
X0418722Y0273535D01*
X0418842Y0273546D01*
X0418961Y0273553D01*
X0419081Y0273556D01*
X0419201Y0273555D01*
X0419321Y0273550D01*
X0419440Y0273541D01*
X0419559Y0273528D01*
X0419678Y0273511D01*
X0419796Y0273490D01*
X0419913Y0273466D01*
X0420029Y0273437D01*
X0420145Y0273405D01*
X0420259Y0273368D01*
X0420372Y0273328D01*
X0420483Y0273285D01*
X0420593Y0273237D01*
X0420702Y0273186D01*
X0420808Y0273131D01*
X0420913Y0273073D01*
X0421016Y0273012D01*
X0421116Y0272947D01*
X0421215Y0272878D01*
X0421311Y0272807D01*
X0421405Y0272732D01*
X0421496Y0272654D01*
X0421584Y0272573D01*
X0421670Y0272490D01*
X0421753Y0272403D01*
X0421833Y0272314D01*
X0421910Y0272222D01*
X0421984Y0272128D01*
X0422055Y0272031D01*
X0422122Y0271932D01*
X0422186Y0271831D01*
X0422247Y0271728D01*
X0422304Y0271623D01*
X0422358Y0271516D01*
X0422408Y0271407D01*
X0422455Y0271297D01*
X0422498Y0271185D01*
X0422537Y0271071D01*
X0422572Y0270957D01*
X0422604Y0270841D01*
X0422631Y0270725D01*
X0422655Y0270607D01*
X0422675Y0270489D01*
X0422691Y0270370D01*
X0422703Y0270251D01*
X0422711Y0270132D01*
X0422715Y0270012D01*
X0422715Y0269892D01*
X0422711Y0269772D01*
X0422703Y0269653D01*
X0422691Y0269534D01*
X0422675Y0269415D01*
X0422655Y0269297D01*
X0422631Y0269179D01*
X0422604Y0269063D01*
X0422572Y0268947D01*
X0422537Y0268833D01*
X0422498Y0268719D01*
X0422455Y0268607D01*
X0422408Y0268497D01*
X0422358Y0268388D01*
X0422304Y0268281D01*
X0422247Y0268176D01*
X0422186Y0268073D01*
X0422122Y0267972D01*
X0422055Y0267873D01*
X0421984Y0267776D01*
X0421910Y0267682D01*
X0421833Y0267590D01*
X0421753Y0267501D01*
X0421670Y0267414D01*
X0421584Y0267331D01*
X0421496Y0267250D01*
X0421405Y0267172D01*
X0421311Y0267097D01*
X0421215Y0267026D01*
X0421116Y0266957D01*
X0421016Y0266892D01*
X0420913Y0266831D01*
X0420808Y0266773D01*
X0420702Y0266718D01*
X0420593Y0266667D01*
X0420483Y0266619D01*
X0420372Y0266576D01*
X0420259Y0266536D01*
X0420145Y0266499D01*
X0420029Y0266467D01*
X0419913Y0266438D01*
X0419796Y0266414D01*
X0419678Y0266393D01*
X0419559Y0266376D01*
X0419440Y0266363D01*
X0419321Y0266354D01*
X0419201Y0266349D01*
X0419081Y0266348D01*
X0418961Y0266351D01*
X0418842Y0266358D01*
X0418722Y0266369D01*
X0418603Y0266384D01*
X0418485Y0266403D01*
X0418368Y0266426D01*
X0418251Y0266452D01*
X0418135Y0266483D01*
X0418020Y0266517D01*
X0417907Y0266555D01*
X0417794Y0266597D01*
X0417684Y0266643D01*
X0417574Y0266692D01*
X0417467Y0266745D01*
X0417361Y0266801D01*
X0417257Y0266861D01*
X0417156Y0266925D01*
X0417056Y0266991D01*
X0416959Y0267061D01*
X0416864Y0267134D01*
X0416772Y0267211D01*
X0416682Y0267290D01*
X0416595Y0267372D01*
X0416510Y0267457D01*
X0416429Y0267545D01*
X0416350Y0267635D01*
X0416275Y0267728D01*
X0416202Y0267824D01*
X0416133Y0267922D01*
X0416067Y0268022D01*
X0416005Y0268124D01*
X0415946Y0268228D01*
X0415890Y0268335D01*
X0415838Y0268442D01*
X0415790Y0268552D01*
X0415745Y0268663D01*
X0415704Y0268776D01*
X0415667Y0268890D01*
X0415634Y0269005D01*
X0415604Y0269121D01*
X0415578Y0269238D01*
X0415557Y0269356D01*
X0415539Y0269474D01*
X0415525Y0269593D01*
X0415515Y0269713D01*
X0415509Y0269832D01*
X0415507Y0269952D01*
X0419104Y0270071D02*
X0419394Y0269977D01*
X0419522Y0269850D01*
X0419337Y0213415D02*
X0419522Y0213230D01*
X0419522Y0203762D02*
X0419634Y0203087D01*
X0288308Y0295788D02*
X0287693Y0295788D01*
X0288278Y0297387D02*
X0284249Y0297387D01*
X0284874Y0300584D02*
X0288217Y0300584D01*
X0288187Y0302182D02*
X0286473Y0302182D01*
X0288071Y0303781D02*
X0288157Y0303781D01*
X0288248Y0298985D02*
X0278551Y0298985D01*
X0280241Y0297387D02*
X0273337Y0297387D01*
X0271740Y0295788D02*
X0276797Y0295788D01*
X0275198Y0294190D02*
X0268722Y0294190D01*
X0266121Y0310934D02*
X0252522Y0310934D01*
X0246278Y0316569D02*
X0235996Y0316569D01*
X0236000Y0318167D02*
X0247876Y0318167D01*
X0249043Y0319334D02*
X0244122Y0314413D01*
X0244122Y0307455D01*
X0244268Y0307309D01*
X0242579Y0307304D01*
X0241350Y0307331D01*
X0241269Y0307299D01*
X0241182Y0307299D01*
X0240048Y0306825D01*
X0238903Y0306380D01*
X0238840Y0306320D01*
X0238760Y0306286D01*
X0237894Y0305414D01*
X0237006Y0304565D01*
X0236971Y0304485D01*
X0236909Y0304423D01*
X0236443Y0303286D01*
X0235960Y0302190D01*
X0236024Y0327535D01*
X0245215Y0333703D01*
X0283835Y0333540D01*
X0280450Y0330155D01*
X0278594Y0328299D01*
X0277589Y0325873D01*
X0277589Y0318201D01*
X0275450Y0320340D01*
X0273627Y0320340D01*
X0271805Y0320340D01*
X0270205Y0318741D01*
X0269606Y0319340D01*
X0262648Y0319340D01*
X0260841Y0317534D01*
X0257802Y0317534D01*
X0256002Y0319334D01*
X0249043Y0319334D01*
X0244679Y0314970D02*
X0235992Y0314970D01*
X0235988Y0313372D02*
X0244122Y0313372D01*
X0244122Y0311773D02*
X0235984Y0311773D01*
X0235980Y0310175D02*
X0244122Y0310175D01*
X0244122Y0308576D02*
X0235976Y0308576D01*
X0235972Y0306978D02*
X0240414Y0306978D01*
X0237857Y0305379D02*
X0235968Y0305379D01*
X0235964Y0303781D02*
X0236646Y0303781D01*
X0236004Y0319766D02*
X0271230Y0319766D01*
X0273627Y0319766D02*
X0273627Y0319766D01*
X0273627Y0320340D02*
X0273627Y0315940D01*
X0273627Y0323057D01*
X0273700Y0323130D01*
X0260588Y0323130D01*
X0257992Y0325726D01*
X0257168Y0318167D02*
X0261475Y0318167D01*
X0266127Y0310940D02*
X0266121Y0310934D01*
X0273627Y0315940D02*
X0273627Y0315940D01*
X0273627Y0320340D01*
X0273627Y0318167D02*
X0273627Y0318167D01*
X0273627Y0316569D02*
X0273627Y0316569D01*
X0276024Y0319766D02*
X0277589Y0319766D01*
X0277589Y0321364D02*
X0236008Y0321364D01*
X0236012Y0322963D02*
X0277589Y0322963D01*
X0277589Y0324561D02*
X0236016Y0324561D01*
X0236020Y0326160D02*
X0277708Y0326160D01*
X0278370Y0327758D02*
X0236357Y0327758D01*
X0238739Y0329357D02*
X0279652Y0329357D01*
X0281250Y0330955D02*
X0241121Y0330955D01*
X0243502Y0332554D02*
X0282849Y0332554D01*
X0222816Y0324561D02*
X0200721Y0324561D01*
X0200721Y0322963D02*
X0222812Y0322963D01*
X0222808Y0321364D02*
X0200721Y0321364D01*
X0193321Y0315928D02*
X0193158Y0316092D01*
X0185921Y0324561D02*
X0185173Y0324561D01*
X0185173Y0326160D02*
X0185921Y0326160D01*
X0185921Y0327758D02*
X0185173Y0327758D01*
X0185173Y0329357D02*
X0185921Y0329357D01*
X0185921Y0330955D02*
X0185173Y0330955D01*
X0185173Y0332554D02*
X0185921Y0332554D01*
X0185921Y0334152D02*
X0185173Y0334152D01*
X0185173Y0335751D02*
X0185921Y0335751D01*
X0185921Y0337349D02*
X0185173Y0337349D01*
X0185173Y0338948D02*
X0186532Y0338948D01*
X0187401Y0340547D02*
X0185173Y0340547D01*
X0184717Y0342145D02*
X0189000Y0342145D01*
X0190598Y0343744D02*
X0184055Y0343744D01*
X0182468Y0345342D02*
X0192197Y0345342D01*
X0193795Y0346941D02*
X0180870Y0346941D01*
X0179271Y0348539D02*
X0195394Y0348539D01*
X0196992Y0350138D02*
X0177673Y0350138D01*
X0174584Y0351736D02*
X0198591Y0351736D01*
X0170373Y0335751D02*
X0168481Y0335751D01*
X0166883Y0334152D02*
X0170373Y0334152D01*
X0170373Y0332554D02*
X0166346Y0332554D01*
X0166357Y0330955D02*
X0170373Y0330955D01*
X0170373Y0329357D02*
X0166357Y0329357D01*
X0166357Y0327758D02*
X0170373Y0327758D01*
X0170373Y0326160D02*
X0166357Y0326160D01*
X0166101Y0324561D02*
X0170373Y0324561D01*
X0170373Y0322963D02*
X0165198Y0322963D01*
X0161757Y0322963D02*
X0161357Y0322963D01*
X0161357Y0324561D02*
X0161757Y0324561D01*
X0161757Y0326160D02*
X0161357Y0326160D01*
X0161357Y0327758D02*
X0161757Y0327758D01*
X0156757Y0327758D02*
X0156357Y0327758D01*
X0156357Y0326160D02*
X0156757Y0326160D01*
X0157012Y0324561D02*
X0156101Y0324561D01*
X0155198Y0322963D02*
X0157915Y0322963D01*
X0156757Y0329357D02*
X0156357Y0329357D01*
X0156357Y0330955D02*
X0156757Y0330955D01*
X0156767Y0332554D02*
X0156346Y0332554D01*
X0161282Y0343997D02*
X0151282Y0343997D01*
X0141282Y0343997D01*
X0145118Y0354933D02*
X0147446Y0354933D01*
X0155118Y0354933D02*
X0157446Y0354933D01*
X0122261Y0306110D02*
X0122267Y0306104D01*
X0113941Y0298985D02*
X0077443Y0298985D01*
X0077443Y0297387D02*
X0095414Y0297387D01*
X0093565Y0295788D02*
X0077443Y0295788D01*
X0077474Y0294190D02*
X0087623Y0294190D01*
X0086025Y0292591D02*
X0079072Y0292591D01*
X0080671Y0290993D02*
X0085105Y0290993D01*
X0085105Y0289394D02*
X0082269Y0289394D01*
X0083868Y0287796D02*
X0085105Y0287796D01*
X0085466Y0286197D02*
X0086480Y0286197D01*
X0087065Y0284599D02*
X0092449Y0284599D01*
X0094020Y0283000D02*
X0088663Y0283000D01*
X0090055Y0286197D02*
X0090055Y0286197D01*
X0090055Y0287796D02*
X0090055Y0287796D01*
X0090055Y0289394D02*
X0090055Y0289394D01*
X0090055Y0290993D02*
X0090055Y0290993D01*
X0090055Y0292591D02*
X0090055Y0292591D01*
X0090055Y0294190D02*
X0090055Y0294190D01*
X0077300Y0300584D02*
X0112342Y0300584D01*
X0111363Y0302182D02*
X0076872Y0302182D01*
X0089004Y0313372D02*
X0029853Y0313372D01*
X0031452Y0314970D02*
X0087766Y0314970D01*
X0090692Y0311773D02*
X0028255Y0311773D01*
X0030170Y0339400D02*
X0030170Y0339400D01*
X0030170Y0339400D01*
X0049001Y0340547D02*
X0050276Y0340547D01*
X0066189Y0340547D02*
X0067464Y0340547D01*
X0077437Y0339400D02*
X0077437Y0339400D01*
X0077437Y0339400D01*
X0077437Y0358006D02*
X0077437Y0358006D01*
X0067136Y0356532D02*
X0066517Y0356532D01*
X0049948Y0356532D02*
X0049329Y0356532D01*
X0001938Y0359729D02*
X0437215Y0359729D01*
X0437215Y0361327D02*
X0001938Y0361327D01*
X0001939Y0362926D02*
X0437215Y0362926D01*
X0277313Y0267379D02*
X0274719Y0269973D01*
X0114852Y0294190D02*
X0107851Y0294190D01*
X0106546Y0295788D02*
X0114461Y0295788D01*
X0114629Y0297387D02*
X0104697Y0297387D01*
X0035635Y0158316D02*
X0023793Y0158316D01*
X0023794Y0156718D02*
X0035635Y0156718D01*
X0037104Y0155119D02*
X0023795Y0155119D01*
X0023796Y0153521D02*
X0038703Y0153521D01*
X0040301Y0151922D02*
X0023798Y0151922D01*
X0023799Y0150324D02*
X0059385Y0150324D01*
X0059420Y0151922D02*
X0047769Y0151922D01*
X0049367Y0153521D02*
X0060082Y0153521D01*
X0059385Y0148725D02*
X0023800Y0148725D01*
X0023801Y0147127D02*
X0059385Y0147127D01*
X0059385Y0145528D02*
X0023803Y0145528D01*
X0023804Y0143930D02*
X0059385Y0143930D01*
X0059785Y0142331D02*
X0023805Y0142331D01*
X0023806Y0140733D02*
X0058973Y0140733D01*
X0057374Y0139134D02*
X0023808Y0139134D01*
X0023809Y0137536D02*
X0039624Y0137536D01*
X0038025Y0135937D02*
X0023810Y0135937D01*
X0023811Y0134339D02*
X0036427Y0134339D01*
X0035635Y0132740D02*
X0023812Y0132740D01*
X0023814Y0131142D02*
X0035635Y0131142D01*
X0035635Y0129543D02*
X0023815Y0129543D01*
X0023816Y0127945D02*
X0035635Y0127945D01*
X0035878Y0126346D02*
X0023817Y0126346D01*
X0023819Y0124747D02*
X0036635Y0124747D01*
X0036635Y0123149D02*
X0023820Y0123149D01*
X0023821Y0121550D02*
X0036635Y0121550D01*
X0036635Y0119952D02*
X0023822Y0119952D01*
X0023823Y0118353D02*
X0036635Y0118353D01*
X0036635Y0116755D02*
X0023825Y0116755D01*
X0023826Y0115156D02*
X0036635Y0115156D01*
X0036635Y0113558D02*
X0023827Y0113558D01*
X0023828Y0111959D02*
X0036635Y0111959D01*
X0036635Y0110361D02*
X0023830Y0110361D01*
X0023831Y0108762D02*
X0036635Y0108762D01*
X0036635Y0107164D02*
X0023832Y0107164D01*
X0023833Y0105565D02*
X0036635Y0105565D01*
X0036635Y0103967D02*
X0023834Y0103967D01*
X0023836Y0102368D02*
X0036635Y0102368D01*
X0036635Y0100770D02*
X0023837Y0100770D01*
X0023838Y0099171D02*
X0036635Y0099171D01*
X0036635Y0097573D02*
X0023839Y0097573D01*
X0023841Y0095974D02*
X0036635Y0095974D01*
X0036635Y0094376D02*
X0023842Y0094376D01*
X0023843Y0092777D02*
X0035998Y0092777D01*
X0034399Y0091179D02*
X0023844Y0091179D01*
X0023845Y0089580D02*
X0033303Y0089580D01*
X0032641Y0087982D02*
X0023847Y0087982D01*
X0023848Y0086383D02*
X0032532Y0086383D01*
X0032532Y0084785D02*
X0023849Y0084785D01*
X0023850Y0083186D02*
X0032532Y0083186D01*
X0032532Y0081588D02*
X0023852Y0081588D01*
X0023853Y0079989D02*
X0031167Y0079989D01*
X0029944Y0078391D02*
X0023854Y0078391D01*
X0023855Y0076792D02*
X0029282Y0076792D01*
X0028870Y0075194D02*
X0023857Y0075194D01*
X0023858Y0073595D02*
X0028870Y0073595D01*
X0028870Y0071997D02*
X0023859Y0071997D01*
X0023860Y0070398D02*
X0028870Y0070398D01*
X0028870Y0068800D02*
X0023861Y0068800D01*
X0023863Y0067201D02*
X0028870Y0067201D01*
X0029158Y0065603D02*
X0023864Y0065603D01*
X0023865Y0064004D02*
X0029820Y0064004D01*
X0030867Y0062406D02*
X0023866Y0062406D01*
X0023868Y0060807D02*
X0032466Y0060807D01*
X0023869Y0059209D02*
X0050773Y0059209D01*
X0050759Y0060807D02*
X0042875Y0060807D01*
X0044473Y0062406D02*
X0050745Y0062406D01*
X0047870Y0064004D02*
X0047470Y0064004D01*
X0047470Y0065603D02*
X0047870Y0065603D01*
X0047870Y0067201D02*
X0047470Y0067201D01*
X0047470Y0068800D02*
X0047870Y0068800D01*
X0047870Y0070398D02*
X0047470Y0070398D01*
X0047470Y0071248D02*
X0047470Y0078848D01*
X0047332Y0078848D01*
X0047332Y0083181D01*
X0050309Y0086158D01*
X0051435Y0088878D01*
X0051435Y0122757D01*
X0060334Y0122757D01*
X0061615Y0123288D01*
X0061615Y0114372D01*
X0060360Y0113117D01*
X0059020Y0109882D01*
X0059020Y0100382D01*
X0060270Y0097363D01*
X0060270Y0082496D01*
X0059421Y0082848D01*
X0055920Y0082848D01*
X0052686Y0081508D01*
X0050210Y0079032D01*
X0049905Y0078296D01*
X0049513Y0078496D01*
X0048794Y0078729D01*
X0048048Y0078848D01*
X0047870Y0078848D01*
X0047870Y0071248D01*
X0047470Y0071248D01*
X0047470Y0071997D02*
X0047870Y0071997D01*
X0047870Y0073595D02*
X0047470Y0073595D01*
X0047470Y0075194D02*
X0047870Y0075194D01*
X0047870Y0076792D02*
X0047470Y0076792D01*
X0047470Y0078391D02*
X0047870Y0078391D01*
X0047332Y0079989D02*
X0051167Y0079989D01*
X0049944Y0078391D02*
X0049720Y0078391D01*
X0047332Y0081588D02*
X0052878Y0081588D01*
X0048936Y0084785D02*
X0060270Y0084785D01*
X0060270Y0086383D02*
X0050402Y0086383D01*
X0051064Y0087982D02*
X0060270Y0087982D01*
X0060270Y0089580D02*
X0051435Y0089580D01*
X0051435Y0091179D02*
X0060270Y0091179D01*
X0060270Y0092777D02*
X0051435Y0092777D01*
X0051435Y0094376D02*
X0060270Y0094376D01*
X0060270Y0095974D02*
X0051435Y0095974D01*
X0051435Y0097573D02*
X0060184Y0097573D01*
X0059521Y0099171D02*
X0051435Y0099171D01*
X0051435Y0100770D02*
X0059020Y0100770D01*
X0059020Y0102368D02*
X0051435Y0102368D01*
X0051435Y0103967D02*
X0059020Y0103967D01*
X0059020Y0105565D02*
X0051435Y0105565D01*
X0051435Y0107164D02*
X0059020Y0107164D01*
X0059020Y0108762D02*
X0051435Y0108762D01*
X0051435Y0110361D02*
X0059218Y0110361D01*
X0059880Y0111959D02*
X0051435Y0111959D01*
X0051435Y0113558D02*
X0060801Y0113558D01*
X0061615Y0115156D02*
X0051435Y0115156D01*
X0051435Y0116755D02*
X0061615Y0116755D01*
X0061615Y0118353D02*
X0051435Y0118353D01*
X0051435Y0119952D02*
X0061615Y0119952D01*
X0061615Y0121550D02*
X0051435Y0121550D01*
X0061281Y0123149D02*
X0061615Y0123149D01*
X0060270Y0083186D02*
X0047337Y0083186D01*
X0050787Y0057610D02*
X0023870Y0057610D01*
X0023871Y0056011D02*
X0050801Y0056011D01*
X0050815Y0054413D02*
X0023872Y0054413D01*
X0024609Y0052814D02*
X0050829Y0052814D01*
X0050843Y0051216D02*
X0025959Y0051216D01*
X0027310Y0049617D02*
X0050857Y0049617D01*
X0050871Y0048019D02*
X0028660Y0048019D01*
X0030010Y0046420D02*
X0050884Y0046420D01*
X0050898Y0044822D02*
X0031361Y0044822D01*
X0057876Y0025194D02*
X0057876Y0025194D01*
X0057876Y0025194D01*
X0064904Y0024041D02*
X0065059Y0024041D01*
X0083064Y0028837D02*
X0001810Y0028837D01*
X0001810Y0027238D02*
X0084568Y0027238D01*
X0094225Y0025640D02*
X0096958Y0025640D01*
X0104225Y0025640D02*
X0106958Y0025640D01*
X0070767Y0006588D02*
X0070767Y0006588D01*
X0017400Y0021481D02*
X0017400Y0021481D01*
X0017400Y0021481D01*
X0017400Y0021481D01*
X0170939Y0052814D02*
X0171339Y0052814D01*
X0171339Y0054413D02*
X0170939Y0054413D01*
X0170939Y0056011D02*
X0171339Y0056011D01*
X0171339Y0057610D02*
X0170939Y0057610D01*
X0170939Y0060807D02*
X0171339Y0060807D01*
X0171339Y0062406D02*
X0170939Y0062406D01*
X0170939Y0064004D02*
X0171339Y0064004D01*
X0171339Y0065603D02*
X0170939Y0065603D01*
D11*
X0081629Y0019094D02*
X0081629Y0014823D01*
X0079494Y0012688D01*
X0077358Y0014823D01*
X0077358Y0019094D01*
X0075183Y0019094D02*
X0075183Y0013756D01*
X0074116Y0012688D01*
X0071980Y0012688D01*
X0070913Y0013756D01*
X0070913Y0019094D01*
X0068738Y0019094D02*
X0068738Y0012688D01*
X0064467Y0012688D01*
X0062292Y0013756D02*
X0061225Y0012688D01*
X0059090Y0012688D01*
X0058022Y0013756D01*
X0055847Y0012688D02*
X0055847Y0016958D01*
X0053712Y0019094D01*
X0051576Y0016958D01*
X0051576Y0012688D01*
X0049401Y0012688D02*
X0049401Y0019094D01*
X0045131Y0012688D01*
X0045131Y0019094D01*
X0051576Y0015891D02*
X0055847Y0015891D01*
X0058022Y0018026D02*
X0059090Y0019094D01*
X0061225Y0019094D01*
X0062292Y0018026D01*
X0062292Y0013756D01*
X0036510Y0012688D02*
X0032240Y0016958D01*
X0032240Y0018026D01*
X0033308Y0019094D01*
X0035443Y0019094D01*
X0036510Y0018026D01*
X0036510Y0012688D02*
X0032240Y0012688D01*
X0030065Y0012688D02*
X0028997Y0012688D01*
X0028997Y0013756D01*
X0030065Y0013756D01*
X0030065Y0012688D01*
X0026842Y0013756D02*
X0022572Y0018026D01*
X0022572Y0013756D01*
X0023639Y0012688D01*
X0025774Y0012688D01*
X0026842Y0013756D01*
X0026842Y0018026D01*
X0025774Y0019094D01*
X0023639Y0019094D01*
X0022572Y0018026D01*
X0023843Y0345500D02*
X0023843Y0349771D01*
X0021708Y0351906D01*
X0019573Y0349771D01*
X0019573Y0345500D01*
X0019573Y0348703D02*
X0023843Y0348703D01*
X0026005Y0345500D02*
X0028140Y0345500D01*
X0027073Y0345500D02*
X0027073Y0351906D01*
X0028140Y0351906D02*
X0026005Y0351906D01*
X0030316Y0350838D02*
X0031383Y0351906D01*
X0034586Y0351906D01*
X0034586Y0345500D01*
X0031383Y0345500D01*
X0030316Y0346568D01*
X0030316Y0350838D01*
X0036761Y0351906D02*
X0036761Y0345500D01*
X0041031Y0351906D01*
X0041031Y0345500D01*
X0043193Y0345500D02*
X0045328Y0345500D01*
X0044261Y0345500D02*
X0044261Y0351906D01*
X0045328Y0351906D02*
X0043193Y0351906D01*
X0053949Y0351906D02*
X0053949Y0345500D01*
X0058219Y0351906D01*
X0058219Y0345500D01*
X0060381Y0345500D02*
X0062516Y0345500D01*
X0061449Y0345500D02*
X0061449Y0351906D01*
X0062516Y0351906D02*
X0060381Y0351906D01*
X0071137Y0351906D02*
X0075407Y0351906D01*
X0075407Y0345500D01*
X0071137Y0345500D01*
X0073272Y0348703D02*
X0075407Y0348703D01*
X0077583Y0346568D02*
X0077583Y0350838D01*
X0078650Y0351906D01*
X0081853Y0351906D01*
X0081853Y0345500D01*
X0078650Y0345500D01*
X0077583Y0346568D01*
X0084028Y0345500D02*
X0084028Y0349771D01*
X0086163Y0351906D01*
X0088298Y0349771D01*
X0088298Y0345500D01*
X0090474Y0345500D02*
X0090474Y0351906D01*
X0092609Y0349771D01*
X0094744Y0351906D01*
X0094744Y0345500D01*
X0088298Y0348703D02*
X0084028Y0348703D01*
D12*
X0212522Y0310934D03*
X0252522Y0310934D03*
X0266127Y0310940D03*
X0273627Y0305940D03*
X0273627Y0315940D03*
X0277313Y0255685D03*
X0269813Y0250685D03*
X0277313Y0245685D03*
X0257838Y0250070D03*
X0217838Y0250070D03*
X0217695Y0175979D03*
X0257695Y0175979D03*
X0266204Y0165230D03*
X0273704Y0170230D03*
X0273704Y0160230D03*
X0272900Y0117320D03*
X0265400Y0112320D03*
X0272900Y0107320D03*
X0257092Y0092630D03*
X0217092Y0092630D03*
X0137926Y0118641D03*
X0127926Y0118641D03*
X0130670Y0097671D03*
X0120670Y0097671D03*
X0044035Y0130068D03*
X0044035Y0160068D03*
D13*
X0067785Y0150168D02*
X0067785Y0144968D01*
X0077785Y0144968D02*
X0077785Y0150168D01*
X0087785Y0150168D02*
X0087785Y0144968D01*
X0097785Y0144968D02*
X0097785Y0150168D01*
X0107785Y0150168D02*
X0107785Y0144968D01*
X0117785Y0144968D02*
X0117785Y0150168D01*
X0127785Y0150168D02*
X0127785Y0144968D01*
X0137785Y0144968D02*
X0137785Y0150168D01*
X0147785Y0150168D02*
X0147785Y0144968D01*
X0157785Y0144968D02*
X0157785Y0150168D01*
X0167785Y0150168D02*
X0167785Y0144968D01*
X0177785Y0144968D02*
X0177785Y0150168D01*
X0187785Y0150168D02*
X0187785Y0144968D01*
X0197785Y0144968D02*
X0197785Y0150168D01*
X0197785Y0174968D02*
X0197785Y0180168D01*
X0187785Y0180168D02*
X0187785Y0174968D01*
X0177785Y0174968D02*
X0177785Y0180168D01*
X0167785Y0180168D02*
X0167785Y0174968D01*
X0157785Y0174968D02*
X0157785Y0180168D01*
X0147785Y0180168D02*
X0147785Y0174968D01*
X0137785Y0174968D02*
X0137785Y0180168D01*
X0127785Y0180168D02*
X0127785Y0174968D01*
X0117785Y0174968D02*
X0117785Y0180168D01*
X0107785Y0180168D02*
X0107785Y0174968D01*
X0097785Y0174968D02*
X0097785Y0180168D01*
X0087785Y0180168D02*
X0087785Y0174968D01*
X0077785Y0174968D02*
X0077785Y0180168D01*
X0067785Y0180168D02*
X0067785Y0174968D01*
D14*
X0147928Y0101020D03*
X0147928Y0082020D03*
D15*
X0059832Y0275524D02*
X0051232Y0275524D01*
X0043721Y0290121D02*
X0043721Y0298721D01*
X0067343Y0298721D02*
X0067343Y0290121D01*
D16*
X0067335Y0254254D02*
X0067335Y0248254D01*
X0077335Y0248254D02*
X0077335Y0254254D01*
X0087335Y0254254D02*
X0087335Y0248254D01*
X0097335Y0248254D02*
X0097335Y0254254D01*
X0107335Y0254254D02*
X0107335Y0248254D01*
X0117335Y0248254D02*
X0117335Y0254254D01*
X0117243Y0227644D02*
X0117243Y0221644D01*
X0107243Y0221644D02*
X0107243Y0227644D01*
X0097243Y0227644D02*
X0097243Y0221644D01*
X0087243Y0221644D02*
X0087243Y0227644D01*
X0077243Y0227644D02*
X0077243Y0221644D01*
X0067243Y0221644D02*
X0067243Y0227644D01*
X0067770Y0202038D02*
X0067770Y0196038D01*
X0077770Y0196038D02*
X0077770Y0202038D01*
X0087770Y0202038D02*
X0087770Y0196038D01*
X0097770Y0196038D02*
X0097770Y0202038D01*
X0107770Y0202038D02*
X0107770Y0196038D01*
X0117770Y0196038D02*
X0117770Y0202038D01*
X0157722Y0202561D02*
X0157722Y0196561D01*
X0167722Y0196561D02*
X0167722Y0202561D01*
X0177722Y0202561D02*
X0177722Y0196561D01*
X0187722Y0196561D02*
X0187722Y0202561D01*
X0197722Y0202561D02*
X0197722Y0196561D01*
X0197402Y0221491D02*
X0197402Y0227491D01*
X0187402Y0227491D02*
X0187402Y0221491D01*
X0177402Y0221491D02*
X0177402Y0227491D01*
X0167402Y0227491D02*
X0167402Y0221491D01*
X0157402Y0221491D02*
X0157402Y0227491D01*
X0156778Y0248384D02*
X0156778Y0254384D01*
X0166778Y0254384D02*
X0166778Y0248384D01*
X0176778Y0248384D02*
X0176778Y0254384D01*
X0186778Y0254384D02*
X0186778Y0248384D01*
X0196778Y0248384D02*
X0196778Y0254384D01*
X0164747Y0285588D02*
X0158747Y0285588D01*
X0158747Y0295588D02*
X0164747Y0295588D01*
X0164747Y0305588D02*
X0158747Y0305588D01*
X0161557Y0326109D02*
X0161557Y0332109D01*
X0151557Y0332109D02*
X0151557Y0326109D01*
X0141557Y0326109D02*
X0141557Y0332109D01*
X0141282Y0340997D02*
X0141282Y0346997D01*
X0151282Y0346997D02*
X0151282Y0340997D01*
X0161282Y0340997D02*
X0161282Y0346997D01*
X0125261Y0306110D02*
X0119261Y0306110D01*
X0119261Y0296110D02*
X0125261Y0296110D01*
X0125261Y0286110D02*
X0119261Y0286110D01*
X0077820Y0108132D02*
X0077820Y0102132D01*
X0067820Y0102132D02*
X0067820Y0108132D01*
X0092269Y0085141D02*
X0092269Y0079141D01*
X0102269Y0079141D02*
X0102269Y0085141D01*
X0112269Y0085141D02*
X0112269Y0079141D01*
X0111494Y0063121D02*
X0111494Y0057121D01*
X0101494Y0057121D02*
X0101494Y0063121D01*
X0091494Y0063121D02*
X0091494Y0057121D01*
X0077670Y0068048D02*
X0077670Y0074048D01*
X0067670Y0074048D02*
X0067670Y0068048D01*
X0057670Y0068048D02*
X0057670Y0074048D01*
X0047670Y0074048D02*
X0047670Y0068048D01*
X0037670Y0068048D02*
X0037670Y0074048D01*
X0090591Y0039660D02*
X0090591Y0033660D01*
X0100591Y0033660D02*
X0100591Y0039660D01*
X0110591Y0039660D02*
X0110591Y0033660D01*
X0171139Y0056301D02*
X0171139Y0062301D01*
X0181139Y0062301D02*
X0181139Y0056301D01*
X0191139Y0056301D02*
X0191139Y0062301D01*
X0201139Y0062301D02*
X0201139Y0056301D01*
X0201630Y0038523D02*
X0201630Y0032523D01*
X0191630Y0032523D02*
X0191630Y0038523D01*
X0181630Y0038523D02*
X0181630Y0032523D01*
X0171630Y0032523D02*
X0171630Y0038523D01*
X0170572Y0081057D02*
X0170572Y0087057D01*
X0180572Y0087057D02*
X0180572Y0081057D01*
X0190572Y0081057D02*
X0190572Y0087057D01*
X0200572Y0087057D02*
X0200572Y0081057D01*
D17*
X0197823Y0284363D03*
X0193321Y0305928D03*
X0095609Y0309424D03*
X0090055Y0289622D03*
D18*
X0100055Y0289622D03*
X0095609Y0319424D03*
X0187823Y0284363D03*
X0193321Y0315928D03*
D19*
X0314887Y0317341D02*
X0322687Y0317341D01*
X0362887Y0317341D02*
X0370687Y0317341D01*
X0370887Y0293841D02*
X0378687Y0293841D01*
X0370687Y0270341D02*
X0362887Y0270341D01*
X0362785Y0248614D02*
X0370585Y0248614D01*
X0370785Y0225114D02*
X0378585Y0225114D01*
X0370585Y0201614D02*
X0362785Y0201614D01*
X0362868Y0181812D02*
X0370668Y0181812D01*
X0370868Y0158312D02*
X0378668Y0158312D01*
X0370668Y0134812D02*
X0362868Y0134812D01*
X0363105Y0114874D02*
X0370905Y0114874D01*
X0371105Y0091374D02*
X0378905Y0091374D01*
X0370905Y0067874D02*
X0363105Y0067874D01*
X0322905Y0067874D02*
X0315105Y0067874D01*
X0315105Y0114874D02*
X0322905Y0114874D01*
X0322668Y0134812D02*
X0314868Y0134812D01*
X0314868Y0181812D02*
X0322668Y0181812D01*
X0322585Y0201614D02*
X0314785Y0201614D01*
X0314785Y0248614D02*
X0322585Y0248614D01*
X0322687Y0270341D02*
X0314887Y0270341D01*
D20*
X0282245Y0288367D03*
X0242245Y0288367D03*
X0259304Y0232702D03*
X0259304Y0192702D03*
X0244024Y0143184D03*
X0284024Y0143184D03*
X0248847Y0077282D03*
X0248847Y0037282D03*
D21*
X0303000Y0030504D03*
X0316780Y0030504D03*
X0409971Y0115755D03*
X0409971Y0129535D03*
X0412934Y0234490D03*
X0412934Y0248269D03*
D22*
X0277313Y0245685D02*
X0277313Y0235316D01*
X0273662Y0231666D01*
X0259279Y0231666D01*
X0259304Y0232702D01*
X0257838Y0250070D02*
X0269198Y0250070D01*
X0269813Y0250685D01*
X0208732Y0212330D02*
X0208732Y0307144D01*
X0209143Y0307554D01*
X0212522Y0310934D01*
X0208732Y0307144D02*
X0208513Y0306925D01*
X0186194Y0285991D02*
X0187823Y0284363D01*
X0186194Y0285991D02*
X0161747Y0285588D01*
X0169162Y0286110D01*
X0122261Y0286110D01*
X0121917Y0286454D01*
X0101388Y0286454D01*
X0100055Y0287787D01*
X0100055Y0289622D01*
X0090055Y0289622D02*
X0090055Y0290936D01*
X0067302Y0313689D01*
X0032868Y0313689D01*
X0028062Y0308884D01*
X0016722Y0310140D02*
X0029463Y0322882D01*
X0092151Y0322882D01*
X0095609Y0319424D01*
X0095609Y0309424D02*
X0110103Y0309424D01*
X0113022Y0306506D01*
X0113022Y0297995D01*
X0115524Y0295492D01*
X0121644Y0295492D01*
X0122261Y0296110D01*
X0169162Y0296110D01*
X0161747Y0295588D01*
X0122261Y0286110D02*
X0118283Y0286110D01*
X0106891Y0274717D01*
X0087046Y0274717D01*
X0067343Y0294421D01*
X0055532Y0275524D02*
X0045283Y0265275D01*
X0040615Y0265275D01*
X0016786Y0251254D02*
X0016722Y0251191D01*
X0016722Y0310140D01*
X0016786Y0251254D02*
X0117335Y0251254D01*
X0090055Y0289622D02*
X0090055Y0303870D01*
X0095609Y0309424D01*
X0016722Y0251191D02*
X0016875Y0051122D01*
X0028692Y0037133D01*
X0056769Y0036949D01*
X0058437Y0037097D01*
X0057967Y0036913D01*
X0057670Y0071048D01*
X0047670Y0071048D02*
X0047670Y0052587D01*
X0043703Y0048619D01*
X0032672Y0048619D01*
X0027913Y0062112D01*
X0058437Y0037097D02*
X0059824Y0037016D01*
X0090591Y0036660D01*
X0100591Y0036660D01*
X0101194Y0037262D01*
X0108023Y0037262D01*
X0109762Y0035523D01*
X0171630Y0035523D01*
X0172431Y0034722D01*
X0179682Y0034722D01*
X0180483Y0035523D01*
X0191630Y0035523D01*
X0201630Y0035523D01*
X0200572Y0084057D02*
X0200536Y0084093D01*
X0200536Y0129759D01*
X0197785Y0132510D01*
X0197785Y0147568D01*
X0197971Y0147753D01*
X0187785Y0147568D02*
X0187785Y0123464D01*
X0191016Y0120234D01*
X0191016Y0084500D01*
X0190572Y0084057D01*
X0180891Y0084375D02*
X0180572Y0084057D01*
X0180891Y0084375D02*
X0180891Y0112825D01*
X0177785Y0115931D01*
X0177785Y0147568D01*
X0167785Y0147568D02*
X0167785Y0106130D01*
X0170615Y0103300D01*
X0170615Y0084099D01*
X0170572Y0084057D01*
X0147928Y0101020D02*
X0148285Y0118818D01*
X0148285Y0147568D01*
X0147785Y0147568D01*
X0137785Y0147568D02*
X0137785Y0132568D01*
X0135285Y0130068D01*
X0129035Y0130068D01*
X0128049Y0130388D01*
X0127926Y0118641D01*
X0121020Y0118789D01*
X0120960Y0114066D01*
X0120670Y0097671D01*
X0187785Y0177568D02*
X0187722Y0177631D01*
X0187722Y0199561D01*
X0187722Y0208570D01*
X0189885Y0210732D01*
X0207135Y0210732D01*
X0208732Y0212330D01*
X0198110Y0199949D02*
X0197722Y0199561D01*
X0197722Y0177631D01*
X0197785Y0177568D01*
X0257239Y0108037D02*
X0265400Y0112320D01*
X0257239Y0108037D02*
X0257092Y0092630D01*
D23*
X0272900Y0117320D02*
X0272900Y0125520D01*
X0272892Y0125528D01*
X0296500Y0122647D02*
X0296500Y0175700D01*
X0302544Y0181744D01*
X0319399Y0181744D01*
X0318768Y0181812D01*
X0302996Y0181928D01*
X0296568Y0189119D01*
X0296610Y0249084D01*
X0299410Y0248418D01*
X0319312Y0248685D01*
X0318685Y0248614D01*
X0299523Y0248562D01*
X0296615Y0248082D01*
X0295383Y0313004D01*
X0299851Y0317471D01*
X0316905Y0317471D01*
X0318787Y0317341D01*
X0287142Y0287630D02*
X0287142Y0213300D01*
X0286808Y0212785D01*
X0318685Y0201614D02*
X0333377Y0201614D01*
X0341595Y0209831D01*
X0341595Y0265809D01*
X0336792Y0270612D01*
X0317046Y0270612D01*
X0318787Y0270341D01*
X0287142Y0287630D02*
X0286404Y0288367D01*
X0282245Y0288367D01*
X0274719Y0269973D02*
X0273623Y0268878D01*
X0263673Y0268878D01*
X0263440Y0268646D01*
X0251275Y0268543D01*
X0217838Y0250070D02*
X0217838Y0208989D01*
X0208549Y0199700D01*
X0197861Y0199700D01*
X0197722Y0199561D01*
X0177722Y0199561D02*
X0177722Y0177631D01*
X0177785Y0177568D01*
X0167785Y0177568D02*
X0167785Y0199497D01*
X0167722Y0199561D01*
X0157722Y0199561D02*
X0157722Y0177631D01*
X0157785Y0177568D01*
X0148193Y0177976D02*
X0147785Y0177568D01*
X0148193Y0177976D02*
X0148193Y0191938D01*
X0146331Y0193800D01*
X0146259Y0193800D01*
X0138105Y0201954D01*
X0138104Y0201954D01*
X0138104Y0251254D01*
X0117335Y0251254D01*
X0156778Y0251254D01*
X0156778Y0251384D01*
X0166778Y0251384D01*
X0176778Y0251384D01*
X0186778Y0251384D01*
X0196778Y0251384D01*
X0189841Y0268339D02*
X0189841Y0269666D01*
X0197195Y0277020D01*
X0197823Y0284363D02*
X0198968Y0285507D01*
X0198968Y0305456D01*
X0193287Y0315894D02*
X0193321Y0315928D01*
X0193321Y0336001D01*
X0207693Y0350373D01*
X0404543Y0350373D01*
X0419276Y0335639D01*
X0419276Y0198712D01*
X0419275Y0198710D01*
X0419275Y0075671D01*
X0411512Y0067909D01*
X0367040Y0067909D01*
X0367005Y0067874D01*
X0367271Y0067747D01*
X0366500Y0049836D01*
X0366483Y0049741D02*
X0366073Y0049973D01*
X0365919Y0050020D01*
X0334459Y0070590D02*
X0331920Y0068234D01*
X0319106Y0067975D01*
X0319005Y0067874D01*
X0319005Y0046756D01*
X0318717Y0040727D01*
X0316653Y0031757D01*
X0316711Y0030810D01*
X0303290Y0029915D02*
X0297287Y0042883D01*
X0296700Y0107647D01*
X0303928Y0114874D01*
X0319005Y0114874D01*
X0304274Y0114874D01*
X0296500Y0122647D01*
X0318768Y0134812D02*
X0331486Y0134928D01*
X0341130Y0144573D01*
X0341130Y0195201D01*
X0334396Y0201935D01*
X0319705Y0201935D01*
X0318685Y0201614D01*
X0266204Y0165230D02*
X0257695Y0175979D01*
X0217695Y0175979D02*
X0217695Y0155903D01*
X0209478Y0147686D01*
X0197903Y0147686D01*
X0197785Y0147568D01*
X0157785Y0147568D02*
X0157785Y0084244D01*
X0155473Y0081931D01*
X0148017Y0081931D01*
X0147928Y0082020D01*
X0147928Y0082425D01*
X0130670Y0097671D01*
X0139035Y0118818D02*
X0148285Y0118818D01*
X0190572Y0084057D02*
X0190843Y0083786D01*
X0190843Y0074095D01*
X0193186Y0071752D01*
X0210649Y0071752D01*
X0217092Y0078195D01*
X0217092Y0092630D01*
X0268312Y0049458D02*
X0268563Y0039075D01*
X0255029Y0038026D01*
X0248657Y0037523D01*
X0248847Y0037282D01*
X0334459Y0070590D02*
X0334522Y0125300D01*
X0334559Y0134876D01*
X0318768Y0134812D01*
X0374768Y0158312D02*
X0403052Y0158026D01*
X0409355Y0153741D01*
X0409968Y0129397D01*
X0409749Y0130133D01*
X0410328Y0115924D02*
X0410586Y0100485D01*
X0404910Y0092175D01*
X0375183Y0091196D01*
X0375005Y0091374D01*
X0404797Y0213415D02*
X0419337Y0213415D01*
X0412873Y0225512D02*
X0398126Y0225171D01*
X0374214Y0225171D01*
X0373408Y0224365D01*
X0406123Y0248146D02*
X0413587Y0247827D01*
X0406123Y0248146D02*
X0405545Y0284201D01*
X0396332Y0294043D01*
X0374787Y0293841D01*
X0366787Y0270341D02*
X0393298Y0270341D01*
X0393298Y0270310D01*
X0413058Y0234898D02*
X0412873Y0225512D01*
X0193287Y0315894D02*
X0177625Y0315894D01*
X0177773Y0316042D01*
X0177773Y0339572D01*
X0172936Y0344409D01*
X0141694Y0344409D01*
X0141282Y0343997D01*
X0119141Y0319909D02*
X0122296Y0316754D01*
X0122296Y0306144D01*
X0122261Y0306110D01*
X0119141Y0319909D02*
X0096094Y0319909D01*
X0161747Y0305588D02*
X0169281Y0312282D01*
X0172893Y0315894D01*
X0177625Y0315894D01*
X0168145Y0268531D02*
X0168745Y0267931D01*
X0188105Y0267931D01*
X0169281Y0251384D02*
X0166778Y0251384D01*
X0166778Y0250835D01*
X0169281Y0250835D01*
X0169281Y0251384D01*
X0117335Y0251254D02*
X0067335Y0251254D01*
X0067243Y0224644D02*
X0117243Y0224644D01*
X0117770Y0199038D02*
X0117770Y0177583D01*
X0117785Y0177568D01*
X0107785Y0177568D02*
X0107785Y0199023D01*
X0107770Y0199038D01*
X0097785Y0199023D02*
X0097770Y0199038D01*
X0097785Y0199023D02*
X0097785Y0177568D01*
X0087785Y0177568D02*
X0087785Y0199023D01*
X0087770Y0199038D01*
X0077785Y0199023D02*
X0077770Y0199038D01*
X0077785Y0199023D02*
X0077785Y0177568D01*
X0067785Y0177568D02*
X0067770Y0177583D01*
X0067770Y0199038D01*
X0067785Y0147568D02*
X0067785Y0139080D01*
X0058863Y0130157D01*
X0044124Y0130157D01*
X0044035Y0130068D01*
X0044035Y0090349D01*
X0039932Y0086246D01*
X0039932Y0073309D01*
X0037670Y0071048D01*
X0067670Y0071048D02*
X0067670Y0104982D01*
X0067820Y0105132D01*
X0069015Y0106327D01*
X0069015Y0127592D01*
X0070221Y0128798D01*
X0070352Y0128798D01*
X0077785Y0136231D01*
X0077785Y0147568D01*
X0087785Y0147568D02*
X0087785Y0130178D01*
X0078255Y0120647D01*
X0078255Y0105566D01*
X0077820Y0105132D01*
X0077670Y0104982D01*
X0077670Y0071048D01*
X0044035Y0130068D02*
X0044035Y0130085D01*
D24*
X0126968Y0212631D03*
X0149459Y0212643D03*
X0271934Y0182481D03*
D25*
X0237294Y0186863D03*
X0286808Y0212785D03*
X0251275Y0268543D03*
X0189841Y0268339D03*
X0213568Y0325644D03*
X0257992Y0325726D03*
X0393298Y0270310D03*
X0419104Y0270071D03*
X0262922Y0128378D03*
X0223155Y0128295D03*
X0268312Y0049458D03*
X0366483Y0049741D03*
D26*
X0127785Y0177568D02*
X0127080Y0212558D01*
X0127180Y0212311D01*
X0045027Y0215265D01*
X0043947Y0214186D01*
X0040902Y0214186D01*
X0040597Y0214491D01*
D27*
X0040597Y0214491D03*
X0040615Y0265275D03*
X0243943Y0143175D03*
X0284067Y0143251D03*
X0248861Y0077317D03*
D28*
X0404797Y0213415D03*
M02*
