G75*
%MOIN*%
%OFA0B0*%
%FSLAX25Y25*%
%IPPOS*%
%LPD*%
%AMOC8*
5,1,8,0,0,1.08239X$1,22.5*
%
%ADD10C,0.00600*%
%ADD11C,0.00500*%
%ADD12R,0.03000X0.42000*%
%ADD13R,0.02000X0.07500*%
%ADD14R,0.02000X0.03000*%
%ADD15C,0.01000*%
D10*
X0296005Y0058874D02*
X0385005Y0058874D01*
X0385005Y0123874D01*
X0296005Y0123874D01*
X0296005Y0058874D01*
X0319005Y0076574D02*
X0319005Y0088874D01*
X0321505Y0091374D02*
X0347505Y0091374D01*
X0350005Y0093874D02*
X0360005Y0088874D01*
X0360005Y0093874D01*
X0362505Y0091374D02*
X0366505Y0091374D01*
X0355005Y0088874D02*
X0355005Y0067874D01*
X0357505Y0067874D01*
X0355005Y0093874D02*
X0355005Y0114874D01*
X0357505Y0114874D01*
X0357268Y0134812D02*
X0354768Y0134812D01*
X0354768Y0155812D01*
X0354768Y0160812D02*
X0354768Y0181812D01*
X0357268Y0181812D01*
X0357185Y0201614D02*
X0354685Y0201614D01*
X0354685Y0222614D01*
X0359685Y0222614D02*
X0349685Y0227614D01*
X0347185Y0225114D02*
X0321185Y0225114D01*
X0318685Y0227614D02*
X0318685Y0239814D01*
X0318685Y0222614D02*
X0318685Y0210314D01*
X0295685Y0192614D02*
X0384685Y0192614D01*
X0384685Y0257614D01*
X0295685Y0257614D01*
X0295685Y0192614D01*
X0295768Y0190812D02*
X0295768Y0125812D01*
X0384768Y0125812D01*
X0384768Y0190812D01*
X0295768Y0190812D01*
X0318768Y0173012D02*
X0318768Y0160812D01*
X0321268Y0158312D02*
X0347268Y0158312D01*
X0349768Y0160812D02*
X0359768Y0155812D01*
X0359768Y0160812D01*
X0362268Y0158312D02*
X0366268Y0158312D01*
X0318768Y0155812D02*
X0318768Y0143512D01*
X0319005Y0106074D02*
X0319005Y0093874D01*
X0359685Y0222614D02*
X0359685Y0227614D01*
X0362185Y0225114D02*
X0366185Y0225114D01*
X0354685Y0227614D02*
X0354685Y0248614D01*
X0357185Y0248614D01*
X0357287Y0270341D02*
X0354787Y0270341D01*
X0354787Y0291341D01*
X0359787Y0291341D02*
X0349787Y0296341D01*
X0347287Y0293841D02*
X0321287Y0293841D01*
X0318787Y0291341D02*
X0318787Y0279041D01*
X0318787Y0296341D02*
X0318787Y0308541D01*
X0295787Y0326341D02*
X0295787Y0261341D01*
X0384787Y0261341D01*
X0384787Y0326341D01*
X0295787Y0326341D01*
X0354787Y0317341D02*
X0354787Y0296341D01*
X0359787Y0296341D02*
X0359787Y0291341D01*
X0362287Y0293841D02*
X0366287Y0293841D01*
X0357287Y0317341D02*
X0354787Y0317341D01*
X0084609Y0314424D02*
X0084612Y0314694D01*
X0084622Y0314964D01*
X0084639Y0315233D01*
X0084662Y0315502D01*
X0084692Y0315771D01*
X0084728Y0316038D01*
X0084771Y0316305D01*
X0084820Y0316570D01*
X0084876Y0316834D01*
X0084939Y0317097D01*
X0085007Y0317358D01*
X0085083Y0317617D01*
X0085164Y0317874D01*
X0085252Y0318130D01*
X0085346Y0318383D01*
X0085446Y0318634D01*
X0085553Y0318882D01*
X0085665Y0319127D01*
X0085784Y0319370D01*
X0085908Y0319609D01*
X0086038Y0319846D01*
X0086174Y0320079D01*
X0086316Y0320309D01*
X0086463Y0320535D01*
X0086616Y0320758D01*
X0086774Y0320977D01*
X0086937Y0321192D01*
X0087106Y0321402D01*
X0087280Y0321609D01*
X0087459Y0321811D01*
X0087642Y0322009D01*
X0087831Y0322202D01*
X0088024Y0322391D01*
X0088222Y0322574D01*
X0088424Y0322753D01*
X0088631Y0322927D01*
X0088841Y0323096D01*
X0089056Y0323259D01*
X0089275Y0323417D01*
X0089498Y0323570D01*
X0089724Y0323717D01*
X0089954Y0323859D01*
X0090187Y0323995D01*
X0090424Y0324125D01*
X0090663Y0324249D01*
X0090906Y0324368D01*
X0091151Y0324480D01*
X0091399Y0324587D01*
X0091650Y0324687D01*
X0091903Y0324781D01*
X0092159Y0324869D01*
X0092416Y0324950D01*
X0092675Y0325026D01*
X0092936Y0325094D01*
X0093199Y0325157D01*
X0093463Y0325213D01*
X0093728Y0325262D01*
X0093995Y0325305D01*
X0094262Y0325341D01*
X0094531Y0325371D01*
X0094800Y0325394D01*
X0095069Y0325411D01*
X0095339Y0325421D01*
X0095609Y0325424D01*
X0095879Y0325421D01*
X0096149Y0325411D01*
X0096418Y0325394D01*
X0096687Y0325371D01*
X0096956Y0325341D01*
X0097223Y0325305D01*
X0097490Y0325262D01*
X0097755Y0325213D01*
X0098019Y0325157D01*
X0098282Y0325094D01*
X0098543Y0325026D01*
X0098802Y0324950D01*
X0099059Y0324869D01*
X0099315Y0324781D01*
X0099568Y0324687D01*
X0099819Y0324587D01*
X0100067Y0324480D01*
X0100312Y0324368D01*
X0100555Y0324249D01*
X0100794Y0324125D01*
X0101031Y0323995D01*
X0101264Y0323859D01*
X0101494Y0323717D01*
X0101720Y0323570D01*
X0101943Y0323417D01*
X0102162Y0323259D01*
X0102377Y0323096D01*
X0102587Y0322927D01*
X0102794Y0322753D01*
X0102996Y0322574D01*
X0103194Y0322391D01*
X0103387Y0322202D01*
X0103576Y0322009D01*
X0103759Y0321811D01*
X0103938Y0321609D01*
X0104112Y0321402D01*
X0104281Y0321192D01*
X0104444Y0320977D01*
X0104602Y0320758D01*
X0104755Y0320535D01*
X0104902Y0320309D01*
X0105044Y0320079D01*
X0105180Y0319846D01*
X0105310Y0319609D01*
X0105434Y0319370D01*
X0105553Y0319127D01*
X0105665Y0318882D01*
X0105772Y0318634D01*
X0105872Y0318383D01*
X0105966Y0318130D01*
X0106054Y0317874D01*
X0106135Y0317617D01*
X0106211Y0317358D01*
X0106279Y0317097D01*
X0106342Y0316834D01*
X0106398Y0316570D01*
X0106447Y0316305D01*
X0106490Y0316038D01*
X0106526Y0315771D01*
X0106556Y0315502D01*
X0106579Y0315233D01*
X0106596Y0314964D01*
X0106606Y0314694D01*
X0106609Y0314424D01*
X0106606Y0314154D01*
X0106596Y0313884D01*
X0106579Y0313615D01*
X0106556Y0313346D01*
X0106526Y0313077D01*
X0106490Y0312810D01*
X0106447Y0312543D01*
X0106398Y0312278D01*
X0106342Y0312014D01*
X0106279Y0311751D01*
X0106211Y0311490D01*
X0106135Y0311231D01*
X0106054Y0310974D01*
X0105966Y0310718D01*
X0105872Y0310465D01*
X0105772Y0310214D01*
X0105665Y0309966D01*
X0105553Y0309721D01*
X0105434Y0309478D01*
X0105310Y0309239D01*
X0105180Y0309002D01*
X0105044Y0308769D01*
X0104902Y0308539D01*
X0104755Y0308313D01*
X0104602Y0308090D01*
X0104444Y0307871D01*
X0104281Y0307656D01*
X0104112Y0307446D01*
X0103938Y0307239D01*
X0103759Y0307037D01*
X0103576Y0306839D01*
X0103387Y0306646D01*
X0103194Y0306457D01*
X0102996Y0306274D01*
X0102794Y0306095D01*
X0102587Y0305921D01*
X0102377Y0305752D01*
X0102162Y0305589D01*
X0101943Y0305431D01*
X0101720Y0305278D01*
X0101494Y0305131D01*
X0101264Y0304989D01*
X0101031Y0304853D01*
X0100794Y0304723D01*
X0100555Y0304599D01*
X0100312Y0304480D01*
X0100067Y0304368D01*
X0099819Y0304261D01*
X0099568Y0304161D01*
X0099315Y0304067D01*
X0099059Y0303979D01*
X0098802Y0303898D01*
X0098543Y0303822D01*
X0098282Y0303754D01*
X0098019Y0303691D01*
X0097755Y0303635D01*
X0097490Y0303586D01*
X0097223Y0303543D01*
X0096956Y0303507D01*
X0096687Y0303477D01*
X0096418Y0303454D01*
X0096149Y0303437D01*
X0095879Y0303427D01*
X0095609Y0303424D01*
X0095339Y0303427D01*
X0095069Y0303437D01*
X0094800Y0303454D01*
X0094531Y0303477D01*
X0094262Y0303507D01*
X0093995Y0303543D01*
X0093728Y0303586D01*
X0093463Y0303635D01*
X0093199Y0303691D01*
X0092936Y0303754D01*
X0092675Y0303822D01*
X0092416Y0303898D01*
X0092159Y0303979D01*
X0091903Y0304067D01*
X0091650Y0304161D01*
X0091399Y0304261D01*
X0091151Y0304368D01*
X0090906Y0304480D01*
X0090663Y0304599D01*
X0090424Y0304723D01*
X0090187Y0304853D01*
X0089954Y0304989D01*
X0089724Y0305131D01*
X0089498Y0305278D01*
X0089275Y0305431D01*
X0089056Y0305589D01*
X0088841Y0305752D01*
X0088631Y0305921D01*
X0088424Y0306095D01*
X0088222Y0306274D01*
X0088024Y0306457D01*
X0087831Y0306646D01*
X0087642Y0306839D01*
X0087459Y0307037D01*
X0087280Y0307239D01*
X0087106Y0307446D01*
X0086937Y0307656D01*
X0086774Y0307871D01*
X0086616Y0308090D01*
X0086463Y0308313D01*
X0086316Y0308539D01*
X0086174Y0308769D01*
X0086038Y0309002D01*
X0085908Y0309239D01*
X0085784Y0309478D01*
X0085665Y0309721D01*
X0085553Y0309966D01*
X0085446Y0310214D01*
X0085346Y0310465D01*
X0085252Y0310718D01*
X0085164Y0310974D01*
X0085083Y0311231D01*
X0085007Y0311490D01*
X0084939Y0311751D01*
X0084876Y0312014D01*
X0084820Y0312278D01*
X0084771Y0312543D01*
X0084728Y0312810D01*
X0084692Y0313077D01*
X0084662Y0313346D01*
X0084639Y0313615D01*
X0084622Y0313884D01*
X0084612Y0314154D01*
X0084609Y0314424D01*
X0090609Y0319424D02*
X0090609Y0320924D01*
X0089109Y0320924D01*
X0090609Y0320924D02*
X0092109Y0320924D01*
X0090609Y0320924D02*
X0090609Y0322424D01*
D11*
X0115261Y0314610D02*
X0115261Y0277610D01*
X0116261Y0276610D01*
X0127761Y0276110D01*
X0116661Y0278410D02*
X0116663Y0278473D01*
X0116669Y0278535D01*
X0116679Y0278597D01*
X0116692Y0278659D01*
X0116710Y0278719D01*
X0116731Y0278778D01*
X0116756Y0278836D01*
X0116785Y0278892D01*
X0116817Y0278946D01*
X0116852Y0278998D01*
X0116890Y0279047D01*
X0116932Y0279095D01*
X0116976Y0279139D01*
X0117024Y0279181D01*
X0117073Y0279219D01*
X0117125Y0279254D01*
X0117179Y0279286D01*
X0117235Y0279315D01*
X0117293Y0279340D01*
X0117352Y0279361D01*
X0117412Y0279379D01*
X0117474Y0279392D01*
X0117536Y0279402D01*
X0117598Y0279408D01*
X0117661Y0279410D01*
X0117724Y0279408D01*
X0117786Y0279402D01*
X0117848Y0279392D01*
X0117910Y0279379D01*
X0117970Y0279361D01*
X0118029Y0279340D01*
X0118087Y0279315D01*
X0118143Y0279286D01*
X0118197Y0279254D01*
X0118249Y0279219D01*
X0118298Y0279181D01*
X0118346Y0279139D01*
X0118390Y0279095D01*
X0118432Y0279047D01*
X0118470Y0278998D01*
X0118505Y0278946D01*
X0118537Y0278892D01*
X0118566Y0278836D01*
X0118591Y0278778D01*
X0118612Y0278719D01*
X0118630Y0278659D01*
X0118643Y0278597D01*
X0118653Y0278535D01*
X0118659Y0278473D01*
X0118661Y0278410D01*
X0118659Y0278347D01*
X0118653Y0278285D01*
X0118643Y0278223D01*
X0118630Y0278161D01*
X0118612Y0278101D01*
X0118591Y0278042D01*
X0118566Y0277984D01*
X0118537Y0277928D01*
X0118505Y0277874D01*
X0118470Y0277822D01*
X0118432Y0277773D01*
X0118390Y0277725D01*
X0118346Y0277681D01*
X0118298Y0277639D01*
X0118249Y0277601D01*
X0118197Y0277566D01*
X0118143Y0277534D01*
X0118087Y0277505D01*
X0118029Y0277480D01*
X0117970Y0277459D01*
X0117910Y0277441D01*
X0117848Y0277428D01*
X0117786Y0277418D01*
X0117724Y0277412D01*
X0117661Y0277410D01*
X0117598Y0277412D01*
X0117536Y0277418D01*
X0117474Y0277428D01*
X0117412Y0277441D01*
X0117352Y0277459D01*
X0117293Y0277480D01*
X0117235Y0277505D01*
X0117179Y0277534D01*
X0117125Y0277566D01*
X0117073Y0277601D01*
X0117024Y0277639D01*
X0116976Y0277681D01*
X0116932Y0277725D01*
X0116890Y0277773D01*
X0116852Y0277822D01*
X0116817Y0277874D01*
X0116785Y0277928D01*
X0116756Y0277984D01*
X0116731Y0278042D01*
X0116710Y0278101D01*
X0116692Y0278161D01*
X0116679Y0278223D01*
X0116669Y0278285D01*
X0116663Y0278347D01*
X0116661Y0278410D01*
X0115261Y0314610D02*
X0116261Y0315610D01*
X0127761Y0316110D01*
D12*
X0130761Y0296110D03*
D13*
X0128261Y0278860D03*
X0128261Y0313360D03*
D14*
X0128261Y0301110D03*
X0128261Y0291110D03*
D15*
X0317487Y0297541D02*
X0318787Y0296341D01*
X0321287Y0293841D01*
X0349787Y0291341D02*
X0354787Y0291341D01*
X0359787Y0291341D01*
X0359787Y0296341D02*
X0354787Y0296341D01*
X0349787Y0296341D01*
X0349787Y0291341D01*
X0349685Y0227614D02*
X0354685Y0227614D01*
X0359685Y0227614D01*
X0359685Y0222614D02*
X0354685Y0222614D01*
X0349685Y0222614D01*
X0349685Y0227614D01*
X0321185Y0225114D02*
X0318685Y0227614D01*
X0317385Y0228814D01*
X0317468Y0162012D02*
X0318768Y0160812D01*
X0321268Y0158312D01*
X0349768Y0155812D02*
X0349768Y0160812D01*
X0354768Y0160812D01*
X0359768Y0160812D01*
X0359768Y0155812D02*
X0354768Y0155812D01*
X0349768Y0155812D01*
X0350005Y0093874D02*
X0355005Y0093874D01*
X0360005Y0093874D01*
X0360005Y0088874D02*
X0355005Y0088874D01*
X0350005Y0088874D01*
X0350005Y0093874D01*
X0321505Y0091374D02*
X0319005Y0093874D01*
X0317705Y0095074D01*
M02*
