G75*
%MOIN*%
%OFA0B0*%
%FSLAX25Y25*%
%IPPOS*%
%LPD*%
%AMOC8*
5,1,8,0,0,1.08239X$1,22.5*
%
%ADD10C,0.07400*%
%ADD11OC8,0.07100*%
%ADD12C,0.07100*%
%ADD13C,0.07400*%
%ADD14C,0.13800*%
%ADD15C,0.06800*%
%ADD16OC8,0.06000*%
%ADD17OC8,0.15800*%
%ADD18C,0.06115*%
D10*
X0156000Y0181000D03*
X0196000Y0181000D03*
X0211000Y0181000D03*
X0251000Y0181000D03*
X0251000Y0231000D03*
X0211000Y0231000D03*
X0196000Y0231000D03*
X0156000Y0231000D03*
D11*
X0186000Y0136000D03*
X0291000Y0136000D03*
X0291000Y0166000D03*
X0331000Y0166000D03*
D12*
X0331000Y0176000D03*
X0281000Y0166000D03*
X0291000Y0126000D03*
X0186000Y0146000D03*
D13*
X0281000Y0202700D02*
X0281000Y0209300D01*
X0291000Y0209300D02*
X0291000Y0202700D01*
X0301000Y0202700D02*
X0301000Y0209300D01*
D14*
X0291000Y0265000D03*
D15*
X0353000Y0176000D02*
X0359000Y0176000D01*
X0359000Y0166000D02*
X0353000Y0166000D01*
X0024000Y0196000D02*
X0018000Y0196000D01*
X0018000Y0206000D02*
X0024000Y0206000D01*
D16*
X0246000Y0156000D03*
X0246000Y0126000D03*
D17*
X0051600Y0146600D03*
X0130400Y0146600D03*
X0130400Y0166300D03*
X0130400Y0205700D03*
X0130400Y0225400D03*
X0051600Y0225400D03*
D18*
X0216000Y0201000D03*
X0226000Y0126000D03*
M02*
