G75*
%MOIN*%
%OFA0B0*%
%FSLAX25Y25*%
%IPPOS*%
%LPD*%
%AMOC8*
5,1,8,0,0,1.08239X$1,22.5*
%
%ADD10C,0.00000*%
%ADD11C,0.06600*%
%ADD12OC8,0.06300*%
%ADD13C,0.06300*%
%ADD14C,0.06600*%
%ADD15C,0.06000*%
%ADD16OC8,0.05200*%
%ADD17OC8,0.15000*%
%ADD18C,0.00600*%
%ADD19C,0.05315*%
%ADD20C,0.03200*%
D10*
X0001000Y0001000D02*
X0001000Y0315961D01*
X0394701Y0315961D01*
X0394701Y0001000D01*
X0001000Y0001000D01*
X0284500Y0265000D02*
X0284502Y0265161D01*
X0284508Y0265321D01*
X0284518Y0265482D01*
X0284532Y0265642D01*
X0284550Y0265802D01*
X0284571Y0265961D01*
X0284597Y0266120D01*
X0284627Y0266278D01*
X0284660Y0266435D01*
X0284698Y0266592D01*
X0284739Y0266747D01*
X0284784Y0266901D01*
X0284833Y0267054D01*
X0284886Y0267206D01*
X0284942Y0267357D01*
X0285003Y0267506D01*
X0285066Y0267654D01*
X0285134Y0267800D01*
X0285205Y0267944D01*
X0285279Y0268086D01*
X0285357Y0268227D01*
X0285439Y0268365D01*
X0285524Y0268502D01*
X0285612Y0268636D01*
X0285704Y0268768D01*
X0285799Y0268898D01*
X0285897Y0269026D01*
X0285998Y0269151D01*
X0286102Y0269273D01*
X0286209Y0269393D01*
X0286319Y0269510D01*
X0286432Y0269625D01*
X0286548Y0269736D01*
X0286667Y0269845D01*
X0286788Y0269950D01*
X0286912Y0270053D01*
X0287038Y0270153D01*
X0287166Y0270249D01*
X0287297Y0270342D01*
X0287431Y0270432D01*
X0287566Y0270519D01*
X0287704Y0270602D01*
X0287843Y0270682D01*
X0287985Y0270758D01*
X0288128Y0270831D01*
X0288273Y0270900D01*
X0288420Y0270966D01*
X0288568Y0271028D01*
X0288718Y0271086D01*
X0288869Y0271141D01*
X0289022Y0271192D01*
X0289176Y0271239D01*
X0289331Y0271282D01*
X0289487Y0271321D01*
X0289643Y0271357D01*
X0289801Y0271388D01*
X0289959Y0271416D01*
X0290118Y0271440D01*
X0290278Y0271460D01*
X0290438Y0271476D01*
X0290598Y0271488D01*
X0290759Y0271496D01*
X0290920Y0271500D01*
X0291080Y0271500D01*
X0291241Y0271496D01*
X0291402Y0271488D01*
X0291562Y0271476D01*
X0291722Y0271460D01*
X0291882Y0271440D01*
X0292041Y0271416D01*
X0292199Y0271388D01*
X0292357Y0271357D01*
X0292513Y0271321D01*
X0292669Y0271282D01*
X0292824Y0271239D01*
X0292978Y0271192D01*
X0293131Y0271141D01*
X0293282Y0271086D01*
X0293432Y0271028D01*
X0293580Y0270966D01*
X0293727Y0270900D01*
X0293872Y0270831D01*
X0294015Y0270758D01*
X0294157Y0270682D01*
X0294296Y0270602D01*
X0294434Y0270519D01*
X0294569Y0270432D01*
X0294703Y0270342D01*
X0294834Y0270249D01*
X0294962Y0270153D01*
X0295088Y0270053D01*
X0295212Y0269950D01*
X0295333Y0269845D01*
X0295452Y0269736D01*
X0295568Y0269625D01*
X0295681Y0269510D01*
X0295791Y0269393D01*
X0295898Y0269273D01*
X0296002Y0269151D01*
X0296103Y0269026D01*
X0296201Y0268898D01*
X0296296Y0268768D01*
X0296388Y0268636D01*
X0296476Y0268502D01*
X0296561Y0268365D01*
X0296643Y0268227D01*
X0296721Y0268086D01*
X0296795Y0267944D01*
X0296866Y0267800D01*
X0296934Y0267654D01*
X0296997Y0267506D01*
X0297058Y0267357D01*
X0297114Y0267206D01*
X0297167Y0267054D01*
X0297216Y0266901D01*
X0297261Y0266747D01*
X0297302Y0266592D01*
X0297340Y0266435D01*
X0297373Y0266278D01*
X0297403Y0266120D01*
X0297429Y0265961D01*
X0297450Y0265802D01*
X0297468Y0265642D01*
X0297482Y0265482D01*
X0297492Y0265321D01*
X0297498Y0265161D01*
X0297500Y0265000D01*
X0297498Y0264839D01*
X0297492Y0264679D01*
X0297482Y0264518D01*
X0297468Y0264358D01*
X0297450Y0264198D01*
X0297429Y0264039D01*
X0297403Y0263880D01*
X0297373Y0263722D01*
X0297340Y0263565D01*
X0297302Y0263408D01*
X0297261Y0263253D01*
X0297216Y0263099D01*
X0297167Y0262946D01*
X0297114Y0262794D01*
X0297058Y0262643D01*
X0296997Y0262494D01*
X0296934Y0262346D01*
X0296866Y0262200D01*
X0296795Y0262056D01*
X0296721Y0261914D01*
X0296643Y0261773D01*
X0296561Y0261635D01*
X0296476Y0261498D01*
X0296388Y0261364D01*
X0296296Y0261232D01*
X0296201Y0261102D01*
X0296103Y0260974D01*
X0296002Y0260849D01*
X0295898Y0260727D01*
X0295791Y0260607D01*
X0295681Y0260490D01*
X0295568Y0260375D01*
X0295452Y0260264D01*
X0295333Y0260155D01*
X0295212Y0260050D01*
X0295088Y0259947D01*
X0294962Y0259847D01*
X0294834Y0259751D01*
X0294703Y0259658D01*
X0294569Y0259568D01*
X0294434Y0259481D01*
X0294296Y0259398D01*
X0294157Y0259318D01*
X0294015Y0259242D01*
X0293872Y0259169D01*
X0293727Y0259100D01*
X0293580Y0259034D01*
X0293432Y0258972D01*
X0293282Y0258914D01*
X0293131Y0258859D01*
X0292978Y0258808D01*
X0292824Y0258761D01*
X0292669Y0258718D01*
X0292513Y0258679D01*
X0292357Y0258643D01*
X0292199Y0258612D01*
X0292041Y0258584D01*
X0291882Y0258560D01*
X0291722Y0258540D01*
X0291562Y0258524D01*
X0291402Y0258512D01*
X0291241Y0258504D01*
X0291080Y0258500D01*
X0290920Y0258500D01*
X0290759Y0258504D01*
X0290598Y0258512D01*
X0290438Y0258524D01*
X0290278Y0258540D01*
X0290118Y0258560D01*
X0289959Y0258584D01*
X0289801Y0258612D01*
X0289643Y0258643D01*
X0289487Y0258679D01*
X0289331Y0258718D01*
X0289176Y0258761D01*
X0289022Y0258808D01*
X0288869Y0258859D01*
X0288718Y0258914D01*
X0288568Y0258972D01*
X0288420Y0259034D01*
X0288273Y0259100D01*
X0288128Y0259169D01*
X0287985Y0259242D01*
X0287843Y0259318D01*
X0287704Y0259398D01*
X0287566Y0259481D01*
X0287431Y0259568D01*
X0287297Y0259658D01*
X0287166Y0259751D01*
X0287038Y0259847D01*
X0286912Y0259947D01*
X0286788Y0260050D01*
X0286667Y0260155D01*
X0286548Y0260264D01*
X0286432Y0260375D01*
X0286319Y0260490D01*
X0286209Y0260607D01*
X0286102Y0260727D01*
X0285998Y0260849D01*
X0285897Y0260974D01*
X0285799Y0261102D01*
X0285704Y0261232D01*
X0285612Y0261364D01*
X0285524Y0261498D01*
X0285439Y0261635D01*
X0285357Y0261773D01*
X0285279Y0261914D01*
X0285205Y0262056D01*
X0285134Y0262200D01*
X0285066Y0262346D01*
X0285003Y0262494D01*
X0284942Y0262643D01*
X0284886Y0262794D01*
X0284833Y0262946D01*
X0284784Y0263099D01*
X0284739Y0263253D01*
X0284698Y0263408D01*
X0284660Y0263565D01*
X0284627Y0263722D01*
X0284597Y0263880D01*
X0284571Y0264039D01*
X0284550Y0264198D01*
X0284532Y0264358D01*
X0284518Y0264518D01*
X0284508Y0264679D01*
X0284502Y0264839D01*
X0284500Y0265000D01*
D11*
X0251000Y0231000D03*
X0211000Y0231000D03*
X0196000Y0231000D03*
X0156000Y0231000D03*
X0156000Y0181000D03*
X0196000Y0181000D03*
X0211000Y0181000D03*
X0251000Y0181000D03*
D12*
X0291000Y0166000D03*
X0291000Y0136000D03*
X0331000Y0166000D03*
X0186000Y0136000D03*
D13*
X0186000Y0146000D03*
X0281000Y0166000D03*
X0331000Y0176000D03*
X0291000Y0126000D03*
D14*
X0291000Y0202700D02*
X0291000Y0209300D01*
X0281000Y0209300D02*
X0281000Y0202700D01*
X0301000Y0202700D02*
X0301000Y0209300D01*
D15*
X0353000Y0176000D02*
X0359000Y0176000D01*
X0359000Y0166000D02*
X0353000Y0166000D01*
X0024000Y0196000D02*
X0018000Y0196000D01*
X0018000Y0206000D02*
X0024000Y0206000D01*
D16*
X0246000Y0156000D03*
X0246000Y0126000D03*
D17*
X0130400Y0146600D03*
X0130400Y0166300D03*
X0130400Y0205700D03*
X0130400Y0225400D03*
X0051600Y0225400D03*
X0051600Y0146600D03*
D18*
X0021400Y0196000D02*
X0021000Y0196000D01*
X0021000Y0206000D02*
X0021400Y0206200D01*
D19*
X0216000Y0201000D03*
X0226000Y0126000D03*
D20*
X0226000Y0196000D01*
X0221000Y0201000D01*
X0216000Y0201000D01*
M02*
