G75*
%MOIN*%
%OFA0B0*%
%FSLAX25Y25*%
%IPPOS*%
%LPD*%
%AMOC8*
5,1,8,0,0,1.08239X$1,22.5*
%
%ADD10C,0.00600*%
%ADD11C,0.03200*%
%ADD12C,0.06600*%
%ADD13OC8,0.06300*%
%ADD14C,0.06300*%
%ADD15C,0.06600*%
%ADD16C,0.06000*%
%ADD17OC8,0.05200*%
%ADD18OC8,0.15000*%
%ADD19C,0.05315*%
D10*
X0115374Y0111300D02*
X0115374Y0117700D01*
X0118929Y0117700D02*
X0115374Y0111300D01*
X0118929Y0111300D02*
X0118929Y0117700D01*
X0121487Y0117700D02*
X0122909Y0111300D01*
X0124331Y0115567D01*
X0125754Y0111300D01*
X0127176Y0117700D01*
X0129528Y0115922D02*
X0129528Y0113078D01*
X0129530Y0112995D01*
X0129536Y0112912D01*
X0129546Y0112829D01*
X0129559Y0112746D01*
X0129577Y0112665D01*
X0129598Y0112584D01*
X0129623Y0112505D01*
X0129652Y0112427D01*
X0129684Y0112350D01*
X0129720Y0112275D01*
X0129759Y0112201D01*
X0129802Y0112130D01*
X0129848Y0112060D01*
X0129898Y0111993D01*
X0129950Y0111928D01*
X0130005Y0111866D01*
X0130064Y0111806D01*
X0130125Y0111749D01*
X0130188Y0111695D01*
X0130254Y0111644D01*
X0130323Y0111597D01*
X0130393Y0111552D01*
X0130466Y0111511D01*
X0130540Y0111474D01*
X0130616Y0111439D01*
X0130694Y0111409D01*
X0130772Y0111382D01*
X0130853Y0111359D01*
X0130934Y0111339D01*
X0131016Y0111324D01*
X0131098Y0111312D01*
X0131181Y0111304D01*
X0131264Y0111300D01*
X0131348Y0111300D01*
X0131431Y0111304D01*
X0131514Y0111312D01*
X0131596Y0111324D01*
X0131678Y0111339D01*
X0131759Y0111359D01*
X0131840Y0111382D01*
X0131918Y0111409D01*
X0131996Y0111439D01*
X0132072Y0111474D01*
X0132146Y0111511D01*
X0132219Y0111552D01*
X0132289Y0111597D01*
X0132358Y0111644D01*
X0132424Y0111695D01*
X0132487Y0111749D01*
X0132548Y0111806D01*
X0132607Y0111866D01*
X0132662Y0111928D01*
X0132714Y0111993D01*
X0132764Y0112060D01*
X0132810Y0112130D01*
X0132853Y0112201D01*
X0132892Y0112275D01*
X0132928Y0112350D01*
X0132960Y0112427D01*
X0132989Y0112505D01*
X0133014Y0112584D01*
X0133035Y0112665D01*
X0133053Y0112746D01*
X0133066Y0112829D01*
X0133076Y0112912D01*
X0133082Y0112995D01*
X0133084Y0113078D01*
X0133084Y0115922D01*
X0133082Y0116005D01*
X0133076Y0116088D01*
X0133066Y0116171D01*
X0133053Y0116254D01*
X0133035Y0116335D01*
X0133014Y0116416D01*
X0132989Y0116495D01*
X0132960Y0116573D01*
X0132928Y0116650D01*
X0132892Y0116725D01*
X0132853Y0116799D01*
X0132810Y0116870D01*
X0132764Y0116940D01*
X0132714Y0117007D01*
X0132662Y0117072D01*
X0132607Y0117134D01*
X0132548Y0117194D01*
X0132487Y0117251D01*
X0132424Y0117305D01*
X0132358Y0117356D01*
X0132289Y0117403D01*
X0132219Y0117448D01*
X0132146Y0117489D01*
X0132072Y0117526D01*
X0131996Y0117561D01*
X0131918Y0117591D01*
X0131840Y0117618D01*
X0131759Y0117641D01*
X0131678Y0117661D01*
X0131596Y0117676D01*
X0131514Y0117688D01*
X0131431Y0117696D01*
X0131348Y0117700D01*
X0131264Y0117700D01*
X0131181Y0117696D01*
X0131098Y0117688D01*
X0131016Y0117676D01*
X0130934Y0117661D01*
X0130853Y0117641D01*
X0130772Y0117618D01*
X0130694Y0117591D01*
X0130616Y0117561D01*
X0130540Y0117526D01*
X0130466Y0117489D01*
X0130393Y0117448D01*
X0130323Y0117403D01*
X0130254Y0117356D01*
X0130188Y0117305D01*
X0130125Y0117251D01*
X0130064Y0117194D01*
X0130005Y0117134D01*
X0129950Y0117072D01*
X0129898Y0117007D01*
X0129848Y0116940D01*
X0129802Y0116870D01*
X0129759Y0116799D01*
X0129720Y0116725D01*
X0129684Y0116650D01*
X0129652Y0116573D01*
X0129623Y0116495D01*
X0129598Y0116416D01*
X0129577Y0116335D01*
X0129559Y0116254D01*
X0129546Y0116171D01*
X0129536Y0116088D01*
X0129530Y0116005D01*
X0129528Y0115922D01*
X0135887Y0115922D02*
X0135887Y0113078D01*
X0135889Y0112996D01*
X0135895Y0112914D01*
X0135904Y0112832D01*
X0135917Y0112751D01*
X0135934Y0112671D01*
X0135955Y0112591D01*
X0135979Y0112513D01*
X0136007Y0112436D01*
X0136038Y0112360D01*
X0136073Y0112285D01*
X0136112Y0112213D01*
X0136153Y0112142D01*
X0136198Y0112073D01*
X0136246Y0112007D01*
X0136297Y0111942D01*
X0136351Y0111880D01*
X0136408Y0111821D01*
X0136467Y0111764D01*
X0136529Y0111710D01*
X0136594Y0111659D01*
X0136660Y0111611D01*
X0136729Y0111566D01*
X0136800Y0111525D01*
X0136872Y0111486D01*
X0136947Y0111451D01*
X0137023Y0111420D01*
X0137100Y0111392D01*
X0137178Y0111368D01*
X0137258Y0111347D01*
X0137338Y0111330D01*
X0137419Y0111317D01*
X0137501Y0111308D01*
X0137583Y0111302D01*
X0137665Y0111300D01*
X0139443Y0111300D01*
X0139443Y0117700D01*
X0137665Y0117700D01*
X0137583Y0117698D01*
X0137501Y0117692D01*
X0137419Y0117683D01*
X0137338Y0117670D01*
X0137258Y0117653D01*
X0137178Y0117632D01*
X0137100Y0117608D01*
X0137023Y0117580D01*
X0136947Y0117549D01*
X0136872Y0117514D01*
X0136800Y0117475D01*
X0136729Y0117434D01*
X0136660Y0117389D01*
X0136594Y0117341D01*
X0136529Y0117290D01*
X0136467Y0117236D01*
X0136408Y0117179D01*
X0136351Y0117120D01*
X0136297Y0117058D01*
X0136246Y0116993D01*
X0136198Y0116927D01*
X0136153Y0116858D01*
X0136112Y0116787D01*
X0136073Y0116715D01*
X0136038Y0116640D01*
X0136007Y0116564D01*
X0135979Y0116487D01*
X0135955Y0116409D01*
X0135934Y0116329D01*
X0135917Y0116249D01*
X0135904Y0116168D01*
X0135895Y0116086D01*
X0135889Y0116004D01*
X0135887Y0115922D01*
X0147018Y0117700D02*
X0146935Y0117698D01*
X0146852Y0117692D01*
X0146769Y0117682D01*
X0146686Y0117669D01*
X0146605Y0117651D01*
X0146524Y0117630D01*
X0146445Y0117605D01*
X0146367Y0117576D01*
X0146290Y0117544D01*
X0146215Y0117508D01*
X0146141Y0117469D01*
X0146070Y0117426D01*
X0146000Y0117380D01*
X0145933Y0117330D01*
X0145868Y0117278D01*
X0145806Y0117223D01*
X0145746Y0117164D01*
X0145689Y0117103D01*
X0145635Y0117040D01*
X0145584Y0116974D01*
X0145537Y0116905D01*
X0145492Y0116835D01*
X0145451Y0116762D01*
X0145414Y0116688D01*
X0145379Y0116612D01*
X0145349Y0116534D01*
X0145322Y0116456D01*
X0145299Y0116375D01*
X0145279Y0116294D01*
X0145264Y0116212D01*
X0145252Y0116130D01*
X0145244Y0116047D01*
X0145240Y0115964D01*
X0145240Y0115880D01*
X0145244Y0115797D01*
X0145252Y0115714D01*
X0145264Y0115632D01*
X0145279Y0115550D01*
X0145299Y0115469D01*
X0145322Y0115388D01*
X0145349Y0115310D01*
X0145379Y0115232D01*
X0145414Y0115156D01*
X0145451Y0115082D01*
X0145492Y0115009D01*
X0145537Y0114939D01*
X0145584Y0114870D01*
X0145635Y0114804D01*
X0145689Y0114741D01*
X0145746Y0114680D01*
X0145806Y0114621D01*
X0145868Y0114566D01*
X0145933Y0114514D01*
X0146000Y0114464D01*
X0146070Y0114418D01*
X0146141Y0114375D01*
X0146215Y0114336D01*
X0146290Y0114300D01*
X0146367Y0114268D01*
X0146445Y0114239D01*
X0146524Y0114214D01*
X0146605Y0114193D01*
X0146686Y0114175D01*
X0146769Y0114162D01*
X0146852Y0114152D01*
X0146935Y0114146D01*
X0147018Y0114144D01*
X0148796Y0114144D01*
X0148796Y0111300D02*
X0148796Y0117700D01*
X0147018Y0117700D01*
X0151356Y0117700D02*
X0154201Y0117700D01*
X0154201Y0111300D01*
X0151356Y0111300D01*
X0152067Y0114856D02*
X0154201Y0114856D01*
X0156606Y0117700D02*
X0160161Y0117700D01*
X0158384Y0117700D02*
X0158384Y0111300D01*
X0162856Y0113967D02*
X0164811Y0115033D01*
X0164100Y0117700D02*
X0163999Y0117698D01*
X0163898Y0117692D01*
X0163798Y0117683D01*
X0163698Y0117669D01*
X0163598Y0117652D01*
X0163499Y0117632D01*
X0163402Y0117607D01*
X0163305Y0117579D01*
X0163209Y0117547D01*
X0163114Y0117511D01*
X0163021Y0117472D01*
X0162930Y0117430D01*
X0162840Y0117384D01*
X0162752Y0117334D01*
X0162666Y0117282D01*
X0162582Y0117226D01*
X0162500Y0117167D01*
X0164811Y0115034D02*
X0164875Y0115074D01*
X0164936Y0115117D01*
X0164995Y0115163D01*
X0165052Y0115212D01*
X0165106Y0115264D01*
X0165157Y0115318D01*
X0165205Y0115376D01*
X0165251Y0115435D01*
X0165293Y0115497D01*
X0165332Y0115562D01*
X0165367Y0115628D01*
X0165399Y0115695D01*
X0165428Y0115765D01*
X0165453Y0115835D01*
X0165474Y0115907D01*
X0165491Y0115980D01*
X0165505Y0116054D01*
X0165514Y0116128D01*
X0165520Y0116203D01*
X0165522Y0116278D01*
X0165520Y0116352D01*
X0165514Y0116427D01*
X0165504Y0116500D01*
X0165491Y0116574D01*
X0165474Y0116646D01*
X0165452Y0116717D01*
X0165428Y0116788D01*
X0165399Y0116856D01*
X0165367Y0116924D01*
X0165331Y0116989D01*
X0165293Y0117052D01*
X0165250Y0117114D01*
X0165205Y0117173D01*
X0165157Y0117230D01*
X0165106Y0117284D01*
X0165052Y0117335D01*
X0164995Y0117383D01*
X0164936Y0117428D01*
X0164874Y0117471D01*
X0164811Y0117509D01*
X0164746Y0117545D01*
X0164678Y0117577D01*
X0164610Y0117606D01*
X0164539Y0117630D01*
X0164468Y0117652D01*
X0164396Y0117669D01*
X0164322Y0117682D01*
X0164249Y0117692D01*
X0164174Y0117698D01*
X0164100Y0117700D01*
X0165700Y0112189D02*
X0165623Y0112114D01*
X0165543Y0112041D01*
X0165460Y0111972D01*
X0165375Y0111905D01*
X0165288Y0111842D01*
X0165199Y0111782D01*
X0165107Y0111725D01*
X0165014Y0111671D01*
X0164918Y0111621D01*
X0164821Y0111574D01*
X0164722Y0111531D01*
X0164622Y0111491D01*
X0164521Y0111455D01*
X0164418Y0111423D01*
X0164314Y0111394D01*
X0164209Y0111369D01*
X0164103Y0111348D01*
X0163997Y0111331D01*
X0163890Y0111317D01*
X0163782Y0111308D01*
X0163675Y0111302D01*
X0163567Y0111300D01*
X0163493Y0111302D01*
X0163418Y0111308D01*
X0163345Y0111318D01*
X0163271Y0111331D01*
X0163199Y0111348D01*
X0163128Y0111370D01*
X0163057Y0111394D01*
X0162989Y0111423D01*
X0162921Y0111455D01*
X0162856Y0111491D01*
X0162793Y0111529D01*
X0162731Y0111572D01*
X0162672Y0111617D01*
X0162615Y0111665D01*
X0162561Y0111716D01*
X0162510Y0111770D01*
X0162462Y0111827D01*
X0162417Y0111886D01*
X0162374Y0111948D01*
X0162336Y0112011D01*
X0162300Y0112076D01*
X0162268Y0112144D01*
X0162239Y0112212D01*
X0162215Y0112283D01*
X0162193Y0112354D01*
X0162176Y0112426D01*
X0162163Y0112500D01*
X0162153Y0112573D01*
X0162147Y0112648D01*
X0162145Y0112722D01*
X0162147Y0112797D01*
X0162153Y0112872D01*
X0162162Y0112946D01*
X0162176Y0113020D01*
X0162193Y0113093D01*
X0162214Y0113165D01*
X0162239Y0113235D01*
X0162268Y0113305D01*
X0162300Y0113372D01*
X0162335Y0113438D01*
X0162374Y0113503D01*
X0162416Y0113565D01*
X0162462Y0113624D01*
X0162510Y0113682D01*
X0162561Y0113736D01*
X0162615Y0113788D01*
X0162672Y0113837D01*
X0162731Y0113883D01*
X0162792Y0113926D01*
X0162856Y0113966D01*
X0156000Y0181000D02*
X0155800Y0181000D01*
X0155800Y0230800D02*
X0156000Y0231000D01*
D11*
X0009600Y0187995D02*
X0009600Y0081000D01*
X0376000Y0081000D01*
X0376000Y0281000D01*
X0300487Y0281000D01*
X0302421Y0279884D01*
X0305884Y0276421D01*
X0308332Y0272179D01*
X0309600Y0267449D01*
X0309600Y0262551D01*
X0308332Y0257821D01*
X0305884Y0253579D01*
X0302421Y0250116D01*
X0298179Y0247668D01*
X0293449Y0246400D01*
X0288551Y0246400D01*
X0283821Y0247668D01*
X0279579Y0250116D01*
X0276116Y0253579D01*
X0273668Y0257821D01*
X0272400Y0262551D01*
X0272400Y0267449D01*
X0273668Y0272179D01*
X0276116Y0276421D01*
X0279579Y0279884D01*
X0281513Y0281000D01*
X0009600Y0281000D01*
X0009600Y0214005D01*
X0010800Y0215205D01*
X0010800Y0222343D01*
X0011495Y0224937D01*
X0012838Y0227263D01*
X0017238Y0231663D01*
X0019137Y0233562D01*
X0021463Y0234905D01*
X0024057Y0235600D01*
X0039031Y0235600D01*
X0044931Y0241500D01*
X0058269Y0241500D01*
X0067700Y0232069D01*
X0067700Y0218731D01*
X0058269Y0209300D01*
X0044931Y0209300D01*
X0039031Y0215200D01*
X0031205Y0215200D01*
X0033282Y0213123D01*
X0034809Y0210477D01*
X0035600Y0207527D01*
X0035600Y0204473D01*
X0034809Y0201523D01*
X0034508Y0201000D01*
X0034809Y0200477D01*
X0035600Y0197527D01*
X0035600Y0194473D01*
X0034809Y0191523D01*
X0033282Y0188877D01*
X0031200Y0186795D01*
X0031200Y0156800D01*
X0039031Y0156800D01*
X0044931Y0162700D01*
X0058269Y0162700D01*
X0067700Y0153269D01*
X0067700Y0139931D01*
X0058269Y0130500D01*
X0044931Y0130500D01*
X0039031Y0136400D01*
X0024057Y0136400D01*
X0021463Y0137095D01*
X0019137Y0138438D01*
X0014737Y0142838D01*
X0012838Y0144737D01*
X0011495Y0147063D01*
X0010800Y0149657D01*
X0010800Y0186795D01*
X0009600Y0187995D01*
X0009600Y0186514D02*
X0010800Y0186514D01*
X0010800Y0183315D02*
X0009600Y0183315D01*
X0009600Y0180117D02*
X0010800Y0180117D01*
X0010800Y0176918D02*
X0009600Y0176918D01*
X0009600Y0173720D02*
X0010800Y0173720D01*
X0010800Y0170521D02*
X0009600Y0170521D01*
X0009600Y0167323D02*
X0010800Y0167323D01*
X0010800Y0164124D02*
X0009600Y0164124D01*
X0009600Y0160926D02*
X0010800Y0160926D01*
X0010800Y0157727D02*
X0009600Y0157727D01*
X0009600Y0154529D02*
X0010800Y0154529D01*
X0010800Y0151330D02*
X0009600Y0151330D01*
X0009600Y0148132D02*
X0011209Y0148132D01*
X0012725Y0144933D02*
X0009600Y0144933D01*
X0009600Y0141734D02*
X0015841Y0141734D01*
X0019039Y0138536D02*
X0009600Y0138536D01*
X0009600Y0135337D02*
X0040094Y0135337D01*
X0043292Y0132139D02*
X0009600Y0132139D01*
X0009600Y0128940D02*
X0175800Y0128940D01*
X0175800Y0129583D02*
X0175800Y0114657D01*
X0176495Y0112063D01*
X0177838Y0109737D01*
X0182838Y0104737D01*
X0184737Y0102838D01*
X0187063Y0101495D01*
X0189657Y0100800D01*
X0307343Y0100800D01*
X0309937Y0101495D01*
X0312263Y0102838D01*
X0314162Y0104737D01*
X0314162Y0104737D01*
X0322263Y0112838D01*
X0324162Y0114737D01*
X0325505Y0117063D01*
X0326200Y0119657D01*
X0326200Y0137343D01*
X0325505Y0139937D01*
X0324162Y0142263D01*
X0319162Y0147263D01*
X0317263Y0149162D01*
X0314937Y0150505D01*
X0312343Y0151200D01*
X0301200Y0151200D01*
X0301200Y0155800D01*
X0324583Y0155800D01*
X0326133Y0154250D01*
X0335867Y0154250D01*
X0337417Y0155800D01*
X0347467Y0155800D01*
X0348523Y0155191D01*
X0351473Y0154400D01*
X0360527Y0154400D01*
X0363477Y0155191D01*
X0366123Y0156718D01*
X0368282Y0158877D01*
X0369809Y0161523D01*
X0370600Y0164473D01*
X0370600Y0167527D01*
X0369809Y0170477D01*
X0369508Y0171000D01*
X0369809Y0171523D01*
X0370600Y0174473D01*
X0370600Y0177527D01*
X0369809Y0180477D01*
X0368282Y0183123D01*
X0366123Y0185282D01*
X0363477Y0186809D01*
X0360527Y0187600D01*
X0351473Y0187600D01*
X0348523Y0186809D01*
X0347467Y0186200D01*
X0341200Y0186200D01*
X0341200Y0202343D01*
X0340505Y0204937D01*
X0339162Y0207263D01*
X0337263Y0209162D01*
X0333416Y0213009D01*
X0333050Y0213375D01*
X0333050Y0213375D01*
X0329826Y0215237D01*
X0326230Y0216200D01*
X0310757Y0216200D01*
X0310522Y0216607D01*
X0308307Y0218822D01*
X0305593Y0220389D01*
X0302567Y0221200D01*
X0299433Y0221200D01*
X0296407Y0220389D01*
X0296000Y0220154D01*
X0295593Y0220389D01*
X0292567Y0221200D01*
X0289433Y0221200D01*
X0286407Y0220389D01*
X0286000Y0220154D01*
X0285593Y0220389D01*
X0282567Y0221200D01*
X0279433Y0221200D01*
X0276407Y0220389D01*
X0273693Y0218822D01*
X0271478Y0216607D01*
X0269911Y0213893D01*
X0269100Y0210867D01*
X0269100Y0201133D01*
X0269911Y0198107D01*
X0270800Y0196567D01*
X0270800Y0176200D01*
X0261970Y0176200D01*
X0262089Y0176407D01*
X0262900Y0179433D01*
X0262900Y0182567D01*
X0262089Y0185593D01*
X0261200Y0187133D01*
X0261200Y0224867D01*
X0262089Y0226407D01*
X0262900Y0229433D01*
X0262900Y0232567D01*
X0262089Y0235593D01*
X0260522Y0238307D01*
X0258307Y0240522D01*
X0255593Y0242089D01*
X0252567Y0242900D01*
X0249433Y0242900D01*
X0246407Y0242089D01*
X0243693Y0240522D01*
X0241478Y0238307D01*
X0239911Y0235593D01*
X0239100Y0232567D01*
X0239100Y0229433D01*
X0239911Y0226407D01*
X0240800Y0224867D01*
X0240800Y0187133D01*
X0239911Y0185593D01*
X0239100Y0182567D01*
X0239100Y0179433D01*
X0239911Y0176407D01*
X0241478Y0173693D01*
X0242873Y0172298D01*
X0239737Y0169162D01*
X0237838Y0167263D01*
X0237224Y0166200D01*
X0204674Y0166200D01*
X0205237Y0167174D01*
X0206028Y0170129D01*
X0206407Y0169911D01*
X0209433Y0169100D01*
X0212567Y0169100D01*
X0215593Y0169911D01*
X0218307Y0171478D01*
X0220522Y0173693D01*
X0222089Y0176407D01*
X0222900Y0179433D01*
X0222900Y0182567D01*
X0222089Y0185593D01*
X0220522Y0188307D01*
X0218748Y0190082D01*
X0220345Y0190510D01*
X0222912Y0191992D01*
X0225008Y0194088D01*
X0226490Y0196655D01*
X0227257Y0199518D01*
X0227257Y0202482D01*
X0226490Y0205345D01*
X0225008Y0207912D01*
X0222912Y0210008D01*
X0220345Y0211490D01*
X0217482Y0212257D01*
X0214518Y0212257D01*
X0211655Y0211490D01*
X0211152Y0211200D01*
X0166200Y0211200D01*
X0166200Y0224867D01*
X0167089Y0226407D01*
X0167900Y0229433D01*
X0167900Y0232567D01*
X0167089Y0235593D01*
X0166970Y0235800D01*
X0185030Y0235800D01*
X0184911Y0235593D01*
X0184100Y0232567D01*
X0184100Y0229433D01*
X0184911Y0226407D01*
X0186478Y0223693D01*
X0188693Y0221478D01*
X0191407Y0219911D01*
X0194433Y0219100D01*
X0197567Y0219100D01*
X0200593Y0219911D01*
X0202133Y0220800D01*
X0204867Y0220800D01*
X0206407Y0219911D01*
X0209433Y0219100D01*
X0212567Y0219100D01*
X0215593Y0219911D01*
X0218307Y0221478D01*
X0220522Y0223693D01*
X0222089Y0226407D01*
X0222900Y0229433D01*
X0222900Y0232567D01*
X0222089Y0235593D01*
X0220522Y0238307D01*
X0218307Y0240522D01*
X0215593Y0242089D01*
X0212567Y0242900D01*
X0209433Y0242900D01*
X0206407Y0242089D01*
X0206200Y0241970D01*
X0206200Y0242343D01*
X0205505Y0244937D01*
X0204162Y0247263D01*
X0199162Y0252263D01*
X0197263Y0254162D01*
X0194937Y0255505D01*
X0192343Y0256200D01*
X0149657Y0256200D01*
X0147063Y0255505D01*
X0144737Y0254162D01*
X0142838Y0252263D01*
X0139737Y0249162D01*
X0137838Y0247263D01*
X0136495Y0244937D01*
X0135800Y0242343D01*
X0135800Y0241500D01*
X0123731Y0241500D01*
X0114300Y0232069D01*
X0114300Y0218731D01*
X0117481Y0215550D01*
X0114300Y0212369D01*
X0114300Y0199031D01*
X0123731Y0189600D01*
X0137069Y0189600D01*
X0143308Y0195839D01*
X0144637Y0196195D01*
X0145800Y0196867D01*
X0145800Y0187133D01*
X0144911Y0185593D01*
X0144100Y0182567D01*
X0144100Y0179433D01*
X0144911Y0176407D01*
X0145030Y0176200D01*
X0143269Y0176200D01*
X0137069Y0182400D01*
X0123731Y0182400D01*
X0114300Y0172969D01*
X0114300Y0159631D01*
X0117481Y0156450D01*
X0114300Y0153269D01*
X0114300Y0139931D01*
X0123731Y0130500D01*
X0137069Y0130500D01*
X0146500Y0139931D01*
X0146500Y0153269D01*
X0143969Y0155800D01*
X0176993Y0155800D01*
X0176495Y0154937D01*
X0175800Y0152343D01*
X0175800Y0151833D01*
X0175051Y0150535D01*
X0174250Y0147547D01*
X0174250Y0144453D01*
X0175008Y0141625D01*
X0174250Y0140867D01*
X0174250Y0131133D01*
X0175800Y0129583D01*
X0174250Y0132139D02*
X0138708Y0132139D01*
X0141906Y0135337D02*
X0174250Y0135337D01*
X0174250Y0138536D02*
X0145105Y0138536D01*
X0146500Y0141734D02*
X0174978Y0141734D01*
X0174250Y0144933D02*
X0146500Y0144933D01*
X0146500Y0148132D02*
X0174407Y0148132D01*
X0175510Y0151330D02*
X0146500Y0151330D01*
X0145240Y0154529D02*
X0176386Y0154529D01*
X0186000Y0151000D02*
X0186000Y0146000D01*
X0186000Y0151000D02*
X0191000Y0156000D01*
X0246000Y0156000D01*
X0246000Y0161000D01*
X0249847Y0164847D01*
X0252631Y0166000D02*
X0281000Y0166000D01*
X0281000Y0206000D01*
X0291000Y0206000D02*
X0291000Y0166000D01*
X0291000Y0141000D01*
X0311000Y0141000D01*
X0316000Y0136000D01*
X0316000Y0121000D01*
X0306000Y0111000D01*
X0191000Y0111000D01*
X0186000Y0116000D01*
X0186000Y0136000D01*
X0197750Y0135337D02*
X0219658Y0135337D01*
X0219088Y0135008D02*
X0216992Y0132912D01*
X0215510Y0130345D01*
X0214743Y0127482D01*
X0214743Y0124518D01*
X0215510Y0121655D01*
X0215772Y0121200D01*
X0196200Y0121200D01*
X0196200Y0129583D01*
X0197750Y0131133D01*
X0197750Y0140867D01*
X0196992Y0141625D01*
X0197750Y0144453D01*
X0197750Y0145800D01*
X0240361Y0145800D01*
X0241361Y0144800D01*
X0250639Y0144800D01*
X0257200Y0151361D01*
X0257200Y0155800D01*
X0275167Y0155800D01*
X0276465Y0155051D01*
X0279453Y0154250D01*
X0280800Y0154250D01*
X0280800Y0142417D01*
X0279250Y0140867D01*
X0279250Y0136200D01*
X0251639Y0136200D01*
X0250639Y0137200D01*
X0241361Y0137200D01*
X0240361Y0136200D01*
X0230848Y0136200D01*
X0230345Y0136490D01*
X0227482Y0137257D01*
X0224518Y0137257D01*
X0221655Y0136490D01*
X0219088Y0135008D01*
X0216545Y0132139D02*
X0197750Y0132139D01*
X0196200Y0128940D02*
X0215133Y0128940D01*
X0214743Y0125742D02*
X0196200Y0125742D01*
X0196200Y0122543D02*
X0215272Y0122543D01*
X0226000Y0126000D02*
X0246000Y0126000D01*
X0291000Y0126000D01*
X0291000Y0136000D02*
X0291000Y0141000D01*
X0280118Y0141734D02*
X0197022Y0141734D01*
X0197750Y0138536D02*
X0279250Y0138536D01*
X0280800Y0144933D02*
X0250772Y0144933D01*
X0253971Y0148132D02*
X0280800Y0148132D01*
X0280800Y0151330D02*
X0257169Y0151330D01*
X0257200Y0154529D02*
X0278414Y0154529D01*
X0291000Y0166000D02*
X0331000Y0166000D01*
X0356000Y0166000D01*
X0356000Y0176000D02*
X0331000Y0176000D01*
X0331000Y0201000D01*
X0327153Y0204847D01*
X0324369Y0206000D02*
X0301000Y0206000D01*
X0310757Y0195800D02*
X0320800Y0195800D01*
X0320800Y0181833D01*
X0320051Y0180535D01*
X0319250Y0177547D01*
X0319250Y0176200D01*
X0301200Y0176200D01*
X0301200Y0190800D01*
X0302567Y0190800D01*
X0305593Y0191611D01*
X0308307Y0193178D01*
X0310522Y0195393D01*
X0310757Y0195800D01*
X0307844Y0192911D02*
X0320800Y0192911D01*
X0320800Y0189712D02*
X0301200Y0189712D01*
X0301200Y0186514D02*
X0320800Y0186514D01*
X0320800Y0183315D02*
X0301200Y0183315D01*
X0301200Y0180117D02*
X0319939Y0180117D01*
X0319250Y0176918D02*
X0301200Y0176918D01*
X0301200Y0154529D02*
X0325854Y0154529D01*
X0318293Y0148132D02*
X0376000Y0148132D01*
X0376000Y0151330D02*
X0301200Y0151330D01*
X0321492Y0144933D02*
X0376000Y0144933D01*
X0376000Y0141734D02*
X0324467Y0141734D01*
X0325880Y0138536D02*
X0376000Y0138536D01*
X0376000Y0135337D02*
X0326200Y0135337D01*
X0326200Y0132139D02*
X0376000Y0132139D01*
X0376000Y0128940D02*
X0326200Y0128940D01*
X0326200Y0125742D02*
X0376000Y0125742D01*
X0376000Y0122543D02*
X0326200Y0122543D01*
X0326116Y0119345D02*
X0376000Y0119345D01*
X0376000Y0116146D02*
X0364153Y0116146D01*
X0364636Y0115957D02*
X0359843Y0117838D01*
X0354709Y0118223D01*
X0349690Y0117077D01*
X0345232Y0114503D01*
X0341730Y0110729D01*
X0339496Y0106091D01*
X0338729Y0101000D01*
X0339496Y0095909D01*
X0341730Y0091271D01*
X0345232Y0087497D01*
X0349690Y0084923D01*
X0354709Y0083777D01*
X0359843Y0084162D01*
X0364636Y0086043D01*
X0368661Y0089253D01*
X0371561Y0093506D01*
X0373078Y0098426D01*
X0373078Y0103574D01*
X0371561Y0108494D01*
X0368661Y0112747D01*
X0364636Y0115957D01*
X0368409Y0112948D02*
X0376000Y0112948D01*
X0376000Y0109749D02*
X0370705Y0109749D01*
X0372160Y0106551D02*
X0376000Y0106551D01*
X0376000Y0103352D02*
X0373078Y0103352D01*
X0373078Y0100154D02*
X0376000Y0100154D01*
X0376000Y0096955D02*
X0372625Y0096955D01*
X0371638Y0093757D02*
X0376000Y0093757D01*
X0376000Y0090558D02*
X0369551Y0090558D01*
X0366287Y0087360D02*
X0376000Y0087360D01*
X0376000Y0084161D02*
X0359834Y0084161D01*
X0353027Y0084161D02*
X0034834Y0084161D01*
X0034843Y0084162D02*
X0039636Y0086043D01*
X0043661Y0089253D01*
X0046561Y0093506D01*
X0048078Y0098426D01*
X0048078Y0103574D01*
X0046561Y0108494D01*
X0043661Y0112747D01*
X0039636Y0115957D01*
X0034843Y0117838D01*
X0029709Y0118223D01*
X0024690Y0117077D01*
X0020232Y0114503D01*
X0016730Y0110729D01*
X0014496Y0106091D01*
X0013729Y0101000D01*
X0014496Y0095909D01*
X0016730Y0091271D01*
X0020232Y0087497D01*
X0024690Y0084923D01*
X0029709Y0083777D01*
X0034843Y0084162D01*
X0028027Y0084161D02*
X0009600Y0084161D01*
X0009600Y0087360D02*
X0020469Y0087360D01*
X0017391Y0090558D02*
X0009600Y0090558D01*
X0009600Y0093757D02*
X0015533Y0093757D01*
X0014339Y0096955D02*
X0009600Y0096955D01*
X0009600Y0100154D02*
X0013856Y0100154D01*
X0014084Y0103352D02*
X0009600Y0103352D01*
X0009600Y0106551D02*
X0014718Y0106551D01*
X0016258Y0109749D02*
X0009600Y0109749D01*
X0009600Y0112948D02*
X0018789Y0112948D01*
X0023078Y0116146D02*
X0009600Y0116146D01*
X0009600Y0119345D02*
X0106474Y0119345D01*
X0106474Y0119470D02*
X0106474Y0111810D01*
X0106330Y0110557D01*
X0106474Y0110054D01*
X0106474Y0109530D01*
X0106956Y0108365D01*
X0107303Y0107153D01*
X0107628Y0106743D01*
X0107829Y0106259D01*
X0108720Y0105367D01*
X0109504Y0104380D01*
X0109962Y0104125D01*
X0110332Y0103755D01*
X0111497Y0103273D01*
X0112599Y0102660D01*
X0113120Y0102600D01*
X0113603Y0102400D01*
X0114864Y0102400D01*
X0116117Y0102256D01*
X0116620Y0102400D01*
X0117144Y0102400D01*
X0117152Y0102403D01*
X0117159Y0102400D01*
X0120700Y0102400D01*
X0121041Y0102541D01*
X0121774Y0102297D01*
X0122447Y0102345D01*
X0123112Y0102228D01*
X0124197Y0102469D01*
X0124331Y0102479D01*
X0124466Y0102469D01*
X0125551Y0102228D01*
X0126215Y0102345D01*
X0126888Y0102297D01*
X0127943Y0102648D01*
X0128454Y0102738D01*
X0131306Y0102235D01*
X0134660Y0102827D01*
X0135607Y0102519D01*
X0135895Y0102400D01*
X0135974Y0102400D01*
X0139435Y0102400D01*
X0139435Y0102400D01*
X0141213Y0102400D01*
X0144119Y0103604D01*
X0147026Y0102400D01*
X0155971Y0102400D01*
X0156292Y0102533D01*
X0156613Y0102400D01*
X0160154Y0102400D01*
X0160935Y0102724D01*
X0161303Y0102604D01*
X0161796Y0102400D01*
X0165337Y0102400D01*
X0165699Y0102550D01*
X0168185Y0103220D01*
X0168185Y0103220D01*
X0170910Y0104803D01*
X0172019Y0105922D01*
X0172019Y0105922D01*
X0173266Y0107179D01*
X0174607Y0110456D01*
X0174593Y0113996D01*
X0174409Y0114434D01*
X0174422Y0114470D01*
X0174422Y0118048D01*
X0174218Y0118541D01*
X0173412Y0121022D01*
X0173412Y0121022D01*
X0171490Y0123668D01*
X0168845Y0125590D01*
X0168845Y0125590D01*
X0166363Y0126396D01*
X0165870Y0126600D01*
X0162223Y0126600D01*
X0162062Y0126546D01*
X0161932Y0126600D01*
X0145135Y0126600D01*
X0143048Y0125840D01*
X0141213Y0126600D01*
X0135895Y0126600D01*
X0135607Y0126481D01*
X0134660Y0126173D01*
X0131306Y0126765D01*
X0131306Y0126765D01*
X0129134Y0126382D01*
X0127378Y0126772D01*
X0124331Y0126236D01*
X0121284Y0126772D01*
X0120510Y0126600D01*
X0119439Y0126600D01*
X0118187Y0126744D01*
X0117683Y0126600D01*
X0117159Y0126600D01*
X0117152Y0126597D01*
X0117144Y0126600D01*
X0113603Y0126600D01*
X0110332Y0125245D01*
X0107829Y0122741D01*
X0106474Y0119470D01*
X0106474Y0116146D02*
X0039153Y0116146D01*
X0043409Y0112948D02*
X0106474Y0112948D01*
X0106474Y0109749D02*
X0045705Y0109749D01*
X0047160Y0106551D02*
X0107708Y0106551D01*
X0111304Y0103352D02*
X0048078Y0103352D01*
X0048078Y0100154D02*
X0338856Y0100154D01*
X0339084Y0103352D02*
X0312777Y0103352D01*
X0315976Y0106551D02*
X0339718Y0106551D01*
X0341258Y0109749D02*
X0319174Y0109749D01*
X0322263Y0112838D02*
X0322263Y0112838D01*
X0322373Y0112948D02*
X0343789Y0112948D01*
X0348078Y0116146D02*
X0324976Y0116146D01*
X0305800Y0125225D02*
X0305800Y0130800D01*
X0302417Y0130800D01*
X0301992Y0130375D01*
X0302750Y0127547D01*
X0302750Y0124453D01*
X0301949Y0121465D01*
X0301826Y0121251D01*
X0305800Y0125225D01*
X0305800Y0125742D02*
X0302750Y0125742D01*
X0303118Y0122543D02*
X0302238Y0122543D01*
X0302377Y0128940D02*
X0305800Y0128940D01*
X0336146Y0154529D02*
X0350993Y0154529D01*
X0361007Y0154529D02*
X0376000Y0154529D01*
X0376000Y0157727D02*
X0367132Y0157727D01*
X0369465Y0160926D02*
X0376000Y0160926D01*
X0376000Y0164124D02*
X0370507Y0164124D01*
X0370600Y0167323D02*
X0376000Y0167323D01*
X0376000Y0170521D02*
X0369784Y0170521D01*
X0370398Y0173720D02*
X0376000Y0173720D01*
X0376000Y0176918D02*
X0370600Y0176918D01*
X0369906Y0180117D02*
X0376000Y0180117D01*
X0376000Y0183315D02*
X0368090Y0183315D01*
X0363990Y0186514D02*
X0376000Y0186514D01*
X0376000Y0189712D02*
X0341200Y0189712D01*
X0341200Y0186514D02*
X0348010Y0186514D01*
X0341200Y0192911D02*
X0376000Y0192911D01*
X0376000Y0196109D02*
X0341200Y0196109D01*
X0341200Y0199308D02*
X0376000Y0199308D01*
X0376000Y0202506D02*
X0341156Y0202506D01*
X0340062Y0205705D02*
X0376000Y0205705D01*
X0376000Y0208903D02*
X0337522Y0208903D01*
X0334323Y0212102D02*
X0376000Y0212102D01*
X0376000Y0215300D02*
X0329588Y0215300D01*
X0329826Y0215237D02*
X0329826Y0215237D01*
X0333416Y0213009D02*
X0333416Y0213009D01*
X0327153Y0204847D02*
X0327064Y0204933D01*
X0326973Y0205016D01*
X0326879Y0205097D01*
X0326782Y0205174D01*
X0326683Y0205248D01*
X0326582Y0205319D01*
X0326479Y0205387D01*
X0326373Y0205452D01*
X0326266Y0205513D01*
X0326156Y0205571D01*
X0326045Y0205625D01*
X0325933Y0205676D01*
X0325818Y0205724D01*
X0325703Y0205767D01*
X0325586Y0205807D01*
X0325467Y0205844D01*
X0325348Y0205876D01*
X0325228Y0205905D01*
X0325107Y0205930D01*
X0324985Y0205952D01*
X0324862Y0205969D01*
X0324740Y0205983D01*
X0324616Y0205992D01*
X0324493Y0205998D01*
X0324369Y0206000D01*
X0308630Y0218499D02*
X0376000Y0218499D01*
X0376000Y0221697D02*
X0261200Y0221697D01*
X0261200Y0218499D02*
X0273370Y0218499D01*
X0270723Y0215300D02*
X0261200Y0215300D01*
X0261200Y0212102D02*
X0269431Y0212102D01*
X0269100Y0208903D02*
X0261200Y0208903D01*
X0261200Y0205705D02*
X0269100Y0205705D01*
X0269100Y0202506D02*
X0261200Y0202506D01*
X0261200Y0199308D02*
X0269589Y0199308D01*
X0270800Y0196109D02*
X0261200Y0196109D01*
X0261200Y0192911D02*
X0270800Y0192911D01*
X0270800Y0189712D02*
X0261200Y0189712D01*
X0261558Y0186514D02*
X0270800Y0186514D01*
X0270800Y0183315D02*
X0262699Y0183315D01*
X0262900Y0180117D02*
X0270800Y0180117D01*
X0270800Y0176918D02*
X0262226Y0176918D01*
X0251000Y0181000D02*
X0251000Y0231000D01*
X0260879Y0237690D02*
X0376000Y0237690D01*
X0376000Y0240888D02*
X0257673Y0240888D01*
X0262384Y0234491D02*
X0376000Y0234491D01*
X0376000Y0231293D02*
X0262900Y0231293D01*
X0262541Y0228094D02*
X0376000Y0228094D01*
X0376000Y0224896D02*
X0261217Y0224896D01*
X0244327Y0240888D02*
X0217673Y0240888D01*
X0220879Y0237690D02*
X0241121Y0237690D01*
X0239616Y0234491D02*
X0222384Y0234491D01*
X0222900Y0231293D02*
X0239100Y0231293D01*
X0239459Y0228094D02*
X0222541Y0228094D01*
X0221217Y0224896D02*
X0240783Y0224896D01*
X0240800Y0221697D02*
X0218526Y0221697D01*
X0218063Y0212102D02*
X0240800Y0212102D01*
X0240800Y0215300D02*
X0166200Y0215300D01*
X0166200Y0212102D02*
X0213937Y0212102D01*
X0224017Y0208903D02*
X0240800Y0208903D01*
X0240800Y0205705D02*
X0226283Y0205705D01*
X0227251Y0202506D02*
X0240800Y0202506D01*
X0240800Y0199308D02*
X0227201Y0199308D01*
X0226175Y0196109D02*
X0240800Y0196109D01*
X0240800Y0192911D02*
X0223831Y0192911D01*
X0219117Y0189712D02*
X0240800Y0189712D01*
X0240442Y0186514D02*
X0221558Y0186514D01*
X0222699Y0183315D02*
X0239301Y0183315D01*
X0239100Y0180117D02*
X0222900Y0180117D01*
X0222226Y0176918D02*
X0239774Y0176918D01*
X0241462Y0173720D02*
X0220538Y0173720D01*
X0216650Y0170521D02*
X0241096Y0170521D01*
X0237898Y0167323D02*
X0205276Y0167323D01*
X0205237Y0167174D02*
X0205237Y0167174D01*
X0196000Y0172631D02*
X0196000Y0181000D01*
X0211000Y0181000D01*
X0194847Y0169847D02*
X0191000Y0166000D01*
X0130700Y0166000D01*
X0130400Y0166300D01*
X0118249Y0176918D02*
X0031200Y0176918D01*
X0031200Y0173720D02*
X0115051Y0173720D01*
X0114300Y0170521D02*
X0031200Y0170521D01*
X0031200Y0167323D02*
X0114300Y0167323D01*
X0114300Y0164124D02*
X0031200Y0164124D01*
X0031200Y0160926D02*
X0043157Y0160926D01*
X0039958Y0157727D02*
X0031200Y0157727D01*
X0021000Y0151000D02*
X0021000Y0196000D01*
X0021000Y0206000D02*
X0021000Y0221000D01*
X0025400Y0225400D01*
X0051600Y0225400D01*
X0041121Y0237690D02*
X0009600Y0237690D01*
X0009600Y0240888D02*
X0044320Y0240888D01*
X0039636Y0246043D02*
X0043661Y0249253D01*
X0046561Y0253506D01*
X0048078Y0258426D01*
X0048078Y0263574D01*
X0046561Y0268494D01*
X0043661Y0272747D01*
X0039636Y0275957D01*
X0034843Y0277838D01*
X0029709Y0278223D01*
X0024690Y0277077D01*
X0020232Y0274503D01*
X0016730Y0270729D01*
X0014496Y0266091D01*
X0013729Y0261000D01*
X0014496Y0255909D01*
X0016730Y0251271D01*
X0020232Y0247497D01*
X0024690Y0244923D01*
X0029709Y0243777D01*
X0034843Y0244162D01*
X0039636Y0246043D01*
X0041194Y0247285D02*
X0137860Y0247285D01*
X0136267Y0244087D02*
X0033841Y0244087D01*
X0028353Y0244087D02*
X0009600Y0244087D01*
X0009600Y0247285D02*
X0020598Y0247285D01*
X0017460Y0250484D02*
X0009600Y0250484D01*
X0009600Y0253682D02*
X0015569Y0253682D01*
X0014350Y0256881D02*
X0009600Y0256881D01*
X0009600Y0260079D02*
X0013868Y0260079D01*
X0014072Y0263278D02*
X0009600Y0263278D01*
X0009600Y0266476D02*
X0014682Y0266476D01*
X0016222Y0269675D02*
X0009600Y0269675D01*
X0009600Y0272873D02*
X0018720Y0272873D01*
X0022949Y0276072D02*
X0009600Y0276072D01*
X0009600Y0279270D02*
X0278966Y0279270D01*
X0275915Y0276072D02*
X0039343Y0276072D01*
X0043502Y0272873D02*
X0274068Y0272873D01*
X0272997Y0269675D02*
X0045755Y0269675D01*
X0047183Y0266476D02*
X0272400Y0266476D01*
X0272400Y0263278D02*
X0048078Y0263278D01*
X0048078Y0260079D02*
X0273062Y0260079D01*
X0274210Y0256881D02*
X0047602Y0256881D01*
X0046615Y0253682D02*
X0144257Y0253682D01*
X0141059Y0250484D02*
X0044500Y0250484D01*
X0023929Y0261000D02*
X0023931Y0261174D01*
X0023938Y0261347D01*
X0023948Y0261520D01*
X0023963Y0261693D01*
X0023982Y0261866D01*
X0024006Y0262038D01*
X0024033Y0262209D01*
X0024065Y0262379D01*
X0024101Y0262549D01*
X0024141Y0262718D01*
X0024185Y0262886D01*
X0024233Y0263053D01*
X0024286Y0263218D01*
X0024342Y0263382D01*
X0024403Y0263545D01*
X0024467Y0263706D01*
X0024536Y0263865D01*
X0024608Y0264023D01*
X0024684Y0264179D01*
X0024764Y0264333D01*
X0024848Y0264485D01*
X0024935Y0264635D01*
X0025026Y0264783D01*
X0025121Y0264928D01*
X0025219Y0265072D01*
X0025321Y0265212D01*
X0025426Y0265350D01*
X0025534Y0265486D01*
X0025646Y0265619D01*
X0025761Y0265749D01*
X0025879Y0265876D01*
X0026000Y0266000D01*
X0026124Y0266121D01*
X0026251Y0266239D01*
X0026381Y0266354D01*
X0026514Y0266466D01*
X0026650Y0266574D01*
X0026788Y0266679D01*
X0026928Y0266781D01*
X0027072Y0266879D01*
X0027217Y0266974D01*
X0027365Y0267065D01*
X0027515Y0267152D01*
X0027667Y0267236D01*
X0027821Y0267316D01*
X0027977Y0267392D01*
X0028135Y0267464D01*
X0028294Y0267533D01*
X0028455Y0267597D01*
X0028618Y0267658D01*
X0028782Y0267714D01*
X0028947Y0267767D01*
X0029114Y0267815D01*
X0029282Y0267859D01*
X0029451Y0267899D01*
X0029621Y0267935D01*
X0029791Y0267967D01*
X0029962Y0267994D01*
X0030134Y0268018D01*
X0030307Y0268037D01*
X0030480Y0268052D01*
X0030653Y0268062D01*
X0030826Y0268069D01*
X0031000Y0268071D01*
X0031174Y0268069D01*
X0031347Y0268062D01*
X0031520Y0268052D01*
X0031693Y0268037D01*
X0031866Y0268018D01*
X0032038Y0267994D01*
X0032209Y0267967D01*
X0032379Y0267935D01*
X0032549Y0267899D01*
X0032718Y0267859D01*
X0032886Y0267815D01*
X0033053Y0267767D01*
X0033218Y0267714D01*
X0033382Y0267658D01*
X0033545Y0267597D01*
X0033706Y0267533D01*
X0033865Y0267464D01*
X0034023Y0267392D01*
X0034179Y0267316D01*
X0034333Y0267236D01*
X0034485Y0267152D01*
X0034635Y0267065D01*
X0034783Y0266974D01*
X0034928Y0266879D01*
X0035072Y0266781D01*
X0035212Y0266679D01*
X0035350Y0266574D01*
X0035486Y0266466D01*
X0035619Y0266354D01*
X0035749Y0266239D01*
X0035876Y0266121D01*
X0036000Y0266000D01*
X0036121Y0265876D01*
X0036239Y0265749D01*
X0036354Y0265619D01*
X0036466Y0265486D01*
X0036574Y0265350D01*
X0036679Y0265212D01*
X0036781Y0265072D01*
X0036879Y0264928D01*
X0036974Y0264783D01*
X0037065Y0264635D01*
X0037152Y0264485D01*
X0037236Y0264333D01*
X0037316Y0264179D01*
X0037392Y0264023D01*
X0037464Y0263865D01*
X0037533Y0263706D01*
X0037597Y0263545D01*
X0037658Y0263382D01*
X0037714Y0263218D01*
X0037767Y0263053D01*
X0037815Y0262886D01*
X0037859Y0262718D01*
X0037899Y0262549D01*
X0037935Y0262379D01*
X0037967Y0262209D01*
X0037994Y0262038D01*
X0038018Y0261866D01*
X0038037Y0261693D01*
X0038052Y0261520D01*
X0038062Y0261347D01*
X0038069Y0261174D01*
X0038071Y0261000D01*
X0038069Y0260826D01*
X0038062Y0260653D01*
X0038052Y0260480D01*
X0038037Y0260307D01*
X0038018Y0260134D01*
X0037994Y0259962D01*
X0037967Y0259791D01*
X0037935Y0259621D01*
X0037899Y0259451D01*
X0037859Y0259282D01*
X0037815Y0259114D01*
X0037767Y0258947D01*
X0037714Y0258782D01*
X0037658Y0258618D01*
X0037597Y0258455D01*
X0037533Y0258294D01*
X0037464Y0258135D01*
X0037392Y0257977D01*
X0037316Y0257821D01*
X0037236Y0257667D01*
X0037152Y0257515D01*
X0037065Y0257365D01*
X0036974Y0257217D01*
X0036879Y0257072D01*
X0036781Y0256928D01*
X0036679Y0256788D01*
X0036574Y0256650D01*
X0036466Y0256514D01*
X0036354Y0256381D01*
X0036239Y0256251D01*
X0036121Y0256124D01*
X0036000Y0256000D01*
X0035876Y0255879D01*
X0035749Y0255761D01*
X0035619Y0255646D01*
X0035486Y0255534D01*
X0035350Y0255426D01*
X0035212Y0255321D01*
X0035072Y0255219D01*
X0034928Y0255121D01*
X0034783Y0255026D01*
X0034635Y0254935D01*
X0034485Y0254848D01*
X0034333Y0254764D01*
X0034179Y0254684D01*
X0034023Y0254608D01*
X0033865Y0254536D01*
X0033706Y0254467D01*
X0033545Y0254403D01*
X0033382Y0254342D01*
X0033218Y0254286D01*
X0033053Y0254233D01*
X0032886Y0254185D01*
X0032718Y0254141D01*
X0032549Y0254101D01*
X0032379Y0254065D01*
X0032209Y0254033D01*
X0032038Y0254006D01*
X0031866Y0253982D01*
X0031693Y0253963D01*
X0031520Y0253948D01*
X0031347Y0253938D01*
X0031174Y0253931D01*
X0031000Y0253929D01*
X0030826Y0253931D01*
X0030653Y0253938D01*
X0030480Y0253948D01*
X0030307Y0253963D01*
X0030134Y0253982D01*
X0029962Y0254006D01*
X0029791Y0254033D01*
X0029621Y0254065D01*
X0029451Y0254101D01*
X0029282Y0254141D01*
X0029114Y0254185D01*
X0028947Y0254233D01*
X0028782Y0254286D01*
X0028618Y0254342D01*
X0028455Y0254403D01*
X0028294Y0254467D01*
X0028135Y0254536D01*
X0027977Y0254608D01*
X0027821Y0254684D01*
X0027667Y0254764D01*
X0027515Y0254848D01*
X0027365Y0254935D01*
X0027217Y0255026D01*
X0027072Y0255121D01*
X0026928Y0255219D01*
X0026788Y0255321D01*
X0026650Y0255426D01*
X0026514Y0255534D01*
X0026381Y0255646D01*
X0026251Y0255761D01*
X0026124Y0255879D01*
X0026000Y0256000D01*
X0025879Y0256124D01*
X0025761Y0256251D01*
X0025646Y0256381D01*
X0025534Y0256514D01*
X0025426Y0256650D01*
X0025321Y0256788D01*
X0025219Y0256928D01*
X0025121Y0257072D01*
X0025026Y0257217D01*
X0024935Y0257365D01*
X0024848Y0257515D01*
X0024764Y0257667D01*
X0024684Y0257821D01*
X0024608Y0257977D01*
X0024536Y0258135D01*
X0024467Y0258294D01*
X0024403Y0258455D01*
X0024342Y0258618D01*
X0024286Y0258782D01*
X0024233Y0258947D01*
X0024185Y0259114D01*
X0024141Y0259282D01*
X0024101Y0259451D01*
X0024065Y0259621D01*
X0024033Y0259791D01*
X0024006Y0259962D01*
X0023982Y0260134D01*
X0023963Y0260307D01*
X0023948Y0260480D01*
X0023938Y0260653D01*
X0023931Y0260826D01*
X0023929Y0261000D01*
X0058880Y0240888D02*
X0123120Y0240888D01*
X0119921Y0237690D02*
X0062079Y0237690D01*
X0065277Y0234491D02*
X0116723Y0234491D01*
X0114300Y0231293D02*
X0067700Y0231293D01*
X0067700Y0228094D02*
X0114300Y0228094D01*
X0114300Y0224896D02*
X0067700Y0224896D01*
X0067700Y0221697D02*
X0114300Y0221697D01*
X0114532Y0218499D02*
X0067468Y0218499D01*
X0064269Y0215300D02*
X0117231Y0215300D01*
X0114300Y0212102D02*
X0061071Y0212102D01*
X0042129Y0212102D02*
X0033872Y0212102D01*
X0035231Y0208903D02*
X0114300Y0208903D01*
X0114300Y0205705D02*
X0035600Y0205705D01*
X0035073Y0202506D02*
X0114300Y0202506D01*
X0114300Y0199308D02*
X0035123Y0199308D01*
X0035600Y0196109D02*
X0117222Y0196109D01*
X0120420Y0192911D02*
X0035181Y0192911D01*
X0033764Y0189712D02*
X0123619Y0189712D01*
X0121448Y0180117D02*
X0031200Y0180117D01*
X0031200Y0183315D02*
X0144301Y0183315D01*
X0144100Y0180117D02*
X0139352Y0180117D01*
X0142551Y0176918D02*
X0144774Y0176918D01*
X0145442Y0186514D02*
X0031200Y0186514D01*
X0060043Y0160926D02*
X0114300Y0160926D01*
X0116204Y0157727D02*
X0063242Y0157727D01*
X0066440Y0154529D02*
X0115560Y0154529D01*
X0114300Y0151330D02*
X0067700Y0151330D01*
X0067700Y0148132D02*
X0114300Y0148132D01*
X0114300Y0144933D02*
X0067700Y0144933D01*
X0067700Y0141734D02*
X0114300Y0141734D01*
X0115695Y0138536D02*
X0066305Y0138536D01*
X0063106Y0135337D02*
X0118894Y0135337D01*
X0122092Y0132139D02*
X0059908Y0132139D01*
X0051600Y0146600D02*
X0025400Y0146600D01*
X0021000Y0151000D01*
X0009600Y0125742D02*
X0111532Y0125742D01*
X0107747Y0122543D02*
X0009600Y0122543D01*
X0023929Y0101000D02*
X0023931Y0101174D01*
X0023938Y0101347D01*
X0023948Y0101520D01*
X0023963Y0101693D01*
X0023982Y0101866D01*
X0024006Y0102038D01*
X0024033Y0102209D01*
X0024065Y0102379D01*
X0024101Y0102549D01*
X0024141Y0102718D01*
X0024185Y0102886D01*
X0024233Y0103053D01*
X0024286Y0103218D01*
X0024342Y0103382D01*
X0024403Y0103545D01*
X0024467Y0103706D01*
X0024536Y0103865D01*
X0024608Y0104023D01*
X0024684Y0104179D01*
X0024764Y0104333D01*
X0024848Y0104485D01*
X0024935Y0104635D01*
X0025026Y0104783D01*
X0025121Y0104928D01*
X0025219Y0105072D01*
X0025321Y0105212D01*
X0025426Y0105350D01*
X0025534Y0105486D01*
X0025646Y0105619D01*
X0025761Y0105749D01*
X0025879Y0105876D01*
X0026000Y0106000D01*
X0026124Y0106121D01*
X0026251Y0106239D01*
X0026381Y0106354D01*
X0026514Y0106466D01*
X0026650Y0106574D01*
X0026788Y0106679D01*
X0026928Y0106781D01*
X0027072Y0106879D01*
X0027217Y0106974D01*
X0027365Y0107065D01*
X0027515Y0107152D01*
X0027667Y0107236D01*
X0027821Y0107316D01*
X0027977Y0107392D01*
X0028135Y0107464D01*
X0028294Y0107533D01*
X0028455Y0107597D01*
X0028618Y0107658D01*
X0028782Y0107714D01*
X0028947Y0107767D01*
X0029114Y0107815D01*
X0029282Y0107859D01*
X0029451Y0107899D01*
X0029621Y0107935D01*
X0029791Y0107967D01*
X0029962Y0107994D01*
X0030134Y0108018D01*
X0030307Y0108037D01*
X0030480Y0108052D01*
X0030653Y0108062D01*
X0030826Y0108069D01*
X0031000Y0108071D01*
X0031174Y0108069D01*
X0031347Y0108062D01*
X0031520Y0108052D01*
X0031693Y0108037D01*
X0031866Y0108018D01*
X0032038Y0107994D01*
X0032209Y0107967D01*
X0032379Y0107935D01*
X0032549Y0107899D01*
X0032718Y0107859D01*
X0032886Y0107815D01*
X0033053Y0107767D01*
X0033218Y0107714D01*
X0033382Y0107658D01*
X0033545Y0107597D01*
X0033706Y0107533D01*
X0033865Y0107464D01*
X0034023Y0107392D01*
X0034179Y0107316D01*
X0034333Y0107236D01*
X0034485Y0107152D01*
X0034635Y0107065D01*
X0034783Y0106974D01*
X0034928Y0106879D01*
X0035072Y0106781D01*
X0035212Y0106679D01*
X0035350Y0106574D01*
X0035486Y0106466D01*
X0035619Y0106354D01*
X0035749Y0106239D01*
X0035876Y0106121D01*
X0036000Y0106000D01*
X0036121Y0105876D01*
X0036239Y0105749D01*
X0036354Y0105619D01*
X0036466Y0105486D01*
X0036574Y0105350D01*
X0036679Y0105212D01*
X0036781Y0105072D01*
X0036879Y0104928D01*
X0036974Y0104783D01*
X0037065Y0104635D01*
X0037152Y0104485D01*
X0037236Y0104333D01*
X0037316Y0104179D01*
X0037392Y0104023D01*
X0037464Y0103865D01*
X0037533Y0103706D01*
X0037597Y0103545D01*
X0037658Y0103382D01*
X0037714Y0103218D01*
X0037767Y0103053D01*
X0037815Y0102886D01*
X0037859Y0102718D01*
X0037899Y0102549D01*
X0037935Y0102379D01*
X0037967Y0102209D01*
X0037994Y0102038D01*
X0038018Y0101866D01*
X0038037Y0101693D01*
X0038052Y0101520D01*
X0038062Y0101347D01*
X0038069Y0101174D01*
X0038071Y0101000D01*
X0038069Y0100826D01*
X0038062Y0100653D01*
X0038052Y0100480D01*
X0038037Y0100307D01*
X0038018Y0100134D01*
X0037994Y0099962D01*
X0037967Y0099791D01*
X0037935Y0099621D01*
X0037899Y0099451D01*
X0037859Y0099282D01*
X0037815Y0099114D01*
X0037767Y0098947D01*
X0037714Y0098782D01*
X0037658Y0098618D01*
X0037597Y0098455D01*
X0037533Y0098294D01*
X0037464Y0098135D01*
X0037392Y0097977D01*
X0037316Y0097821D01*
X0037236Y0097667D01*
X0037152Y0097515D01*
X0037065Y0097365D01*
X0036974Y0097217D01*
X0036879Y0097072D01*
X0036781Y0096928D01*
X0036679Y0096788D01*
X0036574Y0096650D01*
X0036466Y0096514D01*
X0036354Y0096381D01*
X0036239Y0096251D01*
X0036121Y0096124D01*
X0036000Y0096000D01*
X0035876Y0095879D01*
X0035749Y0095761D01*
X0035619Y0095646D01*
X0035486Y0095534D01*
X0035350Y0095426D01*
X0035212Y0095321D01*
X0035072Y0095219D01*
X0034928Y0095121D01*
X0034783Y0095026D01*
X0034635Y0094935D01*
X0034485Y0094848D01*
X0034333Y0094764D01*
X0034179Y0094684D01*
X0034023Y0094608D01*
X0033865Y0094536D01*
X0033706Y0094467D01*
X0033545Y0094403D01*
X0033382Y0094342D01*
X0033218Y0094286D01*
X0033053Y0094233D01*
X0032886Y0094185D01*
X0032718Y0094141D01*
X0032549Y0094101D01*
X0032379Y0094065D01*
X0032209Y0094033D01*
X0032038Y0094006D01*
X0031866Y0093982D01*
X0031693Y0093963D01*
X0031520Y0093948D01*
X0031347Y0093938D01*
X0031174Y0093931D01*
X0031000Y0093929D01*
X0030826Y0093931D01*
X0030653Y0093938D01*
X0030480Y0093948D01*
X0030307Y0093963D01*
X0030134Y0093982D01*
X0029962Y0094006D01*
X0029791Y0094033D01*
X0029621Y0094065D01*
X0029451Y0094101D01*
X0029282Y0094141D01*
X0029114Y0094185D01*
X0028947Y0094233D01*
X0028782Y0094286D01*
X0028618Y0094342D01*
X0028455Y0094403D01*
X0028294Y0094467D01*
X0028135Y0094536D01*
X0027977Y0094608D01*
X0027821Y0094684D01*
X0027667Y0094764D01*
X0027515Y0094848D01*
X0027365Y0094935D01*
X0027217Y0095026D01*
X0027072Y0095121D01*
X0026928Y0095219D01*
X0026788Y0095321D01*
X0026650Y0095426D01*
X0026514Y0095534D01*
X0026381Y0095646D01*
X0026251Y0095761D01*
X0026124Y0095879D01*
X0026000Y0096000D01*
X0025879Y0096124D01*
X0025761Y0096251D01*
X0025646Y0096381D01*
X0025534Y0096514D01*
X0025426Y0096650D01*
X0025321Y0096788D01*
X0025219Y0096928D01*
X0025121Y0097072D01*
X0025026Y0097217D01*
X0024935Y0097365D01*
X0024848Y0097515D01*
X0024764Y0097667D01*
X0024684Y0097821D01*
X0024608Y0097977D01*
X0024536Y0098135D01*
X0024467Y0098294D01*
X0024403Y0098455D01*
X0024342Y0098618D01*
X0024286Y0098782D01*
X0024233Y0098947D01*
X0024185Y0099114D01*
X0024141Y0099282D01*
X0024101Y0099451D01*
X0024065Y0099621D01*
X0024033Y0099791D01*
X0024006Y0099962D01*
X0023982Y0100134D01*
X0023963Y0100307D01*
X0023948Y0100480D01*
X0023938Y0100653D01*
X0023931Y0100826D01*
X0023929Y0101000D01*
X0041287Y0087360D02*
X0345469Y0087360D01*
X0342391Y0090558D02*
X0044551Y0090558D01*
X0046638Y0093757D02*
X0340533Y0093757D01*
X0339339Y0096955D02*
X0047625Y0096955D01*
X0131306Y0102235D02*
X0131306Y0102235D01*
X0135974Y0102400D02*
X0135974Y0102400D01*
X0143512Y0103352D02*
X0144726Y0103352D01*
X0168413Y0103352D02*
X0184223Y0103352D01*
X0182838Y0104737D02*
X0182838Y0104737D01*
X0181024Y0106551D02*
X0172643Y0106551D01*
X0170910Y0104803D02*
X0170910Y0104803D01*
X0174318Y0109749D02*
X0177831Y0109749D01*
X0176258Y0112948D02*
X0174597Y0112948D01*
X0174422Y0116146D02*
X0175800Y0116146D01*
X0175800Y0119345D02*
X0173957Y0119345D01*
X0172307Y0122543D02*
X0175800Y0122543D01*
X0175800Y0125742D02*
X0168376Y0125742D01*
X0171490Y0123668D02*
X0171490Y0123668D01*
X0171490Y0123668D01*
X0197750Y0144933D02*
X0241228Y0144933D01*
X0249847Y0164847D02*
X0249936Y0164933D01*
X0250027Y0165016D01*
X0250121Y0165097D01*
X0250218Y0165174D01*
X0250317Y0165248D01*
X0250418Y0165319D01*
X0250521Y0165387D01*
X0250627Y0165452D01*
X0250734Y0165513D01*
X0250844Y0165571D01*
X0250955Y0165625D01*
X0251067Y0165676D01*
X0251182Y0165724D01*
X0251297Y0165767D01*
X0251414Y0165807D01*
X0251533Y0165844D01*
X0251652Y0165876D01*
X0251772Y0165905D01*
X0251893Y0165930D01*
X0252015Y0165952D01*
X0252138Y0165969D01*
X0252260Y0165983D01*
X0252384Y0165992D01*
X0252507Y0165998D01*
X0252631Y0166000D01*
X0216000Y0201000D02*
X0156000Y0201000D01*
X0156000Y0231000D01*
X0166217Y0224896D02*
X0185783Y0224896D01*
X0184459Y0228094D02*
X0167541Y0228094D01*
X0167900Y0231293D02*
X0184100Y0231293D01*
X0184616Y0234491D02*
X0167384Y0234491D01*
X0166200Y0221697D02*
X0188474Y0221697D01*
X0196000Y0231000D02*
X0196000Y0241000D01*
X0191000Y0246000D01*
X0151000Y0246000D01*
X0146000Y0241000D01*
X0146000Y0211000D01*
X0140700Y0205700D01*
X0130400Y0205700D01*
X0140379Y0192911D02*
X0145800Y0192911D01*
X0145800Y0196109D02*
X0144316Y0196109D01*
X0145800Y0189712D02*
X0137181Y0189712D01*
X0156000Y0181000D02*
X0156000Y0201000D01*
X0166200Y0190800D02*
X0189174Y0190800D01*
X0188693Y0190522D01*
X0186478Y0188307D01*
X0184911Y0185593D01*
X0184100Y0182567D01*
X0184100Y0179433D01*
X0184911Y0176407D01*
X0185030Y0176200D01*
X0166970Y0176200D01*
X0167089Y0176407D01*
X0167900Y0179433D01*
X0167900Y0182567D01*
X0167089Y0185593D01*
X0166200Y0187133D01*
X0166200Y0190800D01*
X0166200Y0189712D02*
X0187883Y0189712D01*
X0185442Y0186514D02*
X0166558Y0186514D01*
X0167699Y0183315D02*
X0184301Y0183315D01*
X0184100Y0180117D02*
X0167900Y0180117D01*
X0167226Y0176918D02*
X0184774Y0176918D01*
X0196000Y0172631D02*
X0195998Y0172507D01*
X0195992Y0172384D01*
X0195983Y0172260D01*
X0195969Y0172138D01*
X0195952Y0172015D01*
X0195930Y0171893D01*
X0195905Y0171772D01*
X0195876Y0171652D01*
X0195844Y0171533D01*
X0195807Y0171414D01*
X0195767Y0171297D01*
X0195724Y0171182D01*
X0195676Y0171067D01*
X0195625Y0170955D01*
X0195571Y0170844D01*
X0195513Y0170734D01*
X0195452Y0170627D01*
X0195387Y0170521D01*
X0195319Y0170418D01*
X0195248Y0170317D01*
X0195174Y0170218D01*
X0195097Y0170121D01*
X0195016Y0170027D01*
X0194933Y0169936D01*
X0194847Y0169847D01*
X0166200Y0218499D02*
X0240800Y0218499D01*
X0211000Y0231000D02*
X0196000Y0231000D01*
X0205733Y0244087D02*
X0353353Y0244087D01*
X0354709Y0243777D02*
X0359843Y0244162D01*
X0364636Y0246043D01*
X0368661Y0249253D01*
X0371561Y0253506D01*
X0373078Y0258426D01*
X0373078Y0263574D01*
X0371561Y0268494D01*
X0368661Y0272747D01*
X0364636Y0275957D01*
X0359843Y0277838D01*
X0354709Y0278223D01*
X0349690Y0277077D01*
X0345232Y0274503D01*
X0341730Y0270729D01*
X0339496Y0266091D01*
X0338729Y0261000D01*
X0339496Y0255909D01*
X0341730Y0251271D01*
X0345232Y0247497D01*
X0349690Y0244923D01*
X0354709Y0243777D01*
X0358841Y0244087D02*
X0376000Y0244087D01*
X0376000Y0247285D02*
X0366194Y0247285D01*
X0369500Y0250484D02*
X0376000Y0250484D01*
X0376000Y0253682D02*
X0371615Y0253682D01*
X0372602Y0256881D02*
X0376000Y0256881D01*
X0376000Y0260079D02*
X0373078Y0260079D01*
X0373078Y0263278D02*
X0376000Y0263278D01*
X0376000Y0266476D02*
X0372183Y0266476D01*
X0370755Y0269675D02*
X0376000Y0269675D01*
X0376000Y0272873D02*
X0368502Y0272873D01*
X0364343Y0276072D02*
X0376000Y0276072D01*
X0376000Y0279270D02*
X0303034Y0279270D01*
X0306085Y0276072D02*
X0347949Y0276072D01*
X0343720Y0272873D02*
X0307932Y0272873D01*
X0309003Y0269675D02*
X0341222Y0269675D01*
X0339682Y0266476D02*
X0309600Y0266476D01*
X0309600Y0263278D02*
X0339072Y0263278D01*
X0338868Y0260079D02*
X0308938Y0260079D01*
X0307790Y0256881D02*
X0339350Y0256881D01*
X0340569Y0253682D02*
X0305943Y0253682D01*
X0302788Y0250484D02*
X0342460Y0250484D01*
X0345598Y0247285D02*
X0296753Y0247285D01*
X0285247Y0247285D02*
X0204140Y0247285D01*
X0200941Y0250484D02*
X0279212Y0250484D01*
X0276057Y0253682D02*
X0197743Y0253682D01*
X0348929Y0261000D02*
X0348931Y0261174D01*
X0348938Y0261347D01*
X0348948Y0261520D01*
X0348963Y0261693D01*
X0348982Y0261866D01*
X0349006Y0262038D01*
X0349033Y0262209D01*
X0349065Y0262379D01*
X0349101Y0262549D01*
X0349141Y0262718D01*
X0349185Y0262886D01*
X0349233Y0263053D01*
X0349286Y0263218D01*
X0349342Y0263382D01*
X0349403Y0263545D01*
X0349467Y0263706D01*
X0349536Y0263865D01*
X0349608Y0264023D01*
X0349684Y0264179D01*
X0349764Y0264333D01*
X0349848Y0264485D01*
X0349935Y0264635D01*
X0350026Y0264783D01*
X0350121Y0264928D01*
X0350219Y0265072D01*
X0350321Y0265212D01*
X0350426Y0265350D01*
X0350534Y0265486D01*
X0350646Y0265619D01*
X0350761Y0265749D01*
X0350879Y0265876D01*
X0351000Y0266000D01*
X0351124Y0266121D01*
X0351251Y0266239D01*
X0351381Y0266354D01*
X0351514Y0266466D01*
X0351650Y0266574D01*
X0351788Y0266679D01*
X0351928Y0266781D01*
X0352072Y0266879D01*
X0352217Y0266974D01*
X0352365Y0267065D01*
X0352515Y0267152D01*
X0352667Y0267236D01*
X0352821Y0267316D01*
X0352977Y0267392D01*
X0353135Y0267464D01*
X0353294Y0267533D01*
X0353455Y0267597D01*
X0353618Y0267658D01*
X0353782Y0267714D01*
X0353947Y0267767D01*
X0354114Y0267815D01*
X0354282Y0267859D01*
X0354451Y0267899D01*
X0354621Y0267935D01*
X0354791Y0267967D01*
X0354962Y0267994D01*
X0355134Y0268018D01*
X0355307Y0268037D01*
X0355480Y0268052D01*
X0355653Y0268062D01*
X0355826Y0268069D01*
X0356000Y0268071D01*
X0356174Y0268069D01*
X0356347Y0268062D01*
X0356520Y0268052D01*
X0356693Y0268037D01*
X0356866Y0268018D01*
X0357038Y0267994D01*
X0357209Y0267967D01*
X0357379Y0267935D01*
X0357549Y0267899D01*
X0357718Y0267859D01*
X0357886Y0267815D01*
X0358053Y0267767D01*
X0358218Y0267714D01*
X0358382Y0267658D01*
X0358545Y0267597D01*
X0358706Y0267533D01*
X0358865Y0267464D01*
X0359023Y0267392D01*
X0359179Y0267316D01*
X0359333Y0267236D01*
X0359485Y0267152D01*
X0359635Y0267065D01*
X0359783Y0266974D01*
X0359928Y0266879D01*
X0360072Y0266781D01*
X0360212Y0266679D01*
X0360350Y0266574D01*
X0360486Y0266466D01*
X0360619Y0266354D01*
X0360749Y0266239D01*
X0360876Y0266121D01*
X0361000Y0266000D01*
X0361121Y0265876D01*
X0361239Y0265749D01*
X0361354Y0265619D01*
X0361466Y0265486D01*
X0361574Y0265350D01*
X0361679Y0265212D01*
X0361781Y0265072D01*
X0361879Y0264928D01*
X0361974Y0264783D01*
X0362065Y0264635D01*
X0362152Y0264485D01*
X0362236Y0264333D01*
X0362316Y0264179D01*
X0362392Y0264023D01*
X0362464Y0263865D01*
X0362533Y0263706D01*
X0362597Y0263545D01*
X0362658Y0263382D01*
X0362714Y0263218D01*
X0362767Y0263053D01*
X0362815Y0262886D01*
X0362859Y0262718D01*
X0362899Y0262549D01*
X0362935Y0262379D01*
X0362967Y0262209D01*
X0362994Y0262038D01*
X0363018Y0261866D01*
X0363037Y0261693D01*
X0363052Y0261520D01*
X0363062Y0261347D01*
X0363069Y0261174D01*
X0363071Y0261000D01*
X0363069Y0260826D01*
X0363062Y0260653D01*
X0363052Y0260480D01*
X0363037Y0260307D01*
X0363018Y0260134D01*
X0362994Y0259962D01*
X0362967Y0259791D01*
X0362935Y0259621D01*
X0362899Y0259451D01*
X0362859Y0259282D01*
X0362815Y0259114D01*
X0362767Y0258947D01*
X0362714Y0258782D01*
X0362658Y0258618D01*
X0362597Y0258455D01*
X0362533Y0258294D01*
X0362464Y0258135D01*
X0362392Y0257977D01*
X0362316Y0257821D01*
X0362236Y0257667D01*
X0362152Y0257515D01*
X0362065Y0257365D01*
X0361974Y0257217D01*
X0361879Y0257072D01*
X0361781Y0256928D01*
X0361679Y0256788D01*
X0361574Y0256650D01*
X0361466Y0256514D01*
X0361354Y0256381D01*
X0361239Y0256251D01*
X0361121Y0256124D01*
X0361000Y0256000D01*
X0360876Y0255879D01*
X0360749Y0255761D01*
X0360619Y0255646D01*
X0360486Y0255534D01*
X0360350Y0255426D01*
X0360212Y0255321D01*
X0360072Y0255219D01*
X0359928Y0255121D01*
X0359783Y0255026D01*
X0359635Y0254935D01*
X0359485Y0254848D01*
X0359333Y0254764D01*
X0359179Y0254684D01*
X0359023Y0254608D01*
X0358865Y0254536D01*
X0358706Y0254467D01*
X0358545Y0254403D01*
X0358382Y0254342D01*
X0358218Y0254286D01*
X0358053Y0254233D01*
X0357886Y0254185D01*
X0357718Y0254141D01*
X0357549Y0254101D01*
X0357379Y0254065D01*
X0357209Y0254033D01*
X0357038Y0254006D01*
X0356866Y0253982D01*
X0356693Y0253963D01*
X0356520Y0253948D01*
X0356347Y0253938D01*
X0356174Y0253931D01*
X0356000Y0253929D01*
X0355826Y0253931D01*
X0355653Y0253938D01*
X0355480Y0253948D01*
X0355307Y0253963D01*
X0355134Y0253982D01*
X0354962Y0254006D01*
X0354791Y0254033D01*
X0354621Y0254065D01*
X0354451Y0254101D01*
X0354282Y0254141D01*
X0354114Y0254185D01*
X0353947Y0254233D01*
X0353782Y0254286D01*
X0353618Y0254342D01*
X0353455Y0254403D01*
X0353294Y0254467D01*
X0353135Y0254536D01*
X0352977Y0254608D01*
X0352821Y0254684D01*
X0352667Y0254764D01*
X0352515Y0254848D01*
X0352365Y0254935D01*
X0352217Y0255026D01*
X0352072Y0255121D01*
X0351928Y0255219D01*
X0351788Y0255321D01*
X0351650Y0255426D01*
X0351514Y0255534D01*
X0351381Y0255646D01*
X0351251Y0255761D01*
X0351124Y0255879D01*
X0351000Y0256000D01*
X0350879Y0256124D01*
X0350761Y0256251D01*
X0350646Y0256381D01*
X0350534Y0256514D01*
X0350426Y0256650D01*
X0350321Y0256788D01*
X0350219Y0256928D01*
X0350121Y0257072D01*
X0350026Y0257217D01*
X0349935Y0257365D01*
X0349848Y0257515D01*
X0349764Y0257667D01*
X0349684Y0257821D01*
X0349608Y0257977D01*
X0349536Y0258135D01*
X0349467Y0258294D01*
X0349403Y0258455D01*
X0349342Y0258618D01*
X0349286Y0258782D01*
X0349233Y0258947D01*
X0349185Y0259114D01*
X0349141Y0259282D01*
X0349101Y0259451D01*
X0349065Y0259621D01*
X0349033Y0259791D01*
X0349006Y0259962D01*
X0348982Y0260134D01*
X0348963Y0260307D01*
X0348948Y0260480D01*
X0348938Y0260653D01*
X0348931Y0260826D01*
X0348929Y0261000D01*
X0348929Y0101000D02*
X0348931Y0101174D01*
X0348938Y0101347D01*
X0348948Y0101520D01*
X0348963Y0101693D01*
X0348982Y0101866D01*
X0349006Y0102038D01*
X0349033Y0102209D01*
X0349065Y0102379D01*
X0349101Y0102549D01*
X0349141Y0102718D01*
X0349185Y0102886D01*
X0349233Y0103053D01*
X0349286Y0103218D01*
X0349342Y0103382D01*
X0349403Y0103545D01*
X0349467Y0103706D01*
X0349536Y0103865D01*
X0349608Y0104023D01*
X0349684Y0104179D01*
X0349764Y0104333D01*
X0349848Y0104485D01*
X0349935Y0104635D01*
X0350026Y0104783D01*
X0350121Y0104928D01*
X0350219Y0105072D01*
X0350321Y0105212D01*
X0350426Y0105350D01*
X0350534Y0105486D01*
X0350646Y0105619D01*
X0350761Y0105749D01*
X0350879Y0105876D01*
X0351000Y0106000D01*
X0351124Y0106121D01*
X0351251Y0106239D01*
X0351381Y0106354D01*
X0351514Y0106466D01*
X0351650Y0106574D01*
X0351788Y0106679D01*
X0351928Y0106781D01*
X0352072Y0106879D01*
X0352217Y0106974D01*
X0352365Y0107065D01*
X0352515Y0107152D01*
X0352667Y0107236D01*
X0352821Y0107316D01*
X0352977Y0107392D01*
X0353135Y0107464D01*
X0353294Y0107533D01*
X0353455Y0107597D01*
X0353618Y0107658D01*
X0353782Y0107714D01*
X0353947Y0107767D01*
X0354114Y0107815D01*
X0354282Y0107859D01*
X0354451Y0107899D01*
X0354621Y0107935D01*
X0354791Y0107967D01*
X0354962Y0107994D01*
X0355134Y0108018D01*
X0355307Y0108037D01*
X0355480Y0108052D01*
X0355653Y0108062D01*
X0355826Y0108069D01*
X0356000Y0108071D01*
X0356174Y0108069D01*
X0356347Y0108062D01*
X0356520Y0108052D01*
X0356693Y0108037D01*
X0356866Y0108018D01*
X0357038Y0107994D01*
X0357209Y0107967D01*
X0357379Y0107935D01*
X0357549Y0107899D01*
X0357718Y0107859D01*
X0357886Y0107815D01*
X0358053Y0107767D01*
X0358218Y0107714D01*
X0358382Y0107658D01*
X0358545Y0107597D01*
X0358706Y0107533D01*
X0358865Y0107464D01*
X0359023Y0107392D01*
X0359179Y0107316D01*
X0359333Y0107236D01*
X0359485Y0107152D01*
X0359635Y0107065D01*
X0359783Y0106974D01*
X0359928Y0106879D01*
X0360072Y0106781D01*
X0360212Y0106679D01*
X0360350Y0106574D01*
X0360486Y0106466D01*
X0360619Y0106354D01*
X0360749Y0106239D01*
X0360876Y0106121D01*
X0361000Y0106000D01*
X0361121Y0105876D01*
X0361239Y0105749D01*
X0361354Y0105619D01*
X0361466Y0105486D01*
X0361574Y0105350D01*
X0361679Y0105212D01*
X0361781Y0105072D01*
X0361879Y0104928D01*
X0361974Y0104783D01*
X0362065Y0104635D01*
X0362152Y0104485D01*
X0362236Y0104333D01*
X0362316Y0104179D01*
X0362392Y0104023D01*
X0362464Y0103865D01*
X0362533Y0103706D01*
X0362597Y0103545D01*
X0362658Y0103382D01*
X0362714Y0103218D01*
X0362767Y0103053D01*
X0362815Y0102886D01*
X0362859Y0102718D01*
X0362899Y0102549D01*
X0362935Y0102379D01*
X0362967Y0102209D01*
X0362994Y0102038D01*
X0363018Y0101866D01*
X0363037Y0101693D01*
X0363052Y0101520D01*
X0363062Y0101347D01*
X0363069Y0101174D01*
X0363071Y0101000D01*
X0363069Y0100826D01*
X0363062Y0100653D01*
X0363052Y0100480D01*
X0363037Y0100307D01*
X0363018Y0100134D01*
X0362994Y0099962D01*
X0362967Y0099791D01*
X0362935Y0099621D01*
X0362899Y0099451D01*
X0362859Y0099282D01*
X0362815Y0099114D01*
X0362767Y0098947D01*
X0362714Y0098782D01*
X0362658Y0098618D01*
X0362597Y0098455D01*
X0362533Y0098294D01*
X0362464Y0098135D01*
X0362392Y0097977D01*
X0362316Y0097821D01*
X0362236Y0097667D01*
X0362152Y0097515D01*
X0362065Y0097365D01*
X0361974Y0097217D01*
X0361879Y0097072D01*
X0361781Y0096928D01*
X0361679Y0096788D01*
X0361574Y0096650D01*
X0361466Y0096514D01*
X0361354Y0096381D01*
X0361239Y0096251D01*
X0361121Y0096124D01*
X0361000Y0096000D01*
X0360876Y0095879D01*
X0360749Y0095761D01*
X0360619Y0095646D01*
X0360486Y0095534D01*
X0360350Y0095426D01*
X0360212Y0095321D01*
X0360072Y0095219D01*
X0359928Y0095121D01*
X0359783Y0095026D01*
X0359635Y0094935D01*
X0359485Y0094848D01*
X0359333Y0094764D01*
X0359179Y0094684D01*
X0359023Y0094608D01*
X0358865Y0094536D01*
X0358706Y0094467D01*
X0358545Y0094403D01*
X0358382Y0094342D01*
X0358218Y0094286D01*
X0358053Y0094233D01*
X0357886Y0094185D01*
X0357718Y0094141D01*
X0357549Y0094101D01*
X0357379Y0094065D01*
X0357209Y0094033D01*
X0357038Y0094006D01*
X0356866Y0093982D01*
X0356693Y0093963D01*
X0356520Y0093948D01*
X0356347Y0093938D01*
X0356174Y0093931D01*
X0356000Y0093929D01*
X0355826Y0093931D01*
X0355653Y0093938D01*
X0355480Y0093948D01*
X0355307Y0093963D01*
X0355134Y0093982D01*
X0354962Y0094006D01*
X0354791Y0094033D01*
X0354621Y0094065D01*
X0354451Y0094101D01*
X0354282Y0094141D01*
X0354114Y0094185D01*
X0353947Y0094233D01*
X0353782Y0094286D01*
X0353618Y0094342D01*
X0353455Y0094403D01*
X0353294Y0094467D01*
X0353135Y0094536D01*
X0352977Y0094608D01*
X0352821Y0094684D01*
X0352667Y0094764D01*
X0352515Y0094848D01*
X0352365Y0094935D01*
X0352217Y0095026D01*
X0352072Y0095121D01*
X0351928Y0095219D01*
X0351788Y0095321D01*
X0351650Y0095426D01*
X0351514Y0095534D01*
X0351381Y0095646D01*
X0351251Y0095761D01*
X0351124Y0095879D01*
X0351000Y0096000D01*
X0350879Y0096124D01*
X0350761Y0096251D01*
X0350646Y0096381D01*
X0350534Y0096514D01*
X0350426Y0096650D01*
X0350321Y0096788D01*
X0350219Y0096928D01*
X0350121Y0097072D01*
X0350026Y0097217D01*
X0349935Y0097365D01*
X0349848Y0097515D01*
X0349764Y0097667D01*
X0349684Y0097821D01*
X0349608Y0097977D01*
X0349536Y0098135D01*
X0349467Y0098294D01*
X0349403Y0098455D01*
X0349342Y0098618D01*
X0349286Y0098782D01*
X0349233Y0098947D01*
X0349185Y0099114D01*
X0349141Y0099282D01*
X0349101Y0099451D01*
X0349065Y0099621D01*
X0349033Y0099791D01*
X0349006Y0099962D01*
X0348982Y0100134D01*
X0348963Y0100307D01*
X0348948Y0100480D01*
X0348938Y0100653D01*
X0348931Y0100826D01*
X0348929Y0101000D01*
X0020747Y0234491D02*
X0009600Y0234491D01*
X0009600Y0231293D02*
X0016868Y0231293D01*
X0013669Y0228094D02*
X0009600Y0228094D01*
X0009600Y0224896D02*
X0011484Y0224896D01*
X0010800Y0221697D02*
X0009600Y0221697D01*
X0009600Y0218499D02*
X0010800Y0218499D01*
X0010800Y0215300D02*
X0009600Y0215300D01*
D12*
X0156000Y0231000D03*
X0196000Y0231000D03*
X0211000Y0231000D03*
X0251000Y0231000D03*
X0251000Y0181000D03*
X0211000Y0181000D03*
X0196000Y0181000D03*
X0156000Y0181000D03*
D13*
X0186000Y0136000D03*
X0291000Y0136000D03*
X0291000Y0166000D03*
X0331000Y0166000D03*
D14*
X0331000Y0176000D03*
X0281000Y0166000D03*
X0291000Y0126000D03*
X0186000Y0146000D03*
D15*
X0281000Y0202700D02*
X0281000Y0209300D01*
X0291000Y0209300D02*
X0291000Y0202700D01*
X0301000Y0202700D02*
X0301000Y0209300D01*
D16*
X0353000Y0176000D02*
X0359000Y0176000D01*
X0359000Y0166000D02*
X0353000Y0166000D01*
X0024000Y0196000D02*
X0018000Y0196000D01*
X0018000Y0206000D02*
X0024000Y0206000D01*
D17*
X0246000Y0156000D03*
X0246000Y0126000D03*
D18*
X0130400Y0146600D03*
X0130400Y0166300D03*
X0130400Y0205700D03*
X0130400Y0225400D03*
X0051600Y0225400D03*
X0051600Y0146600D03*
D19*
X0216000Y0201000D03*
X0226000Y0126000D03*
M02*
